<svg xmlns="http://www.w3.org/2000/svg" viewBox="0 0 2142.39 813.94"><defs><style>.cls-1{isolation:isolate;}.cls-2{fill:#ffd168;}.cls-2,.cls-4{mix-blend-mode:overlay;}.cls-3{fill:#f4454b;}.cls-3,.cls-5{mix-blend-mode:difference;}.cls-4{fill:#083c4b;}.cls-5{fill:#0e8bb1;}</style></defs><g class="cls-1"><g id="Layer_1" data-name="Layer 1"><path class="cls-2" d="M1948.54,199.2c35.15,36.43,66.47,70.63,71,108,4.79,37.39-17.26,77.66-37.08,126.24-19.81,48.26-37.39,104.82-71.58,117.61-33.88,12.78-84-17.58-133.91-40.27-49.54-22.37-98.43-36.44-137.1-71.91s-66.8-92-55-138.7c11.82-46.34,63.92-82.77,112.17-117,48.58-34.19,93.32-66.47,135.19-63C1874.07,123.46,1913.38,162.45,1948.54,199.2Z" transform="translate(122.24 -120)"/><path class="cls-3" d="M140.46,326.88c27.71,25,63.41,34.2,88.37,59.41,24.71,25,38.69,65.65,27,96.85-11.49,31.45-48.68,53.42-83.38,63.41-34.69,10.23-67.14,8.23-104.83,15.72-37.95,7.49-81.13,24-117.07,14.23-35.95-9.49-64.65-45.68-71.14-84.62-6.74-38.69,8.73-80.38,28.2-114.82,19.72-34.2,42.94-61.16,71.14-86.12,28.21-24.71,61.16-47.18,87.62-38.19C92.79,261.48,112.76,301.92,140.46,326.88Z" transform="translate(122.24 -120)"/><path class="cls-4" d="M1912.69,498.27c42,48.54,55.1,123.82,35.19,184.09-19.64,60.28-72.28,105.28-120.28,108.83-48.28,3.27-91.64-35.19-138.55-60-47.18-25.09-98.19-36.27-105.82-60.27s27.82-60.82,59.45-106.64c31.64-46.09,59.46-101.73,108.55-118.64C1800.33,428.45,1871,450,1912.69,498.27Z" transform="translate(122.24 -120)"/><path class="cls-5" d="M360.08,563.29c31,23.63,37.28,79.73,32.48,131.4-5.17,51.31-21.41,97.44-52.41,145.06-31.38,47.61-77.52,96.33-121.81,94.12-43.92-2.59-85.63-55.74-129.55-103.35C45.24,782.91-.53,741.2-19.72,680.3s-11.82-141,32.11-164.25c43.55-23.62,123.64,9.6,191.93,21.41S328.7,540,360.08,563.29Z" transform="translate(122.24 -120)"/></g></g></svg>