<svg width="3052" height="1777" viewBox="0 0 3052 1777" fill="none" xmlns="http://www.w3.org/2000/svg">
<rect width="3052" height="1777" fill="#E43D30"/>
<g filter="url(#filter0_dii)">
<rect width="471.29" height="954" rx="60" transform="matrix(1 0 -0.00820296 0.999966 1293.83 411)" fill="#E6E6E6"/>
</g>
<g clip-path="url(#clip0)">
<path d="M1593.3 716.93H1547.62L1547.7 707.089C1547.71 706.464 1547.46 705.865 1547.03 705.424C1546.59 704.982 1545.99 704.734 1545.36 704.734H1531.95L1532.03 694.244C1532.04 693.851 1531.88 693.474 1531.61 693.196C1531.33 692.917 1530.95 692.761 1530.56 692.761H1513.28C1512.89 692.761 1512.51 692.917 1512.22 693.196C1511.94 693.474 1511.78 693.851 1511.78 694.244L1511.69 704.734H1495.93C1495.3 704.734 1494.7 704.982 1494.25 705.424C1493.8 705.865 1493.55 706.464 1493.54 707.089L1493.46 716.93H1449.91C1449.78 716.931 1449.66 716.982 1449.57 717.071C1449.48 717.161 1449.43 717.282 1449.43 717.409L1448.35 848.145C1448.35 848.271 1448.4 848.392 1448.49 848.482C1448.58 848.572 1448.7 848.623 1448.83 848.624H1477.77C1477.84 848.624 1477.9 848.611 1477.96 848.587C1478.02 848.563 1478.07 848.528 1478.11 848.483C1478.16 848.439 1478.2 848.386 1478.22 848.328C1478.24 848.27 1478.26 848.208 1478.26 848.145L1478.4 830.557C1478.4 830.43 1478.46 830.309 1478.55 830.219C1478.64 830.129 1478.76 830.079 1478.89 830.078H1491.11C1491.24 830.079 1491.36 830.129 1491.45 830.219C1491.54 830.309 1491.59 830.43 1491.59 830.557L1491.45 848.145C1491.45 848.271 1491.49 848.392 1491.58 848.482C1491.67 848.572 1491.79 848.623 1491.92 848.624H1549.12C1549.25 848.623 1549.37 848.572 1549.46 848.482C1549.55 848.393 1549.6 848.271 1549.6 848.145L1549.75 830.557C1549.75 830.43 1549.8 830.309 1549.89 830.219C1549.98 830.13 1550.1 830.079 1550.23 830.078H1562.46C1562.58 830.078 1562.71 830.128 1562.79 830.218C1562.88 830.308 1562.93 830.43 1562.93 830.557L1562.79 848.145C1562.79 848.271 1562.84 848.393 1562.93 848.482C1563.02 848.572 1563.14 848.623 1563.26 848.624H1592.21C1592.34 848.623 1592.46 848.572 1592.55 848.482C1592.64 848.393 1592.69 848.271 1592.7 848.145L1593.77 717.416C1593.77 717.289 1593.72 717.167 1593.63 717.076C1593.55 716.985 1593.43 716.932 1593.3 716.93V716.93ZM1473.27 823.969C1473.27 824.095 1473.22 824.216 1473.13 824.305C1473.04 824.394 1472.92 824.444 1472.79 824.444H1454.92C1454.85 824.445 1454.79 824.433 1454.73 824.409C1454.67 824.386 1454.62 824.351 1454.58 824.306C1454.53 824.262 1454.5 824.21 1454.47 824.152C1454.45 824.094 1454.44 824.032 1454.44 823.969L1454.49 817.882C1454.49 817.755 1454.54 817.633 1454.63 817.543C1454.72 817.453 1454.85 817.403 1454.97 817.403H1472.86C1472.99 817.404 1473.11 817.455 1473.2 817.544C1473.29 817.634 1473.34 817.755 1473.34 817.882L1473.27 823.969ZM1473.4 808.24C1473.4 808.303 1473.39 808.365 1473.37 808.423C1473.34 808.481 1473.31 808.534 1473.26 808.578C1473.22 808.623 1473.17 808.658 1473.11 808.682C1473.05 808.706 1472.99 808.719 1472.92 808.719H1455.04C1454.98 808.719 1454.92 808.707 1454.86 808.683C1454.8 808.659 1454.75 808.624 1454.7 808.58C1454.66 808.535 1454.63 808.482 1454.6 808.424C1454.58 808.365 1454.57 808.303 1454.57 808.24L1454.62 802.156C1454.62 802.093 1454.63 802.031 1454.65 801.972C1454.68 801.914 1454.72 801.861 1454.76 801.816C1454.81 801.772 1454.86 801.737 1454.92 801.713C1454.98 801.689 1455.04 801.677 1455.1 801.677H1472.99C1473.05 801.677 1473.12 801.69 1473.17 801.714C1473.23 801.738 1473.29 801.773 1473.33 801.818C1473.37 801.862 1473.41 801.915 1473.43 801.973C1473.45 802.031 1473.47 802.093 1473.46 802.156L1473.4 808.24ZM1473.53 792.514C1473.53 792.641 1473.48 792.762 1473.39 792.852C1473.3 792.941 1473.18 792.992 1473.05 792.993H1455.17C1455.05 792.993 1454.92 792.943 1454.83 792.853C1454.75 792.763 1454.7 792.641 1454.7 792.514L1454.75 786.427C1454.75 786.3 1454.8 786.178 1454.89 786.088C1454.98 785.998 1455.1 785.948 1455.23 785.948H1473.12C1473.25 785.949 1473.37 786 1473.46 786.09C1473.55 786.179 1473.59 786.3 1473.59 786.427L1473.53 792.514ZM1473.66 776.785C1473.66 776.848 1473.65 776.91 1473.63 776.968C1473.6 777.026 1473.57 777.079 1473.52 777.123C1473.48 777.168 1473.42 777.203 1473.36 777.227C1473.31 777.252 1473.24 777.264 1473.18 777.264H1455.3C1455.24 777.264 1455.18 777.252 1455.12 777.228C1455.06 777.205 1455.01 777.169 1454.96 777.125C1454.92 777.08 1454.88 777.027 1454.86 776.969C1454.84 776.911 1454.82 776.848 1454.83 776.785L1454.88 770.701C1454.88 770.638 1454.89 770.576 1454.91 770.517C1454.94 770.459 1454.97 770.406 1455.02 770.362C1455.06 770.317 1455.12 770.282 1455.18 770.258C1455.23 770.234 1455.3 770.222 1455.36 770.222H1473.25C1473.31 770.222 1473.37 770.235 1473.43 770.259C1473.49 770.283 1473.54 770.318 1473.59 770.363C1473.63 770.407 1473.67 770.46 1473.69 770.518C1473.71 770.576 1473.72 770.639 1473.72 770.701L1473.66 776.785ZM1473.79 761.059C1473.79 761.186 1473.74 761.307 1473.65 761.397C1473.56 761.487 1473.44 761.537 1473.31 761.538H1455.43C1455.37 761.538 1455.31 761.526 1455.25 761.502C1455.19 761.478 1455.14 761.443 1455.09 761.398C1455.05 761.354 1455.01 761.301 1454.99 761.243C1454.97 761.185 1454.95 761.122 1454.95 761.059L1455 754.972C1455.01 754.909 1455.02 754.847 1455.04 754.789C1455.07 754.731 1455.1 754.679 1455.15 754.635C1455.19 754.59 1455.25 754.556 1455.31 754.532C1455.36 754.508 1455.43 754.496 1455.49 754.497H1473.38C1473.51 754.497 1473.63 754.547 1473.71 754.636C1473.8 754.725 1473.85 754.846 1473.85 754.972L1473.79 761.059ZM1473.92 745.334C1473.92 745.46 1473.87 745.581 1473.78 745.67C1473.69 745.759 1473.57 745.809 1473.44 745.809H1455.56C1455.5 745.81 1455.44 745.798 1455.38 745.774C1455.32 745.75 1455.27 745.715 1455.22 745.671C1455.18 745.627 1455.14 745.574 1455.12 745.517C1455.1 745.459 1455.08 745.396 1455.08 745.334L1455.13 739.246C1455.13 739.119 1455.19 738.998 1455.28 738.908C1455.37 738.818 1455.49 738.768 1455.62 738.768H1473.51C1473.63 738.768 1473.76 738.819 1473.84 738.909C1473.93 738.999 1473.98 739.12 1473.98 739.246L1473.92 745.334ZM1474.05 729.605C1474.05 729.667 1474.04 729.729 1474.01 729.788C1473.99 729.846 1473.95 729.898 1473.91 729.943C1473.86 729.988 1473.81 730.023 1473.75 730.047C1473.69 730.071 1473.63 730.083 1473.57 730.083H1455.69C1455.63 730.084 1455.56 730.072 1455.51 730.048C1455.45 730.024 1455.39 729.989 1455.35 729.944C1455.31 729.9 1455.27 729.847 1455.25 729.788C1455.22 729.73 1455.21 729.668 1455.21 729.605L1455.26 723.521C1455.26 723.458 1455.28 723.395 1455.3 723.337C1455.32 723.279 1455.36 723.226 1455.41 723.181C1455.45 723.137 1455.5 723.101 1455.56 723.077C1455.62 723.053 1455.68 723.041 1455.75 723.042H1473.64C1473.7 723.042 1473.76 723.054 1473.82 723.078C1473.88 723.103 1473.93 723.138 1473.97 723.182C1474.02 723.227 1474.05 723.28 1474.08 723.338C1474.1 723.396 1474.11 723.458 1474.11 723.521L1474.05 729.605ZM1515.66 823.966C1515.66 824.028 1515.65 824.09 1515.62 824.148C1515.6 824.206 1515.56 824.259 1515.52 824.303C1515.47 824.347 1515.42 824.382 1515.36 824.406C1515.3 824.429 1515.24 824.441 1515.18 824.441H1497.3C1497.17 824.441 1497.05 824.391 1496.96 824.302C1496.87 824.213 1496.82 824.092 1496.82 823.966L1496.87 817.882C1496.87 817.755 1496.93 817.634 1497.02 817.544C1497.11 817.455 1497.23 817.404 1497.36 817.403H1515.24C1515.36 817.403 1515.49 817.453 1515.57 817.543C1515.66 817.633 1515.71 817.755 1515.71 817.882L1515.66 823.966ZM1515.79 808.236C1515.79 808.299 1515.78 808.362 1515.75 808.42C1515.73 808.478 1515.69 808.531 1515.65 808.576C1515.6 808.621 1515.55 808.656 1515.49 808.68C1515.43 808.704 1515.37 808.716 1515.31 808.715H1497.43C1497.37 808.715 1497.3 808.703 1497.25 808.679C1497.19 808.655 1497.13 808.619 1497.09 808.575C1497.05 808.531 1497.01 808.478 1496.99 808.42C1496.96 808.362 1496.95 808.299 1496.95 808.236L1497 802.156C1497 802.029 1497.05 801.907 1497.15 801.817C1497.24 801.728 1497.36 801.677 1497.49 801.677H1515.37C1515.43 801.677 1515.49 801.689 1515.55 801.713C1515.61 801.737 1515.66 801.772 1515.7 801.816C1515.75 801.861 1515.78 801.914 1515.81 801.972C1515.83 802.031 1515.84 802.093 1515.84 802.156L1515.79 808.236ZM1515.92 792.511C1515.92 792.638 1515.87 792.76 1515.78 792.849C1515.69 792.939 1515.56 792.99 1515.44 792.99H1497.56C1497.43 792.989 1497.31 792.938 1497.22 792.848C1497.13 792.759 1497.08 792.637 1497.08 792.511L1497.13 786.427C1497.13 786.3 1497.18 786.179 1497.28 786.089C1497.37 786 1497.49 785.949 1497.62 785.948H1515.49C1515.62 785.948 1515.74 785.998 1515.83 786.088C1515.92 786.178 1515.97 786.3 1515.97 786.427L1515.92 792.511ZM1516.05 776.782C1516.05 776.845 1516.04 776.907 1516.01 776.965C1515.99 777.024 1515.95 777.077 1515.91 777.121C1515.86 777.166 1515.81 777.201 1515.75 777.225C1515.69 777.249 1515.63 777.261 1515.57 777.26H1497.69C1497.56 777.26 1497.44 777.21 1497.35 777.12C1497.26 777.03 1497.21 776.909 1497.21 776.782L1497.26 770.701C1497.26 770.574 1497.31 770.452 1497.4 770.363C1497.49 770.273 1497.62 770.222 1497.74 770.222H1515.62C1515.69 770.222 1515.75 770.234 1515.81 770.258C1515.87 770.282 1515.92 770.317 1515.96 770.362C1516.01 770.406 1516.04 770.459 1516.07 770.517C1516.09 770.576 1516.1 770.638 1516.1 770.701L1516.05 776.782ZM1516.18 761.056C1516.18 761.183 1516.13 761.305 1516.04 761.395C1515.94 761.484 1515.82 761.535 1515.69 761.535H1497.82C1497.69 761.534 1497.57 761.483 1497.48 761.393C1497.39 761.304 1497.34 761.183 1497.34 761.056L1497.39 754.972C1497.39 754.846 1497.44 754.725 1497.53 754.636C1497.62 754.547 1497.75 754.497 1497.87 754.497H1515.75C1515.82 754.496 1515.88 754.508 1515.94 754.532C1515.99 754.556 1516.05 754.59 1516.09 754.635C1516.14 754.679 1516.17 754.731 1516.19 754.789C1516.22 754.847 1516.23 754.909 1516.23 754.972L1516.18 761.056ZM1516.31 745.33C1516.31 745.393 1516.29 745.455 1516.27 745.513C1516.25 745.571 1516.21 745.623 1516.16 745.668C1516.12 745.712 1516.07 745.747 1516.01 745.77C1515.95 745.794 1515.89 745.806 1515.82 745.806H1497.94C1497.82 745.806 1497.7 745.756 1497.61 745.667C1497.52 745.578 1497.47 745.457 1497.47 745.33L1497.52 739.246C1497.52 739.12 1497.57 738.998 1497.66 738.909C1497.75 738.819 1497.88 738.768 1498 738.768H1515.88C1516.01 738.768 1516.13 738.818 1516.22 738.908C1516.31 738.998 1516.36 739.119 1516.36 739.246L1516.31 745.33ZM1516.44 729.601C1516.44 729.664 1516.42 729.727 1516.4 729.785C1516.38 729.843 1516.34 729.896 1516.29 729.941C1516.25 729.985 1516.2 730.021 1516.14 730.044C1516.08 730.068 1516.02 730.08 1515.95 730.08H1498.07C1498.01 730.08 1497.95 730.068 1497.89 730.043C1497.83 730.019 1497.78 729.984 1497.74 729.94C1497.69 729.895 1497.66 729.842 1497.63 729.784C1497.61 729.726 1497.6 729.664 1497.6 729.601L1497.65 723.521C1497.65 723.394 1497.7 723.272 1497.79 723.182C1497.88 723.092 1498 723.042 1498.13 723.042H1516.01C1516.07 723.041 1516.14 723.053 1516.19 723.077C1516.25 723.101 1516.31 723.137 1516.35 723.181C1516.39 723.226 1516.43 723.279 1516.45 723.337C1516.48 723.395 1516.49 723.458 1516.49 723.521L1516.44 729.601ZM1544.63 823.962C1544.63 824.025 1544.61 824.087 1544.59 824.145C1544.56 824.203 1544.53 824.255 1544.48 824.299C1544.44 824.344 1544.39 824.379 1544.33 824.402C1544.27 824.426 1544.21 824.438 1544.14 824.437H1526.26C1526.14 824.437 1526.02 824.387 1525.93 824.298C1525.84 824.209 1525.79 824.088 1525.79 823.962L1525.84 817.882C1525.84 817.755 1525.89 817.634 1525.98 817.544C1526.07 817.455 1526.19 817.404 1526.32 817.403H1544.2C1544.33 817.403 1544.45 817.453 1544.54 817.543C1544.63 817.633 1544.68 817.755 1544.68 817.882L1544.63 823.962ZM1544.76 808.233C1544.76 808.296 1544.74 808.358 1544.72 808.417C1544.69 808.475 1544.66 808.528 1544.61 808.572C1544.57 808.617 1544.52 808.652 1544.46 808.676C1544.4 808.7 1544.34 808.712 1544.27 808.712H1526.39C1526.33 808.712 1526.27 808.699 1526.21 808.675C1526.15 808.651 1526.1 808.616 1526.05 808.571C1526.01 808.527 1525.98 808.474 1525.95 808.416C1525.93 808.358 1525.92 808.296 1525.92 808.233L1525.97 802.156C1525.97 802.093 1525.98 802.031 1526 801.973C1526.03 801.915 1526.06 801.862 1526.11 801.817C1526.15 801.773 1526.21 801.738 1526.27 801.714C1526.33 801.69 1526.39 801.677 1526.45 801.677H1544.33C1544.39 801.677 1544.46 801.689 1544.51 801.713C1544.57 801.737 1544.62 801.772 1544.67 801.816C1544.71 801.861 1544.75 801.914 1544.77 801.972C1544.8 802.031 1544.81 802.093 1544.81 802.156L1544.76 808.233ZM1544.89 792.507C1544.88 792.57 1544.87 792.632 1544.85 792.69C1544.82 792.749 1544.79 792.801 1544.74 792.846C1544.7 792.89 1544.64 792.926 1544.59 792.95C1544.53 792.974 1544.46 792.986 1544.4 792.986H1526.52C1526.39 792.985 1526.27 792.934 1526.18 792.845C1526.1 792.755 1526.05 792.634 1526.05 792.507L1526.1 786.427C1526.1 786.3 1526.15 786.179 1526.24 786.089C1526.33 786 1526.45 785.949 1526.58 785.948H1544.46C1544.59 785.948 1544.71 785.998 1544.8 786.088C1544.89 786.178 1544.94 786.3 1544.94 786.427L1544.89 792.507ZM1545.01 776.778C1545.01 776.841 1545 776.903 1544.98 776.962C1544.95 777.02 1544.92 777.073 1544.87 777.118C1544.83 777.162 1544.77 777.197 1544.71 777.221C1544.66 777.245 1544.59 777.257 1544.53 777.257H1526.65C1526.59 777.257 1526.53 777.244 1526.47 777.22C1526.41 777.196 1526.36 777.161 1526.31 777.117C1526.27 777.072 1526.23 777.019 1526.21 776.961C1526.19 776.903 1526.17 776.841 1526.17 776.778L1526.22 770.701C1526.22 770.638 1526.24 770.576 1526.26 770.518C1526.29 770.46 1526.32 770.407 1526.37 770.363C1526.41 770.318 1526.47 770.283 1526.52 770.259C1526.58 770.235 1526.65 770.222 1526.71 770.222H1544.59C1544.65 770.222 1544.71 770.234 1544.77 770.258C1544.83 770.282 1544.88 770.317 1544.93 770.362C1544.97 770.406 1545.01 770.459 1545.03 770.517C1545.05 770.576 1545.07 770.638 1545.06 770.701L1545.01 776.778ZM1545.14 761.052C1545.14 761.179 1545.09 761.301 1545 761.391C1544.91 761.481 1544.79 761.531 1544.66 761.531H1526.78C1526.65 761.53 1526.53 761.48 1526.44 761.39C1526.35 761.3 1526.3 761.179 1526.3 761.052L1526.35 754.972C1526.36 754.846 1526.41 754.725 1526.5 754.636C1526.59 754.547 1526.71 754.497 1526.84 754.497H1544.72C1544.78 754.496 1544.84 754.508 1544.9 754.532C1544.96 754.556 1545.01 754.59 1545.06 754.635C1545.1 754.679 1545.13 754.731 1545.16 754.789C1545.18 754.847 1545.19 754.909 1545.19 754.972L1545.14 761.052ZM1545.27 745.327C1545.27 745.389 1545.26 745.452 1545.23 745.509C1545.21 745.567 1545.17 745.62 1545.13 745.664C1545.08 745.708 1545.03 745.743 1544.97 745.767C1544.91 745.791 1544.85 745.802 1544.79 745.802H1526.91C1526.78 745.802 1526.66 745.752 1526.57 745.663C1526.48 745.574 1526.43 745.453 1526.43 745.327L1526.48 739.246C1526.48 739.12 1526.54 738.998 1526.63 738.909C1526.72 738.819 1526.84 738.768 1526.97 738.768H1544.85C1544.97 738.768 1545.09 738.818 1545.18 738.908C1545.27 738.998 1545.32 739.119 1545.32 739.246L1545.27 745.327ZM1545.4 729.597C1545.4 729.661 1545.39 729.723 1545.36 729.781C1545.34 729.84 1545.3 729.893 1545.26 729.937C1545.21 729.982 1545.16 730.017 1545.1 730.041C1545.04 730.065 1544.98 730.077 1544.92 730.076H1527.04C1526.97 730.076 1526.91 730.064 1526.85 730.04C1526.8 730.016 1526.74 729.981 1526.7 729.936C1526.66 729.892 1526.62 729.839 1526.6 729.781C1526.57 729.723 1526.56 729.66 1526.56 729.597L1526.61 723.521C1526.61 723.458 1526.62 723.396 1526.65 723.338C1526.67 723.279 1526.71 723.227 1526.75 723.182C1526.8 723.138 1526.85 723.102 1526.91 723.078C1526.97 723.054 1527.03 723.042 1527.1 723.042H1544.97C1545.04 723.041 1545.1 723.053 1545.16 723.077C1545.22 723.101 1545.27 723.137 1545.31 723.181C1545.36 723.226 1545.39 723.279 1545.42 723.337C1545.44 723.395 1545.45 723.458 1545.45 723.521L1545.4 729.597ZM1587.02 823.958C1587.01 824.085 1586.96 824.206 1586.87 824.295C1586.78 824.384 1586.66 824.434 1586.53 824.434H1568.65C1568.59 824.434 1568.53 824.422 1568.47 824.399C1568.41 824.375 1568.36 824.34 1568.31 824.296C1568.27 824.252 1568.23 824.199 1568.21 824.141C1568.19 824.083 1568.17 824.021 1568.18 823.958L1568.23 817.882C1568.23 817.755 1568.28 817.633 1568.37 817.543C1568.46 817.453 1568.58 817.403 1568.71 817.403H1586.59C1586.72 817.404 1586.84 817.455 1586.93 817.544C1587.02 817.634 1587.07 817.755 1587.07 817.882L1587.02 823.958ZM1587.14 808.229C1587.14 808.356 1587.09 808.478 1587 808.568C1586.91 808.658 1586.79 808.708 1586.66 808.708H1568.78C1568.66 808.707 1568.54 808.658 1568.45 808.57C1568.36 808.483 1568.31 808.364 1568.31 808.24L1568.36 802.156C1568.36 802.093 1568.37 802.031 1568.4 801.972C1568.42 801.914 1568.46 801.861 1568.5 801.816C1568.55 801.772 1568.6 801.737 1568.66 801.713C1568.72 801.689 1568.78 801.677 1568.85 801.677H1586.72C1586.85 801.677 1586.97 801.728 1587.06 801.817C1587.15 801.907 1587.2 802.029 1587.2 802.156L1587.14 808.229ZM1587.27 792.504C1587.27 792.63 1587.22 792.752 1587.13 792.841C1587.04 792.931 1586.92 792.982 1586.79 792.983L1568.91 792.983C1568.78 792.983 1568.66 792.932 1568.57 792.842C1568.48 792.752 1568.43 792.631 1568.43 792.504L1568.48 786.427C1568.48 786.3 1568.54 786.178 1568.63 786.088C1568.72 785.998 1568.84 785.948 1568.97 785.948L1586.85 785.948C1586.97 785.949 1587.1 786 1587.18 786.089C1587.27 786.179 1587.32 786.3 1587.32 786.427L1587.27 792.504ZM1587.4 776.774C1587.4 776.901 1587.35 777.023 1587.26 777.113C1587.17 777.203 1587.05 777.253 1586.92 777.253L1569.04 777.253C1568.98 777.254 1568.91 777.242 1568.85 777.218C1568.8 777.194 1568.74 777.159 1568.7 777.114C1568.65 777.07 1568.62 777.017 1568.6 776.958C1568.57 776.9 1568.56 776.837 1568.56 776.774L1568.61 770.701C1568.61 770.638 1568.62 770.576 1568.65 770.517C1568.67 770.459 1568.71 770.406 1568.75 770.362C1568.8 770.317 1568.85 770.282 1568.91 770.258C1568.97 770.234 1569.03 770.222 1569.1 770.222H1586.98C1587.1 770.222 1587.22 770.273 1587.31 770.363C1587.4 770.452 1587.45 770.574 1587.45 770.701L1587.4 776.774ZM1587.53 761.049C1587.53 761.175 1587.48 761.297 1587.39 761.386C1587.3 761.476 1587.17 761.527 1587.05 761.528H1569.17C1569.04 761.526 1568.93 761.476 1568.84 761.389C1568.75 761.301 1568.7 761.183 1568.7 761.059L1568.75 754.972C1568.75 754.909 1568.76 754.847 1568.79 754.789C1568.81 754.731 1568.85 754.679 1568.89 754.635C1568.94 754.59 1568.99 754.556 1569.05 754.532C1569.11 754.508 1569.17 754.496 1569.23 754.497H1587.11C1587.24 754.497 1587.36 754.547 1587.45 754.636C1587.54 754.725 1587.59 754.846 1587.59 754.972L1587.53 761.049ZM1587.66 745.323C1587.66 745.45 1587.61 745.57 1587.52 745.659C1587.42 745.749 1587.3 745.798 1587.18 745.798H1569.3C1569.23 745.799 1569.17 745.787 1569.11 745.763C1569.06 745.74 1569 745.705 1568.96 745.661C1568.91 745.616 1568.88 745.564 1568.86 745.506C1568.83 745.448 1568.82 745.386 1568.82 745.323L1568.87 739.246C1568.87 739.119 1568.92 738.998 1569.01 738.908C1569.1 738.818 1569.23 738.768 1569.35 738.768H1587.23C1587.36 738.768 1587.48 738.819 1587.57 738.909C1587.66 738.998 1587.71 739.12 1587.71 739.246L1587.66 745.323ZM1587.79 729.594C1587.79 729.721 1587.74 729.843 1587.65 729.933C1587.56 730.022 1587.43 730.073 1587.3 730.073H1569.43C1569.36 730.073 1569.3 730.061 1569.24 730.037C1569.18 730.013 1569.13 729.978 1569.09 729.934C1569.04 729.889 1569.01 729.836 1568.98 729.778C1568.96 729.719 1568.95 729.657 1568.95 729.594L1569 723.521C1569 723.458 1569.01 723.395 1569.04 723.337C1569.06 723.279 1569.1 723.226 1569.14 723.181C1569.19 723.137 1569.24 723.101 1569.3 723.077C1569.36 723.053 1569.42 723.041 1569.48 723.042H1587.36C1587.49 723.042 1587.61 723.092 1587.7 723.182C1587.79 723.272 1587.84 723.394 1587.84 723.521L1587.79 729.594Z" fill="#F2F2F2"/>
<path d="M1446.56 630.912L1441 634.403L1444.41 628.322C1443.46 627.567 1442.29 627.149 1441.08 627.134H1440.99C1440.61 627.14 1440.22 627.111 1439.84 627.049L1437.96 628.244L1438.78 626.79C1437.45 626.328 1436.31 625.459 1435.52 624.307L1432.16 626.435L1434.3 622.6C1432.36 620.256 1429.73 618.819 1426.83 618.819C1423.34 618.819 1420.22 620.883 1418.19 624.101C1417.59 625.067 1416.75 625.859 1415.74 626.395C1414.74 626.931 1413.61 627.192 1412.47 627.152H1412.29C1408.44 627.152 1405.29 631.501 1405.24 636.864C1405.2 642.228 1408.28 646.574 1412.13 646.574C1412.97 646.569 1413.81 646.361 1414.56 645.967C1415.87 645.332 1417.31 644.989 1418.76 644.96C1420.22 644.932 1421.66 645.22 1422.99 645.804C1424.11 646.307 1425.33 646.567 1426.57 646.567C1427.8 646.567 1429.02 646.307 1430.16 645.804C1431.48 645.232 1432.92 644.951 1434.36 644.979C1435.8 645.007 1437.21 645.344 1438.51 645.967C1439.25 646.353 1440.07 646.556 1440.9 646.56C1444.75 646.56 1447.9 642.21 1447.95 636.85C1447.99 634.782 1447.51 632.739 1446.56 630.912V630.912Z" fill="#F2F2F2"/>
<path opacity="0.03" d="M1436.03 645.119C1434.02 644.738 1431.94 644.963 1430.06 645.765C1428.93 646.267 1427.7 646.526 1426.47 646.526C1425.23 646.526 1424.02 646.267 1422.89 645.765C1420.27 644.605 1416.98 644.63 1414.46 645.932C1413.71 646.325 1412.88 646.532 1412.03 646.535C1408.61 646.535 1405.8 643.104 1405.24 638.578C1405.93 638.081 1406.52 637.459 1406.97 636.744C1409 633.505 1412.11 631.437 1415.6 631.437C1419.09 631.437 1422.13 633.477 1424.1 636.662C1424.69 637.624 1425.52 638.416 1426.51 638.961C1427.5 639.505 1428.62 639.784 1429.75 639.77H1429.84C1432.57 639.773 1434.91 641.948 1436.03 645.119Z" fill="black"/>
<path d="M1634.66 691.789L1631.89 693.516L1633.58 690.483C1633.11 690.107 1632.53 689.899 1631.92 689.891H1631.88C1631.69 689.895 1631.5 689.88 1631.31 689.848L1630.37 690.441L1630.77 689.714C1630.12 689.483 1629.55 689.051 1629.15 688.479L1627.47 689.543L1628.56 687.628C1628.12 687.058 1627.55 686.593 1626.91 686.268C1626.27 685.943 1625.56 685.765 1624.83 685.748C1623.1 685.748 1621.54 686.78 1620.54 688.383C1620.24 688.866 1619.82 689.261 1619.31 689.528C1618.81 689.796 1618.25 689.926 1617.68 689.905H1617.59C1615.67 689.905 1614.1 692.073 1614.08 694.747C1614.05 697.422 1615.59 699.59 1617.51 699.59C1617.93 699.588 1618.35 699.485 1618.72 699.288C1619.38 698.972 1620.09 698.801 1620.82 698.787C1621.54 698.773 1622.26 698.916 1622.92 699.206C1623.49 699.457 1624.09 699.586 1624.71 699.586C1625.33 699.586 1625.94 699.457 1626.5 699.206C1627.16 698.922 1627.88 698.782 1628.6 698.796C1629.32 698.81 1630.02 698.978 1630.67 699.288C1631.04 699.48 1631.44 699.581 1631.86 699.582C1633.78 699.582 1635.35 697.415 1635.37 694.74C1635.39 693.711 1635.14 692.696 1634.66 691.789V691.789Z" fill="#F2F2F2"/>
<path opacity="0.03" d="M1629.41 698.873C1628.41 698.685 1627.37 698.797 1626.43 699.196C1625.87 699.444 1625.26 699.572 1624.65 699.572C1624.03 699.569 1623.43 699.438 1622.87 699.189C1622.21 698.898 1621.49 698.755 1620.76 698.769C1620.04 698.783 1619.32 698.954 1618.66 699.27C1618.29 699.467 1617.87 699.571 1617.45 699.572C1615.75 699.572 1614.34 697.862 1614.07 695.602C1614.41 695.354 1614.7 695.044 1614.93 694.687C1615.94 693.084 1617.5 692.051 1619.22 692.051C1620.95 692.051 1622.48 693.069 1623.47 694.659C1623.77 695.141 1624.18 695.537 1624.68 695.809C1625.18 696.081 1625.74 696.219 1626.31 696.209H1626.35C1627.69 696.209 1628.85 697.294 1629.41 698.873Z" fill="black"/>
<path d="M1700.38 854.693L1700.37 856.467C1700.36 857.41 1700.15 858.342 1699.76 859.205C1699.37 860.067 1698.8 860.84 1698.1 861.474C1697.39 862.108 1696.56 862.59 1695.66 862.888C1694.76 863.187 1693.81 863.295 1692.87 863.207C1678.95 861.887 1665.1 859.432 1651.12 859.858C1625.34 860.642 1599.27 871.15 1574.38 864.658C1567.35 862.827 1560.42 859.645 1553.18 860.33C1546.68 860.944 1540.87 864.605 1534.56 866.322C1515.39 871.558 1496.01 858.326 1476.17 858.858C1463.09 859.213 1450.52 865.559 1437.47 864.853C1429.9 864.449 1422.71 861.689 1415.34 859.989C1396.99 855.754 1378.04 858.123 1359.09 859.592C1358.4 859.644 1357.72 859.555 1357.07 859.331C1356.43 859.107 1355.83 858.752 1355.34 858.288C1354.84 857.825 1354.44 857.263 1354.17 856.638C1353.9 856.012 1353.76 855.337 1353.76 854.654L1353.78 853.15C1353.79 851.833 1354.32 850.57 1355.26 849.638C1356.21 848.707 1357.48 848.184 1358.8 848.184L1693.65 847.914C1695.45 847.918 1697.17 848.634 1698.43 849.904C1699.69 851.175 1700.4 852.897 1700.38 854.693V854.693Z" fill="#3F3D56"/>
<path opacity="0.1" d="M1700.38 854.693L1700.37 856.467C1700.36 857.41 1700.15 858.342 1699.76 859.205C1699.37 860.067 1698.8 860.84 1698.1 861.474C1697.39 862.108 1696.56 862.59 1695.66 862.888C1694.76 863.187 1693.81 863.295 1692.87 863.207C1678.95 861.887 1665.1 859.432 1651.12 859.858C1625.34 860.642 1599.27 871.15 1574.38 864.658C1567.35 862.827 1560.42 859.645 1553.18 860.33C1546.68 860.944 1540.87 864.605 1534.56 866.322C1515.39 871.558 1496.01 858.326 1476.17 858.858C1463.09 859.213 1450.52 865.559 1437.47 864.853C1429.9 864.449 1422.71 861.689 1415.34 859.989C1396.99 855.754 1378.04 858.123 1359.09 859.592C1358.4 859.644 1357.72 859.555 1357.07 859.331C1356.43 859.107 1355.83 858.752 1355.34 858.288C1354.84 857.825 1354.44 857.263 1354.17 856.638C1353.9 856.012 1353.76 855.337 1353.76 854.654L1353.78 853.15C1353.79 851.833 1354.32 850.57 1355.26 849.638C1356.21 848.707 1357.48 848.184 1358.8 848.184L1693.65 847.914C1695.45 847.918 1697.17 848.634 1698.43 849.904C1699.69 851.175 1700.4 852.897 1700.38 854.693V854.693Z" fill="black"/>
<path d="M1700.41 851.447L1700.39 853.221C1700.39 853.467 1700.38 853.714 1700.35 853.959C1700.14 855.732 1699.25 857.36 1697.85 858.489C1696.46 859.618 1694.68 860.157 1692.9 859.989C1678.98 858.666 1665.13 856.211 1651.15 856.64C1625.37 857.428 1599.29 867.935 1574.4 861.44C1567.38 859.61 1560.45 856.428 1553.21 857.112C1546.71 857.726 1540.9 861.369 1534.59 863.107C1515.41 868.315 1496.04 855.083 1476.2 855.633C1463.12 855.988 1450.55 862.334 1437.49 861.632C1429.93 861.224 1422.74 858.467 1415.37 856.765C1397.02 852.533 1378.07 854.899 1359.11 856.367C1357.88 856.462 1356.66 856.097 1355.69 855.343C1354.72 854.589 1354.06 853.5 1353.86 852.288C1353.81 852.004 1353.79 851.717 1353.79 851.429L1353.8 849.911C1353.81 848.594 1354.35 847.331 1355.29 846.399C1356.23 845.468 1357.5 844.945 1358.83 844.945L1442.74 844.874L1614.21 844.732L1693.67 844.668C1695.47 844.669 1697.19 845.384 1698.46 846.655C1699.72 847.926 1700.42 849.65 1700.41 851.447V851.447Z" fill="#3F3D56"/>
<path d="M1670.06 846.324C1671.14 844.37 1669.95 841.975 1668.58 840.23C1667.22 838.485 1665.55 836.683 1665.6 834.451C1665.68 831.259 1669.1 829.375 1671.82 827.683C1673.85 826.426 1675.72 824.936 1677.4 823.245C1678.1 822.593 1678.68 821.824 1679.12 820.975C1679.69 819.726 1679.68 818.307 1679.66 816.938C1679.58 812.383 1679.39 807.831 1679.1 803.284" stroke="#3F3D56" stroke-width="4" stroke-miterlimit="10"/>
<path d="M1684.26 803.036C1684.23 802.202 1683.99 801.391 1683.56 800.678C1683.13 799.965 1682.53 799.373 1681.8 798.956L1680.67 801.163L1680.72 798.491C1680.19 798.334 1679.64 798.268 1679.08 798.296C1678.1 798.345 1677.15 798.683 1676.35 799.267C1675.56 799.851 1674.95 800.656 1674.61 801.58C1674.27 802.503 1674.21 803.504 1674.44 804.456C1674.67 805.409 1675.18 806.269 1675.9 806.929C1676.63 807.59 1677.53 808.021 1678.5 808.167C1679.47 808.314 1680.47 808.17 1681.36 807.753C1682.26 807.336 1683.01 806.666 1683.53 805.827C1684.04 804.987 1684.3 804.016 1684.27 803.036H1684.26Z" fill="#57B894"/>
<path d="M1675.08 836.732C1674.55 837.744 1673.68 838.546 1672.63 839.004C1671.58 839.461 1670.41 839.546 1669.31 839.244C1668.21 838.942 1667.25 838.272 1666.59 837.346C1665.94 836.42 1665.62 835.294 1665.7 834.157C1665.78 833.02 1666.24 831.941 1667.02 831.101C1667.8 830.261 1668.84 829.711 1669.97 829.543C1671.11 829.375 1672.26 829.599 1673.24 830.179C1674.22 830.758 1674.96 831.656 1675.35 832.724L1672.21 835.257L1675.65 834.462C1675.64 835.252 1675.45 836.03 1675.08 836.732V836.732Z" fill="#57B894"/>
<path d="M1672.69 827.069C1671.45 827.162 1670.22 826.786 1669.24 826.015C1668.27 825.245 1667.62 824.136 1667.44 822.909C1667.25 821.681 1667.53 820.424 1668.22 819.385C1668.92 818.347 1669.97 817.602 1671.19 817.3L1671.14 819.35L1672.29 817.119C1672.95 817.087 1673.6 817.184 1674.22 817.406C1674.83 817.627 1675.4 817.968 1675.88 818.409C1676.36 818.849 1676.75 819.381 1677.02 819.974C1677.3 820.566 1677.45 821.208 1677.47 821.862C1677.5 822.436 1677.42 823.011 1677.25 823.561C1676.94 824.538 1676.33 825.398 1675.52 826.026C1674.7 826.654 1673.72 827.018 1672.69 827.069V827.069Z" fill="#57B894"/>
<path d="M1684.88 819.024C1683.56 819.086 1682.27 818.622 1681.3 817.735C1680.33 816.847 1679.75 815.609 1679.7 814.292C1679.65 812.974 1680.13 811.686 1681.03 810.711C1681.92 809.736 1683.17 809.153 1684.49 809.091C1685.43 809.045 1686.35 809.264 1687.16 809.722L1686.26 812.131L1688.09 810.396C1689.06 811.284 1689.63 812.518 1689.68 813.83C1689.7 814.292 1689.65 814.754 1689.54 815.203C1689.28 816.256 1688.69 817.198 1687.85 817.888C1687.01 818.577 1685.97 818.976 1684.88 819.024V819.024Z" fill="#57B894"/>
<path opacity="0.1" d="M1683.58 804.362C1682.42 804.49 1681.3 804.848 1680.14 804.919C1678.99 804.99 1677.72 804.713 1676.99 803.816C1676.6 803.334 1676.41 802.723 1676.08 802.195C1675.77 801.705 1675.34 801.301 1674.83 801.017C1674.53 801.645 1674.35 802.33 1674.33 803.026C1674.3 803.722 1674.43 804.415 1674.69 805.059C1674.95 805.702 1675.34 806.283 1675.85 806.763C1676.35 807.243 1676.95 807.611 1677.6 807.844C1678.26 808.077 1678.96 808.17 1679.66 808.115C1680.35 808.061 1681.03 807.861 1681.65 807.528C1682.27 807.196 1682.81 806.738 1683.24 806.186C1683.67 805.633 1683.98 804.997 1684.14 804.32C1683.96 804.33 1683.77 804.341 1683.58 804.362Z" fill="black"/>
<path opacity="0.1" d="M1684.88 819.024C1684.02 819.068 1683.16 818.888 1682.4 818.501C1681.63 818.115 1680.98 817.536 1680.5 816.821C1680.03 816.106 1679.75 815.279 1679.7 814.422C1679.64 813.564 1679.81 812.705 1680.19 811.929C1680.58 812.195 1680.92 812.536 1681.18 812.933C1681.54 813.469 1681.75 814.086 1682.16 814.576C1682.93 815.491 1684.26 815.789 1685.46 815.732C1686.67 815.675 1687.84 815.338 1689.03 815.228C1689.19 815.211 1689.36 815.2 1689.53 815.196C1689.28 816.248 1688.68 817.191 1687.84 817.882C1687 818.573 1685.96 818.974 1684.88 819.024V819.024Z" fill="black"/>
<path opacity="0.1" d="M1672.69 827.069C1671.84 827.113 1670.99 826.937 1670.22 826.558C1669.46 826.18 1668.81 825.611 1668.34 824.907C1667.86 824.203 1667.58 823.387 1667.51 822.538C1667.44 821.689 1667.6 820.836 1667.95 820.06C1668.37 820.326 1668.73 820.669 1669.01 821.071C1669.4 821.617 1669.63 822.245 1670.07 822.749C1670.9 823.685 1672.32 824.011 1673.59 823.983C1674.87 823.955 1676.02 823.653 1677.25 823.561C1676.94 824.539 1676.34 825.4 1675.52 826.028C1674.7 826.656 1673.72 827.019 1672.69 827.069V827.069Z" fill="black"/>
<path opacity="0.1" d="M1675.08 836.732C1674.81 837.328 1674.42 837.866 1673.94 838.315C1673.46 838.763 1672.9 839.114 1672.28 839.347C1671.67 839.58 1671.02 839.69 1670.36 839.672C1669.71 839.654 1669.06 839.507 1668.47 839.24C1667.87 838.974 1667.33 838.592 1666.89 838.118C1666.44 837.643 1666.09 837.085 1665.87 836.475C1665.64 835.865 1665.53 835.215 1665.56 834.562C1665.58 833.909 1665.73 833.266 1666 832.67C1666.41 832.94 1666.78 833.269 1667.09 833.646C1667.56 834.224 1667.87 834.877 1668.42 835.42C1669.43 836.416 1671.07 836.839 1672.54 836.867C1673.39 836.872 1674.24 836.827 1675.08 836.732V836.732Z" fill="black"/>
<path d="M1662.54 844.076C1662.54 844.076 1666.49 843.952 1667.68 843.111C1668.88 842.27 1673.75 841.259 1674.04 842.611C1674.34 843.962 1679.91 849.351 1675.46 849.376C1671.01 849.4 1665.15 848.666 1663.95 847.957C1662.75 847.247 1662.54 844.076 1662.54 844.076Z" fill="#808080"/>
<path opacity="0.2" d="M1675.55 848.893C1671.1 848.928 1665.21 848.201 1664.03 847.474C1663.13 846.928 1662.79 844.959 1662.68 844.051H1662.54C1662.54 844.051 1662.77 847.219 1663.94 847.953C1665.1 848.687 1671 849.4 1675.45 849.372C1676.74 849.372 1677.18 848.904 1677.16 848.23C1676.99 848.641 1676.52 848.893 1675.55 848.893Z" fill="black"/>
<path d="M1571.48 803.256C1571.43 809.18 1574.48 809.528 1579.52 813.98C1584.56 818.432 1587.68 809.18 1587.73 803.256C1587.77 797.332 1584.18 792.528 1579.69 792.528C1575.21 792.528 1571.53 797.332 1571.48 803.256Z" fill="#915766"/>
<path d="M1520.08 750.03C1519.59 751.19 1520.24 752.56 1521.23 753.326C1522.21 754.092 1523.47 754.422 1524.66 754.819C1529.98 756.593 1534.73 760.296 1537.33 765.256C1539.93 770.215 1540.23 776.441 1537.68 781.474C1536.33 784.16 1534.24 786.441 1532.99 789.169C1530.49 794.596 1531.68 801.255 1535.18 806.058C1538.68 810.861 1545.6 811.787 1551.37 813.277C1551.37 813.277 1566.22 824.983 1571.58 821.791" stroke="#3F3D56" stroke-miterlimit="10"/>
<path d="M1532.26 841.656C1532.26 841.656 1531.5 847.687 1534.7 848.041C1536.26 848.181 1537.83 848.232 1539.4 848.194C1540.3 848.183 1541.2 847.931 1541.98 847.465C1542.76 846.999 1543.41 846.335 1543.85 845.541C1544.29 844.747 1544.52 843.852 1544.5 842.947C1544.49 842.042 1544.23 841.159 1543.76 840.39L1543.66 840.241C1540.5 835.271 1532.26 841.656 1532.26 841.656Z" fill="#915766"/>
<path d="M1534.08 836.69C1534.08 836.69 1541.83 846.977 1553.65 837.754C1565.47 828.531 1551.27 824.274 1551.27 824.274H1536.32L1527.39 828.176L1534.08 836.69Z" fill="#B56D7E"/>
<path d="M1566.18 828.176C1566.18 828.176 1569.7 832.433 1572.91 832.078C1575.48 831.795 1580.55 834.249 1579.67 838.712C1579.55 839.368 1579.3 839.994 1578.93 840.555C1578.56 841.115 1578.09 841.598 1577.54 841.977C1576.98 842.356 1576.36 842.622 1575.71 842.761C1575.05 842.899 1574.38 842.907 1573.72 842.784C1573.04 842.655 1572.41 842.353 1571.88 841.907C1571.35 841.46 1570.95 840.886 1570.71 840.237C1570.71 840.237 1559.31 840.947 1559.7 837.754C1560.08 834.562 1566.18 828.176 1566.18 828.176Z" fill="#915766"/>
<path d="M1536.82 830.127C1536.82 830.127 1541.38 837.222 1536.72 841.834C1532.06 846.445 1527.07 847.155 1527.07 847.155C1527.07 847.155 1528.82 850.347 1522.06 849.993C1515.3 849.638 1513.19 847.509 1515.35 844.317C1517.51 841.124 1522.88 837.577 1521.83 835.094C1520.78 832.61 1519.4 827.289 1521.56 824.097C1520.71 823.386 1519.96 822.557 1519.34 821.635C1517.47 818.768 1521.28 815.54 1523.88 817.772L1525.87 819.485C1525.87 819.485 1531.96 814.519 1545.11 817.002C1545.11 817.002 1550.45 816.647 1551.55 812.745C1551.55 812.745 1545.96 800.329 1560.98 791.106C1563.68 789.943 1566.61 789.456 1569.53 789.687C1574.51 790.042 1579.85 790.396 1583.34 798.201C1583.34 798.201 1586.2 803.522 1589.6 805.572C1590.52 806.143 1591.3 806.906 1591.89 807.809C1592.48 808.712 1592.87 809.732 1593.02 810.801C1594 816.913 1592.62 826.633 1571.76 821.613C1571.76 821.613 1570.05 834.561 1560.04 839.883C1560.04 839.883 1559.3 843.43 1560.01 844.494C1560.71 845.558 1564.23 850.525 1558.54 850.17C1555.69 849.996 1553.5 849.993 1551.98 850.039C1551.34 850.059 1550.7 849.903 1550.14 849.587C1549.57 849.272 1549.11 848.809 1548.79 848.249C1548.48 847.689 1548.32 847.052 1548.34 846.407C1548.37 845.762 1548.56 845.134 1548.91 844.59C1548.93 844.558 1548.95 844.526 1548.98 844.494C1549 844.462 1550.08 839.528 1546.56 835.626L1545.88 831.369L1536.82 830.127Z" fill="#9C5E6D"/>
<path d="M1587.14 811.33C1589.69 811.33 1591.77 810.536 1591.78 809.556C1591.79 808.576 1589.72 807.782 1587.17 807.782C1584.61 807.782 1582.53 808.576 1582.53 809.556C1582.52 810.536 1584.58 811.33 1587.14 811.33Z" fill="#915766"/>
<path d="M1465.37 815.718C1464.31 816.304 1463.2 816.779 1462.04 817.137C1459.98 817.697 1457.77 817.491 1455.7 817.97C1454.85 818.166 1453.91 818.577 1453.64 819.389C1453.44 819.996 1453.63 820.652 1453.85 821.259C1456.09 827.971 1457.42 835.094 1461.03 841.185C1462.55 843.739 1464.44 846.051 1466.65 848.045C1467.47 848.794 1468.41 849.528 1469.52 849.645C1470.04 849.699 1470.56 849.617 1471.03 849.407C1471.5 849.197 1471.92 848.867 1472.22 848.45C1472.53 848.032 1472.72 847.543 1472.78 847.03C1472.83 846.518 1472.75 846 1472.55 845.53C1472.22 844.821 1471.62 844.239 1471.23 843.544C1470.75 842.692 1470.63 841.692 1470.52 840.706C1470.18 837.836 1469.85 834.835 1470.87 832.114C1471.56 830.291 1472.8 828.737 1473.83 827.087C1474.87 825.438 1475.74 823.54 1475.53 821.614C1475.38 820.297 1474.75 819.095 1474.08 817.956C1473.4 816.817 1472.08 813.749 1470.71 813.369C1469.35 812.99 1466.61 815.083 1465.37 815.718Z" fill="white"/>
<path d="M1502.64 838.91C1502.66 839.561 1502.56 840.21 1502.36 840.83C1501.92 841.958 1500.85 842.731 1500.29 843.806C1499.52 845.299 1499.85 847.108 1500.34 848.708C1500.65 849.712 1501.06 850.755 1501.9 851.376C1502.59 851.876 1503.47 852.029 1504.31 852.146C1511.62 853.153 1519.04 852.575 1526.42 852.788C1527.76 852.827 1529.19 852.873 1530.37 852.217C1531.55 851.56 1532.29 849.914 1531.49 848.836C1530.79 847.868 1529.37 847.878 1528.16 847.818C1525.02 847.661 1522.04 846.432 1519.72 844.338C1519.26 843.946 1518.86 843.487 1518.54 842.976C1518.29 842.523 1518.09 842.048 1517.93 841.557C1516.92 838.765 1515.71 836.049 1514.31 833.43C1513.92 832.695 1513.48 831.933 1512.74 831.539C1512.21 831.296 1511.62 831.169 1511.03 831.166C1509.19 831.046 1504.44 830.421 1503 831.848C1501.68 833.16 1502.69 837.24 1502.64 838.91Z" fill="white"/>
<path d="M1515.29 676.173C1521.78 676.173 1527.08 670.932 1527.13 664.467C1527.18 658.001 1521.97 652.76 1515.48 652.76C1509 652.76 1503.7 658.001 1503.64 664.467C1503.59 670.932 1508.81 676.173 1515.29 676.173Z" fill="#FBBEBE"/>
<path d="M1504.7 674.13C1503.98 675.996 1502.79 677.745 1501.06 678.742L1517.28 682.044C1516.7 679.682 1516.65 677.22 1517.11 674.825C1517.27 674.248 1517.31 673.643 1517.22 673.052C1516.92 671.878 1515.6 671.31 1514.42 671.04C1511.46 670.366 1508.84 670.005 1506.09 668.703C1505.24 670.139 1505.34 672.474 1504.7 674.13Z" fill="#FBBEBE"/>
<path d="M1500.96 674.361C1502.71 673.574 1504.62 673.191 1506.54 673.241C1508.45 673.292 1510.33 673.774 1512.03 674.652C1514.1 675.744 1515.81 677.397 1517.49 679.026C1519.04 680.526 1520.69 682.247 1520.79 684.407C1520.83 685.454 1520.5 686.475 1520.32 687.511C1520.01 689.651 1520.37 691.829 1521.35 693.745C1522.34 695.661 1523.9 697.219 1525.82 698.203C1527.09 700.331 1527.34 702.942 1527.34 705.443C1527.33 714.911 1524.26 724.496 1526.32 733.723C1526.81 735.887 1527.57 737.98 1527.98 740.165C1528.52 743.003 1528.47 745.894 1528.74 748.761C1529.04 751.863 1529.71 754.914 1530.74 757.849C1530.02 758.97 1528.55 759.399 1527.23 759.307C1525.9 759.215 1524.66 758.644 1523.49 758.041C1517.79 755.121 1512.58 751.272 1506.67 748.789C1502.77 747.146 1498.59 746.125 1494.8 744.227C1491.01 742.329 1487.5 739.321 1486.37 735.245C1485.88 733.471 1485.86 731.623 1485.85 729.789C1485.8 722.066 1485.75 714.258 1487.5 706.731C1489.04 700.083 1491.96 693.726 1492.65 686.943C1492.87 684.733 1492.89 682.371 1494.15 680.53C1495.91 677.908 1499.69 677.245 1500.96 674.361Z" fill="#3F3D56"/>
<path d="M1508.71 664.63C1509.41 663.729 1510.74 663.608 1511.85 663.874C1512.95 664.141 1513.98 664.708 1515.08 664.939C1515.33 665.01 1515.6 665.028 1515.86 664.991C1516.12 664.955 1516.37 664.864 1516.6 664.726C1517.03 664.396 1517.17 663.818 1517.27 663.282C1517.68 660.963 1517.79 658.604 1517.59 656.262C1517.54 655.933 1517.56 655.595 1517.67 655.276C1517.95 654.612 1518.79 654.453 1519.48 654.24C1520.62 653.858 1521.6 653.109 1522.27 652.112C1522.94 651.115 1523.26 649.926 1523.18 648.734C1523.17 648.162 1522.93 647.619 1522.52 647.223C1522.05 646.836 1521.38 646.811 1520.77 646.804C1517.61 646.781 1514.46 646.781 1511.3 646.804C1510.13 646.804 1508.9 646.843 1507.88 647.425C1507.13 647.854 1506.57 648.543 1505.89 649.085C1504.13 650.504 1501.75 650.781 1499.62 651.505C1498.57 651.801 1497.62 652.363 1496.86 653.136C1496.14 653.945 1495.79 655.144 1496.23 656.123C1496.45 656.531 1496.71 656.923 1496.98 657.298C1498.23 659.302 1497.37 661.909 1497.54 664.261C1497.75 667.205 1502.08 671.984 1505.04 672.679C1509.81 673.793 1507.11 666.556 1508.71 664.63Z" fill="#3F3D56"/>
<path d="M1501.02 793.734C1501.3 795.884 1501.67 798.044 1501.55 800.212C1501.38 803.238 1500.26 806.157 1500.04 809.18C1499.87 811.439 1500.2 813.724 1499.86 815.966C1499.65 817.385 1499.17 818.783 1498.87 820.223C1498.39 822.534 1498.39 824.913 1498.85 827.218C1499.32 829.523 1500.25 831.707 1501.58 833.639C1501.78 833.971 1502.06 834.246 1502.4 834.434C1502.72 834.553 1503.07 834.599 1503.41 834.569C1506.83 834.497 1510.24 834.186 1513.62 833.639C1513.72 833.651 1513.82 833.643 1513.91 833.614C1514.01 833.586 1514.09 833.539 1514.17 833.476C1514.25 833.413 1514.31 833.335 1514.35 833.247C1514.39 833.159 1514.42 833.063 1514.43 832.965C1515.08 829.772 1513.68 826.544 1513.34 823.298C1512.98 819.833 1513.84 816.36 1514.7 812.968C1515.09 811.297 1515.57 809.649 1516.15 808.03C1516.55 806.938 1517.05 805.881 1517.4 804.77C1517.91 803.034 1518.22 801.25 1518.34 799.449C1518.6 796.611 1518.75 793.756 1518.79 790.882C1518.81 788.172 1518.76 785.444 1518.19 782.798C1517.45 779.431 1515.92 776.302 1514.4 773.22C1513.56 773.351 1512.82 773.837 1512.11 774.284C1510.11 775.569 1508.02 776.714 1505.86 777.711C1504.41 778.378 1501.58 778.853 1500.66 780.251C1499.74 781.648 1500.3 784.43 1500.36 785.948C1500.46 788.555 1500.68 791.155 1501.02 793.734Z" fill="#3F3D56"/>
<path opacity="0.1" d="M1501.02 793.734C1501.3 795.884 1501.67 798.044 1501.55 800.212C1501.38 803.238 1500.26 806.157 1500.04 809.18C1499.87 811.439 1500.2 813.724 1499.86 815.966C1499.65 817.385 1499.17 818.783 1498.87 820.223C1498.39 822.534 1498.39 824.913 1498.85 827.218C1499.32 829.523 1500.25 831.707 1501.58 833.639C1501.78 833.971 1502.06 834.246 1502.4 834.434C1502.72 834.553 1503.07 834.599 1503.41 834.569C1506.83 834.497 1510.24 834.186 1513.62 833.639C1513.72 833.651 1513.82 833.643 1513.91 833.614C1514.01 833.586 1514.09 833.539 1514.17 833.476C1514.25 833.413 1514.31 833.335 1514.35 833.247C1514.39 833.159 1514.42 833.063 1514.43 832.965C1515.08 829.772 1513.68 826.544 1513.34 823.298C1512.98 819.833 1513.84 816.36 1514.7 812.968C1515.09 811.297 1515.57 809.649 1516.15 808.03C1516.55 806.938 1517.05 805.881 1517.4 804.77C1517.91 803.034 1518.22 801.25 1518.34 799.449C1518.6 796.611 1518.75 793.756 1518.79 790.882C1518.81 788.172 1518.76 785.444 1518.19 782.798C1517.45 779.431 1515.92 776.302 1514.4 773.22C1513.56 773.351 1512.82 773.837 1512.11 774.284C1510.11 775.569 1508.02 776.714 1505.86 777.711C1504.41 778.378 1501.58 778.853 1500.66 780.251C1499.74 781.648 1500.3 784.43 1500.36 785.948C1500.46 788.555 1500.68 791.155 1501.02 793.734Z" fill="black"/>
<path d="M1485.53 747.813C1483.94 751.999 1486.19 756.522 1488.15 760.52C1492.96 770.371 1496.29 780.885 1499.59 791.354C1499.84 792.138 1500.08 792.993 1499.79 793.766C1499.55 794.316 1499.15 794.786 1498.64 795.118C1496.29 796.891 1493.31 797.519 1490.52 798.445C1487.82 799.34 1485.23 800.544 1482.81 802.032C1480.78 803.277 1478.87 804.717 1476.98 806.154L1470.94 810.723C1470.55 810.983 1470.21 811.311 1469.93 811.691C1469.34 812.596 1469.56 813.777 1469.85 814.813C1470.59 817.553 1471.55 820.226 1472.73 822.809C1472.97 823.351 1473.26 823.919 1473.78 824.203C1474.72 824.703 1475.87 824.04 1476.59 823.252C1477.31 822.465 1477.94 821.478 1478.95 821.156C1479.96 820.833 1481.07 821.226 1482.12 821.081C1483.82 820.84 1484.98 819.279 1486.2 818.08C1491.25 813.177 1499.62 813.532 1505.17 809.211C1506.01 808.552 1506.78 807.792 1507.71 807.243C1508.63 806.693 1509.7 806.395 1510.68 805.909C1513.63 804.433 1515.5 801.379 1516.52 798.25C1517.53 795.121 1517.84 791.815 1518.58 788.608C1518.95 786.951 1519.46 785.313 1519.64 783.642C1519.76 782.07 1519.74 780.493 1519.58 778.927L1517.79 754.397C1517.64 752.4 1517.5 750.403 1517.2 748.423C1511.29 748.632 1505.38 748.87 1499.47 748.941C1494.78 748.966 1489.97 749.296 1485.53 747.813Z" fill="#3F3D56"/>
<path d="M1483.3 753.549C1484.09 754.837 1486.04 754.809 1487.39 754.106C1488.74 753.404 1489.79 752.215 1491.14 751.52C1492.96 750.58 1495.1 750.616 1497.14 750.672C1500.37 750.765 1503.63 750.86 1506.74 751.736C1509.93 752.648 1513.06 754.404 1516.38 754.053C1516.96 753.993 1517.59 753.826 1517.91 753.343C1518.1 752.99 1518.19 752.595 1518.17 752.198L1518.3 749.303C1518.37 748.804 1518.3 748.296 1518.08 747.841C1517.81 747.462 1517.43 747.17 1516.99 747.001C1512.28 744.72 1506.9 744.294 1501.65 744.113C1498.98 744.026 1496.31 743.989 1493.64 744.003C1491.38 744.003 1488.66 743.691 1486.45 744.294C1483.48 745.106 1481.82 751.148 1483.3 753.549Z" fill="#3F3D56"/>
<path d="M1513.61 677.798C1507.41 677.745 1501.83 673.669 1495.64 673.57C1494.89 673.52 1494.14 673.648 1493.45 673.946C1492.58 674.378 1492.01 675.216 1491.35 675.925C1489.5 677.901 1486.84 678.958 1484.94 680.891C1483.15 682.701 1482.16 685.393 1482.84 687.82C1483.51 690.246 1486.13 692.105 1488.59 691.523C1489.61 688.322 1491.68 685.55 1494.47 683.655C1495.92 682.731 1497.44 681.936 1499.03 681.278C1501.83 680.019 1504.95 678.738 1507.85 679.682C1508.92 680.085 1509.92 680.634 1510.84 681.314L1515.65 684.556C1515.11 682.335 1514.62 679.845 1513.61 677.798Z" fill="#F50057"/>
<path d="M1487.9 689.373C1487.07 690.395 1488.23 691.878 1488.05 693.176C1487.92 694.038 1487.2 694.698 1486.9 695.518C1486.59 696.337 1486.74 697.291 1486.62 698.199C1486.49 698.85 1486.32 699.49 1486.08 700.111C1485.55 701.97 1485.17 703.868 1484.95 705.787L1483.8 713.861C1483.59 715.074 1483.47 716.298 1483.41 717.526C1483.4 718.444 1483.45 719.381 1483.2 720.268C1482.95 721.155 1482.42 721.924 1482.06 722.751C1481.69 723.577 1481.52 724.61 1481.99 725.387C1480.36 726.728 1479.86 729.367 1480.98 731.137C1481.19 731.412 1481.36 731.722 1481.47 732.052C1481.53 732.513 1481.45 732.983 1481.24 733.4L1480.12 736.313C1479.83 737.058 1479.75 738.193 1480.51 738.363C1479.86 739.032 1479.35 739.825 1479.01 740.694C1478.85 741.13 1478.8 741.599 1478.86 742.058C1478.93 742.518 1479.11 742.952 1479.39 743.322C1479.66 743.562 1479.89 743.842 1480.07 744.152C1480.23 744.564 1480.08 745.029 1479.98 745.461C1479.81 746.097 1479.77 746.76 1479.87 747.409C1479.96 748.057 1480.19 748.678 1480.54 749.232C1480.9 749.78 1481.42 750.21 1482.02 750.469C1482.62 750.728 1483.29 750.805 1483.94 750.69C1486.14 750.197 1488.12 749.42 1490.32 749.825C1495.08 750.694 1499.85 751.57 1504.45 753.039C1509.69 754.713 1514.77 757.168 1520.27 757.682C1520.63 757.76 1521.01 757.702 1521.34 757.519C1521.62 757.254 1521.8 756.898 1521.84 756.515L1523.61 748.573C1524.31 745.637 1524.86 742.665 1525.24 739.672C1525.45 737.742 1525.52 735.798 1525.59 733.858L1526.16 718.412C1526.39 716.136 1526.1 713.842 1525.33 711.697L1522.88 703.68C1521.49 699.104 1518.21 695.046 1517.08 690.395C1516.36 687.451 1515.83 684.294 1513.86 681.998C1511.04 678.728 1506.13 678.22 1501.82 678.781C1499.87 679.036 1497.9 679.49 1496.22 680.48C1494.26 681.64 1492.82 683.471 1491.42 685.262C1490.25 686.734 1489.08 687.919 1487.9 689.373Z" fill="#F50057"/>
<path d="M1497.58 734.805C1497.92 736.33 1498.65 737.735 1499.09 739.232C1499.84 741.74 1499.76 744.443 1500.49 746.951C1500.8 748.016 1501.26 749.016 1501.48 750.091C1502 752.602 1501.19 755.196 1500.2 757.572C1499.21 759.949 1498.01 762.29 1497.67 764.837C1497.44 766.629 1497.74 768.654 1499.11 769.804C1500.55 771.013 1502.64 770.932 1504.51 770.769C1505.19 770.75 1505.85 770.613 1506.48 770.364C1507.91 769.687 1508.53 767.995 1508.89 766.462C1510.05 761.283 1509.77 755.916 1509.49 750.626L1508.75 736.795C1508.61 734.135 1508.44 731.417 1507.66 728.86C1507.37 727.93 1506.86 726.05 1506.01 725.454C1505.16 724.858 1502.76 724.84 1501.72 724.791C1496.81 724.564 1496.81 731.385 1497.58 734.805Z" fill="#FBBEBE"/>
<path d="M1503.43 683.736C1502.43 683.215 1501.17 683.438 1500.2 684.024C1499.22 684.609 1498.48 685.492 1497.75 686.365C1495.57 688.997 1493.25 692.019 1493.55 695.407C1493.66 696.677 1494.13 697.89 1494.46 699.114C1495.86 704.517 1494.21 710.235 1494.35 715.83C1494.43 719.061 1495.11 722.24 1495.78 725.408C1495.92 726.05 1496.13 726.795 1496.77 727.015C1497.24 727.174 1497.75 726.965 1498.19 726.791C1499.93 726.153 1501.79 725.94 1503.62 726.17C1505.45 726.399 1507.2 727.065 1508.71 728.111C1509.87 727.494 1509.44 725.542 1509.2 724.255C1508.46 720.434 1509.54 716.493 1510.85 712.807C1512.15 709.122 1513.71 705.443 1513.96 701.551C1514.23 697.138 1512.8 692.835 1511.39 688.66C1511.08 687.748 1510.74 686.794 1510.01 686.177C1509.39 685.714 1508.67 685.387 1507.91 685.219C1506.4 684.74 1504.84 684.478 1503.43 683.736Z" fill="#3F3D56"/>
<path d="M1551.36 813.277C1551.36 813.277 1561.94 824.983 1571.57 821.791" stroke="#3F3D56" stroke-miterlimit="10"/>
<path d="M1564.36 803.256C1564.31 809.18 1561.27 809.528 1556.15 813.98C1551.04 818.432 1548.07 809.18 1548.12 803.256C1548.17 797.332 1551.85 792.528 1556.33 792.528C1560.81 792.528 1564.41 797.332 1564.36 803.256Z" fill="#915766"/>
<path d="M1385.03 808.74C1385.82 807.387 1386.24 805.851 1386.23 804.291C1386.27 800.272 1383.8 797.016 1380.71 797.016C1377.62 797.016 1375.11 800.272 1375.08 804.291C1375.05 805.851 1375.44 807.387 1376.2 808.74C1375.43 810.099 1375.02 811.631 1375 813.188C1374.99 814.746 1375.38 816.277 1376.13 817.637C1375.36 818.996 1374.94 820.528 1374.93 822.085C1374.92 823.643 1375.31 825.174 1376.06 826.534C1375.28 827.893 1374.87 829.424 1374.86 830.982C1374.85 832.54 1375.23 834.071 1375.99 835.43C1375.2 836.784 1374.78 838.319 1374.79 839.879C1374.75 843.898 1377.22 847.158 1380.3 847.158C1383.39 847.158 1385.91 843.898 1385.94 839.879C1385.97 838.319 1385.58 836.784 1384.81 835.43C1385.59 834.072 1386 832.543 1386.01 830.987C1386.02 829.432 1385.64 827.902 1384.89 826.544C1385.66 825.185 1386.07 823.653 1386.09 822.096C1386.1 820.538 1385.71 819.007 1384.96 817.647C1385.73 816.288 1386.15 814.756 1386.16 813.199C1386.17 811.641 1385.79 810.11 1385.03 808.75L1385.03 808.74Z" fill="#3F3D56"/>
<path d="M1380.65 802.677C1383.73 802.677 1386.26 799.418 1386.29 795.398C1386.32 791.378 1383.85 788.119 1380.77 788.119C1377.69 788.119 1375.17 791.378 1375.14 795.398C1375.1 799.418 1377.57 802.677 1380.65 802.677Z" fill="#3F3D56"/>
<path d="M1380.73 793.78C1383.81 793.78 1386.33 790.521 1386.36 786.501C1386.39 782.481 1383.92 779.222 1380.85 779.222C1377.77 779.222 1375.24 782.481 1375.21 786.501C1375.18 790.521 1377.65 793.78 1380.73 793.78Z" fill="#3F3D56"/>
<path d="M1360.41 725.621C1359.65 724.653 1358.97 723.635 1358.35 722.573L1373.03 720.172L1357.18 720.289C1355.68 716.992 1354.88 713.42 1354.83 709.793C1354.77 706.166 1355.45 702.559 1356.84 699.192L1378.01 710.189L1358.52 695.812C1360.38 692.643 1362.88 689.886 1365.85 687.711C1368.81 685.536 1372.2 683.991 1375.78 683.172C1379.36 682.352 1383.07 682.276 1386.68 682.948C1390.28 683.621 1393.7 685.026 1396.72 687.078C1399.74 689.13 1402.3 691.784 1404.24 694.875C1406.18 697.965 1407.45 701.426 1407.99 705.041C1408.52 708.656 1408.3 712.349 1407.34 715.887C1406.38 719.426 1404.7 722.736 1402.41 725.61C1403.58 727.114 1404.59 728.742 1405.41 730.466L1386.31 740.342L1406.65 733.556C1408.04 737.754 1408.35 742.239 1407.56 746.607C1406.77 750.974 1404.91 755.085 1402.13 758.569C1405.2 762.497 1407.09 767.216 1407.59 772.186C1408.09 777.156 1407.17 782.177 1404.94 786.674C1402.71 791.17 1399.27 794.962 1394.99 797.615C1390.72 800.268 1385.8 801.674 1380.78 801.674C1375.77 801.674 1370.86 800.268 1366.64 797.615C1362.41 794.962 1359.02 791.17 1356.87 786.674C1354.72 782.177 1353.88 777.156 1354.46 772.186C1355.04 767.216 1357.01 762.497 1360.14 758.569C1356.47 753.874 1354.51 748.075 1354.56 742.102C1354.6 736.129 1356.67 730.329 1360.41 725.635L1360.41 725.621Z" fill="#57B894"/>
<path opacity="0.1" d="M1408 742.088C1407.96 748.062 1405.9 753.864 1402.15 758.555C1405.22 762.483 1407.11 767.202 1407.6 772.172C1408.1 777.142 1407.18 782.163 1404.95 786.659C1402.73 791.156 1399.28 794.948 1395.01 797.601C1390.74 800.253 1385.81 801.66 1380.8 801.66C1375.78 801.66 1370.88 800.253 1366.65 797.601C1362.42 794.948 1359.04 791.156 1356.88 786.659C1354.73 782.163 1353.9 777.142 1354.47 772.172C1355.05 767.202 1357.02 762.483 1360.15 758.555C1356.59 754.021 1408.02 739.097 1408 742.088Z" fill="black"/>
</g>
<path d="M1435.07 979.738H1438.78L1438.87 968.794H1449.13L1449.04 979.738H1452.75L1452.94 955.979H1449.24L1449.16 965.447H1438.9L1438.98 955.979H1435.27L1435.07 979.738ZM1471.78 972.106C1471.93 971.422 1472.01 970.63 1472.01 969.694C1472.05 964.871 1469.16 961.667 1464.84 961.667C1460.16 961.667 1456.78 965.483 1456.74 970.918C1456.69 976.426 1460.05 980.134 1465.05 980.134C1467.61 980.134 1469.78 979.126 1471.48 977.146L1469.52 974.842C1468.25 976.21 1466.81 976.894 1465.19 976.894C1462.49 976.894 1460.77 975.238 1460.4 972.106H1471.78ZM1460.46 969.262C1460.88 966.383 1462.44 964.799 1464.75 964.799C1466.94 964.799 1468.51 966.419 1468.49 969.262H1460.46ZM1475.74 979.738H1479.42L1479.64 952.739H1475.97L1475.74 979.738ZM1484.18 979.738H1487.85L1488.07 952.739H1484.4L1484.18 979.738ZM1491.76 970.882C1491.71 976.318 1495.1 980.134 1499.85 980.134C1504.64 980.134 1508.09 976.318 1508.14 970.882C1508.18 965.483 1504.79 961.667 1500 961.667C1495.25 961.667 1491.8 965.411 1491.76 970.882ZM1504.43 970.918C1504.4 974.518 1502.62 976.786 1499.88 976.786C1497.14 976.786 1495.43 974.554 1495.46 970.918C1495.49 967.283 1497.28 965.015 1500.01 965.015C1502.71 965.015 1504.46 967.283 1504.43 970.918ZM1545.74 955.979L1540.46 971.674L1534.73 955.691H1533.25L1527.29 971.746L1522.27 955.979H1518.24L1526.25 980.026H1527.76L1533.94 963.719L1539.85 980.026H1541.33L1549.77 955.979H1545.74ZM1550.15 970.882C1550.11 976.318 1553.49 980.134 1558.25 980.134C1563.03 980.134 1566.49 976.318 1566.53 970.882C1566.57 965.483 1563.19 961.667 1558.4 961.667C1553.65 961.667 1550.2 965.411 1550.15 970.882ZM1562.82 970.918C1562.79 974.518 1561.01 976.786 1558.27 976.786C1555.54 976.786 1553.83 974.554 1553.86 970.918C1553.89 967.283 1555.67 965.015 1558.41 965.015C1561.11 965.015 1562.85 967.283 1562.82 970.918ZM1579.75 962.063C1579.32 961.955 1578.89 961.883 1578.45 961.883C1576.58 961.883 1574.85 962.711 1573.79 964.187L1573.81 962.063H1570.42L1570.28 979.738H1573.95L1574.03 969.766C1574.06 966.995 1575.9 965.411 1578.6 965.411H1579.72L1579.75 962.063ZM1582.55 979.738H1586.22L1586.44 952.739H1582.77L1582.55 979.738ZM1602.76 952.739L1602.67 963.935C1601.53 962.495 1599.74 961.667 1597.69 961.667C1593.22 961.667 1590.17 965.375 1590.12 970.918C1590.08 976.426 1593.07 980.134 1597.53 980.134C1599.84 980.134 1601.72 979.198 1602.85 977.506L1602.83 979.738H1606.21L1606.44 952.739H1602.76ZM1602.65 970.918C1602.62 974.842 1600.8 976.786 1598.25 976.786C1595.55 976.786 1593.8 974.59 1593.83 970.882C1593.86 967.247 1595.64 965.015 1598.34 965.015C1600.9 965.015 1602.68 966.995 1602.65 970.918ZM1612.6 971.782H1615.59L1616.41 955.979H1612.05L1612.6 971.782ZM1611.41 977.506C1611.39 979.054 1612.5 980.134 1614.05 980.134C1615.49 980.134 1616.65 979.054 1616.66 977.506C1616.67 976.03 1615.53 974.878 1614.09 974.878C1612.54 974.878 1611.42 976.03 1611.41 977.506Z" fill="#F47D7D"/>
<rect width="285.742" height="63.9677" rx="31.9838" transform="matrix(1 0 -0.00820296 0.999966 1382.75 1022.9)" fill="#FB8888"/>
<rect width="285.742" height="63.9677" rx="31.9838" transform="matrix(1 0 -0.00820296 0.999966 1381.91 1125.45)" fill="#FB8888"/>
<path d="M1491.53 1056.82C1492.54 1059.1 1494.45 1060.4 1496.97 1060.4C1499.85 1060.4 1501.95 1058.67 1501.97 1056.01C1501.99 1054.06 1500.92 1052.81 1498.51 1051.35L1496.93 1050.44C1495.5 1049.57 1494.95 1049.07 1494.96 1048.11C1494.97 1046.93 1495.89 1046.26 1497.16 1046.26C1498.38 1046.26 1499.34 1046.93 1500.02 1048.25L1501.9 1047.13C1501.03 1045.18 1499.36 1044.03 1497.15 1044.03C1494.49 1044.03 1492.46 1045.69 1492.44 1048.16C1492.42 1050.05 1493.56 1051.25 1495.76 1052.62L1497.31 1053.51C1498.91 1054.49 1499.46 1055 1499.45 1056.05C1499.44 1057.33 1498.48 1058.17 1496.96 1058.17C1495.45 1058.17 1494.28 1057.33 1493.41 1055.67L1491.53 1056.82ZM1504.58 1060.13H1507.02L1507.12 1048.35H1504.67L1504.58 1060.13ZM1504.28 1043.98C1504.27 1044.87 1504.98 1045.59 1505.92 1045.59C1506.85 1045.59 1507.58 1044.87 1507.59 1043.98C1507.59 1043.09 1506.88 1042.35 1505.94 1042.35C1505.01 1042.35 1504.28 1043.05 1504.28 1043.98ZM1518.24 1048.35L1518.23 1049.86C1517.49 1048.73 1516.23 1048.09 1514.67 1048.09C1511.74 1048.09 1509.7 1050.39 1509.67 1053.99C1509.65 1057.54 1511.64 1059.89 1514.57 1059.89C1516.01 1059.89 1517.19 1059.39 1517.97 1058.43L1517.96 1059.61C1517.94 1061.5 1516.78 1062.51 1514.96 1062.51C1513.59 1062.51 1512.59 1061.96 1511.51 1060.88L1510.04 1062.46C1511.3 1063.97 1512.99 1064.72 1515.08 1064.72C1518.27 1064.72 1520.35 1062.82 1520.38 1059.53L1520.47 1048.35H1518.24ZM1518.03 1053.99C1518.01 1056.46 1516.8 1057.73 1515.09 1057.73C1513.34 1057.73 1512.13 1056.32 1512.15 1053.99C1512.17 1051.66 1513.35 1050.27 1515.15 1050.27C1516.86 1050.27 1518.05 1051.52 1518.03 1053.99ZM1533.03 1052.38C1533.05 1049.79 1531.55 1048.09 1529.08 1048.09C1527.76 1048.09 1526.65 1048.57 1525.9 1049.41L1525.91 1048.35H1523.66L1523.56 1060.13H1526.01L1526.07 1052.67C1526.08 1051.3 1527.05 1050.29 1528.39 1050.29C1529.74 1050.29 1530.62 1051.25 1530.6 1052.67L1530.54 1060.13H1532.97L1533.03 1052.38ZM1542.24 1060.13H1544.71L1544.84 1044.29H1542.37L1542.24 1060.13ZM1557.43 1052.38C1557.45 1049.79 1555.95 1048.09 1553.48 1048.09C1552.16 1048.09 1551.05 1048.57 1550.3 1049.41L1550.31 1048.35H1548.05L1547.96 1060.13H1550.41L1550.47 1052.67C1550.48 1051.3 1551.45 1050.29 1552.79 1050.29C1554.13 1050.29 1555.01 1051.25 1555 1052.67L1554.94 1060.13H1557.37L1557.43 1052.38Z" fill="white"/>
<path fill-rule="evenodd" clip-rule="evenodd" d="M1407.94 433C1407.93 433.169 1407.93 433.338 1407.93 433.508C1407.81 447.246 1418.86 458.383 1432.6 458.383H1627.91C1641.65 458.383 1652.88 447.246 1652.99 433.508C1653 433.338 1652.99 433.169 1652.99 433H1700.45C1722.54 433 1740.3 450.908 1740.12 472.999L1733.31 1302.73C1733.13 1324.82 1715.08 1342.73 1692.99 1342.73H1352C1329.91 1342.73 1312.15 1324.82 1312.33 1302.73L1319.13 472.999C1319.32 450.908 1337.37 433 1359.46 433H1407.94Z" fill="white"/>
<path d="M1467.78 772.936C1467.89 760.503 1458.69 749.999 1446.3 748.499C1442.04 764.522 1441.9 781.35 1445.9 797.374C1458.31 795.873 1467.68 785.423 1467.78 772.936Z" fill="#E43D30"/>
<path d="M1482.18 765.219C1477.89 765.219 1474.37 768.649 1474.33 772.936C1474.3 777.224 1477.7 780.707 1482 780.707C1486.29 780.707 1489.81 777.277 1489.84 772.99C1489.84 772.99 1489.84 772.99 1489.84 772.936C1489.93 768.703 1486.47 765.219 1482.18 765.219Z" fill="#E43D30"/>
<path d="M1589.03 772.936C1588.93 785.369 1598.13 795.873 1610.52 797.374C1614.78 781.35 1614.92 764.522 1610.92 748.499C1598.51 750.053 1589.13 760.503 1589.03 772.936Z" fill="#E43D30"/>
<path d="M1574.71 765.219C1570.42 765.165 1566.9 768.595 1566.81 772.882C1566.72 777.17 1570.13 780.653 1574.42 780.707C1578.72 780.76 1582.23 777.331 1582.32 773.043C1582.32 772.99 1582.32 772.99 1582.32 772.936C1582.36 768.702 1578.95 765.272 1574.71 765.219Z" fill="#E43D30"/>
<path d="M1527.72 833.655C1515.27 833.655 1504.67 842.927 1503.07 855.306C1519.08 859.433 1535.94 859.433 1552.02 855.306C1550.62 842.927 1540.18 833.655 1527.72 833.655Z" fill="#E43D30"/>
<path d="M1527.9 811.629C1523.61 811.629 1520.09 815.059 1520.06 819.346C1520.02 823.633 1523.43 827.117 1527.72 827.117C1532.02 827.117 1535.53 823.687 1535.57 819.4C1535.57 819.4 1535.57 819.4 1535.57 819.346C1535.6 815.112 1532.2 811.629 1527.9 811.629Z" fill="#E43D30"/>
<path d="M1528.72 712.592C1541.17 712.592 1551.76 703.321 1553.37 690.942C1537.35 686.815 1520.5 686.815 1504.42 690.942C1505.82 703.321 1516.26 712.592 1528.72 712.592Z" fill="#E43D30"/>
<path d="M1528.66 719.184C1524.37 719.184 1520.9 722.668 1520.87 726.901C1520.83 731.189 1524.29 734.618 1528.53 734.618C1532.78 734.618 1536.29 731.135 1536.33 726.901C1536.36 722.668 1532.96 719.184 1528.66 719.184Z" fill="#E43D30"/>
<path d="M1570.81 815.809C1561.93 824.598 1560.96 838.532 1568.55 848.339C1582.9 839.925 1594.91 828.028 1603.46 813.773C1593.7 806.216 1579.68 807.074 1570.81 815.809Z" fill="#E43D30"/>
<path d="M1555.32 800.214C1552.29 803.215 1552.25 808.146 1555.23 811.147C1558.21 814.148 1563.15 814.148 1566.18 811.147C1569.21 808.146 1569.25 803.215 1566.27 800.214C1563.29 797.213 1558.35 797.213 1555.32 800.214Z" fill="#E43D30"/>
<path d="M1485.79 730.224C1494.67 721.435 1495.64 707.502 1488.1 697.694C1473.75 706.108 1461.74 718.005 1453.2 732.261C1462.9 739.871 1476.92 739.013 1485.79 730.224Z" fill="#E43D30"/>
<path d="M1490.43 734.887C1487.39 737.888 1487.35 742.818 1490.34 745.819C1493.32 748.82 1498.25 748.82 1501.28 745.819C1504.32 742.818 1504.36 737.888 1501.37 734.887C1498.39 731.885 1493.46 731.885 1490.43 734.887Z" fill="#E43D30"/>
<path d="M1571.46 730.117C1580.19 738.906 1594.19 739.763 1604.02 732.153C1595.71 717.898 1583.89 706.001 1569.68 697.587C1561.98 707.394 1562.73 721.328 1571.46 730.117Z" fill="#E43D30"/>
<path d="M1566.66 745.766C1569.69 742.764 1569.78 737.834 1566.75 734.833C1563.77 731.832 1558.83 731.778 1555.8 734.833C1552.77 737.834 1552.67 742.764 1555.71 745.766C1558.69 748.767 1563.63 748.767 1566.66 745.766Z" fill="#E43D30"/>
<path d="M1485.04 815.756C1476.31 806.967 1462.36 806.109 1452.48 813.719C1460.79 827.975 1472.55 839.872 1486.76 848.286C1494.46 838.478 1493.77 824.545 1485.04 815.756Z" fill="#E43D30"/>
<path d="M1489.84 800.107C1486.81 803.108 1486.77 808.038 1489.75 811.039C1492.73 814.04 1497.67 814.04 1500.7 811.039C1503.73 808.038 1503.77 803.108 1500.79 800.107C1497.8 797.106 1492.92 797.106 1489.84 800.107Z" fill="#E43D30"/>
<path d="M1388.46 955.79C1376.11 955.79 1364.05 948.287 1364.21 927.654C1364.38 907.022 1376.57 899.626 1388.92 899.626C1396.49 899.626 1401.78 901.77 1406.94 907.29L1399.32 914.632C1395.91 910.827 1393.19 909.433 1388.84 909.433C1384.87 909.326 1381.04 911.095 1378.6 914.256C1376.22 917.311 1375.32 921.17 1375.27 927.547C1375.22 933.924 1376.05 937.944 1378.38 940.945C1380.77 944.107 1384.57 945.929 1388.54 945.822C1392.89 945.822 1395.64 944.428 1399.1 940.623L1406.56 947.912C1402.01 953.217 1395.33 956.058 1388.46 955.79Z" fill="#A6A8AB"/>
<path d="M1449.11 955.147L1449.16 950.163C1445.1 954.182 1441.27 955.843 1434.46 955.843C1427.64 955.843 1423.14 954.236 1419.74 950.859C1416.87 947.644 1415.34 943.41 1415.49 939.069C1415.56 929.852 1422 923.26 1434.56 923.26H1449.05L1449.09 919.348C1449.14 912.434 1445.74 909.058 1437.15 909.058C1431.08 909.058 1428.12 910.452 1425.08 914.364L1417.89 907.558C1423.15 901.502 1428.58 899.68 1437.65 899.68C1452.74 899.68 1460.31 906.057 1460.2 918.49L1459.9 955.2L1449.11 955.147ZM1449.1 930.923H1436.22C1429.72 930.923 1426.26 933.817 1426.22 938.801C1426.18 943.785 1429.33 946.572 1436.25 946.572C1440.49 946.572 1443.61 946.251 1446.58 943.41C1448.2 941.802 1448.98 939.176 1449.01 935.318L1449.1 930.923Z" fill="#A6A8AB"/>
<path d="M1511.59 955.146L1511.86 921.706C1511.93 913.238 1507.08 909.487 1500.91 909.487C1494.74 909.487 1489.55 913.292 1489.48 921.706L1489.21 955.146H1478.1L1478.55 900.269H1489.39L1489.34 905.843C1493.19 901.823 1498.52 899.572 1504.05 899.68C1509.04 899.519 1513.91 901.287 1517.53 904.664C1521.74 908.79 1522.98 913.988 1522.93 920.151L1522.65 955.2L1511.59 955.146Z" fill="#A6A8AB"/>
<path d="M1561.94 955.147H1552.92L1533.24 900.269H1544.94L1557.61 938.908L1570.81 900.269H1582.51L1561.94 955.147Z" fill="#A6A8AB"/>
<path d="M1621.94 955.147L1621.98 950.163C1617.92 954.182 1614.15 955.843 1607.28 955.843C1600.41 955.843 1595.97 954.236 1592.56 950.859C1589.69 947.644 1588.17 943.41 1588.31 939.069C1588.39 929.852 1594.83 923.26 1607.39 923.26H1621.94L1621.97 919.348C1622.02 912.434 1618.56 909.058 1610.03 909.058C1603.96 909.058 1601.05 910.452 1597.96 914.364L1590.77 907.558C1596.03 901.502 1601.46 899.68 1610.59 899.68C1625.67 899.68 1633.24 906.057 1633.14 918.49L1632.84 955.2L1621.94 955.147ZM1621.93 930.923H1609.04C1602.55 930.923 1599.14 933.817 1599.1 938.801C1599.06 943.785 1602.15 946.572 1609.13 946.572C1613.37 946.572 1616.49 946.251 1619.46 943.41C1621.09 941.802 1621.86 939.176 1621.89 935.318L1621.93 930.923Z" fill="#A6A8AB"/>
<path d="M1666.97 955.79C1657.95 955.79 1650.4 954.289 1643.95 947.912L1651.26 940.677C1655.68 945.232 1661.62 946.411 1667.05 946.411C1673.75 946.411 1679.09 944.053 1679.13 938.855C1679.16 935.157 1677.14 932.799 1671.83 932.37L1663.09 931.62C1652.79 930.763 1646.87 926.1 1646.95 916.454C1647.04 905.736 1656.26 899.68 1667.8 899.68C1676.02 899.68 1683.09 901.395 1688.15 905.843L1681.17 912.917C1677.7 909.969 1672.83 908.897 1667.67 908.897C1661.07 908.897 1657.72 911.791 1657.69 915.971C1657.66 919.187 1659.36 921.652 1665.2 922.242L1673.89 922.992C1684.19 923.849 1690.22 928.726 1690.14 938.48C1689.88 949.841 1680.06 955.79 1666.97 955.79Z" fill="#A6A8AB"/>
<defs>
<filter id="filter0_dii" x="1284.49" y="401" width="570.135" height="1033.97" filterUnits="userSpaceOnUse" color-interpolation-filters="sRGB">
<feFlood flood-opacity="0" result="BackgroundImageFix"/>
<feColorMatrix in="SourceAlpha" type="matrix" values="0 0 0 0 0 0 0 0 0 0 0 0 0 0 0 0 0 0 127 0"/>
<feOffset dx="50" dy="30"/>
<feGaussianBlur stdDeviation="20"/>
<feColorMatrix type="matrix" values="0 0 0 0 0.504167 0 0 0 0 0.0105035 0 0 0 0 0.0105035 0 0 0 0.95 0"/>
<feBlend mode="normal" in2="BackgroundImageFix" result="effect1_dropShadow"/>
<feBlend mode="normal" in="SourceGraphic" in2="effect1_dropShadow" result="shape"/>
<feColorMatrix in="SourceAlpha" type="matrix" values="0 0 0 0 0 0 0 0 0 0 0 0 0 0 0 0 0 0 127 0" result="hardAlpha"/>
<feOffset dx="10" dy="2"/>
<feGaussianBlur stdDeviation="10"/>
<feComposite in2="hardAlpha" operator="arithmetic" k2="-1" k3="1"/>
<feColorMatrix type="matrix" values="0 0 0 0 1 0 0 0 0 1 0 0 0 0 1 0 0 0 1 0"/>
<feBlend mode="normal" in2="shape" result="effect2_innerShadow"/>
<feColorMatrix in="SourceAlpha" type="matrix" values="0 0 0 0 0 0 0 0 0 0 0 0 0 0 0 0 0 0 127 0" result="hardAlpha"/>
<feOffset dx="-2" dy="-10"/>
<feGaussianBlur stdDeviation="10"/>
<feComposite in2="hardAlpha" operator="arithmetic" k2="-1" k3="1"/>
<feColorMatrix type="matrix" values="0 0 0 0 0.501961 0 0 0 0 0.501961 0 0 0 0 0.501961 0 0 0 0.9 0"/>
<feBlend mode="normal" in2="effect2_innerShadow" result="effect3_innerShadow"/>
</filter>
<clipPath id="clip0">
<rect width="346.754" height="248.763" fill="white" transform="matrix(1 0 -0.00820296 0.999966 1355.56 618.805)"/>
</clipPath>
</defs>
</svg>
