<svg width="1200" height="500" viewBox="0 0 1200 500" fill="none" xmlns="http://www.w3.org/2000/svg">
<g clip-path="url(#clip0)">
<rect width="1200" height="500" fill="white"/>
<g filter="url(#filter0_dii)">
<rect width="224.784" height="455.788" rx="40" transform="matrix(0.999914 0.0130896 -0.188924 0.981992 857.109 25)" fill="#E6E6E6"/>
</g>
<g clip-path="url(#clip1)">
<path d="M969.088 167.177L947.304 166.892L948.192 162.275C948.249 161.982 948.184 161.699 948.013 161.489C947.841 161.279 947.577 161.159 947.278 161.155L940.881 161.071L941.828 156.15C941.864 155.965 941.823 155.787 941.715 155.655C941.607 155.523 941.441 155.447 941.253 155.445L933.013 155.337C932.825 155.334 932.63 155.405 932.472 155.534C932.314 155.663 932.205 155.839 932.169 156.023L931.223 160.945L923.702 160.846C923.403 160.842 923.094 160.955 922.843 161.16C922.592 161.364 922.419 161.644 922.363 161.937L921.474 166.554L900.702 166.282C900.642 166.281 900.579 166.304 900.529 166.346C900.478 166.388 900.443 166.444 900.432 166.503L888.631 227.842C888.619 227.901 888.632 227.958 888.667 228.001C888.701 228.044 888.755 228.068 888.815 228.07L902.62 228.25C902.65 228.251 902.681 228.245 902.711 228.234C902.741 228.223 902.77 228.207 902.795 228.187C902.82 228.166 902.842 228.141 902.859 228.114C902.875 228.087 902.887 228.058 902.892 228.029L904.48 219.777C904.492 219.717 904.527 219.661 904.578 219.619C904.629 219.578 904.692 219.555 904.752 219.555L910.584 219.631C910.645 219.633 910.698 219.657 910.733 219.7C910.768 219.742 910.781 219.8 910.77 219.859L909.182 228.111C909.171 228.17 909.184 228.227 909.218 228.27C909.253 228.313 909.306 228.337 909.367 228.339L936.646 228.696C936.706 228.696 936.769 228.673 936.82 228.632C936.871 228.59 936.906 228.533 936.918 228.474L938.506 220.222C938.517 220.163 938.552 220.106 938.603 220.065C938.653 220.023 938.716 220 938.776 220L944.608 220.077C944.669 220.078 944.722 220.102 944.757 220.145C944.792 220.187 944.805 220.245 944.794 220.304L943.206 228.556C943.195 228.616 943.209 228.673 943.243 228.716C943.278 228.758 943.332 228.783 943.392 228.784L957.197 228.965C957.258 228.965 957.32 228.942 957.371 228.901C957.422 228.859 957.458 228.803 957.469 228.743L969.27 167.408C969.282 167.348 969.269 167.291 969.235 167.248C969.201 167.204 969.148 167.179 969.088 167.177V167.177ZM902.604 216.654C902.592 216.713 902.557 216.769 902.507 216.81C902.456 216.852 902.394 216.874 902.333 216.874L893.806 216.762C893.776 216.762 893.748 216.756 893.722 216.744C893.696 216.733 893.674 216.716 893.657 216.695C893.64 216.674 893.628 216.649 893.621 216.622C893.615 216.595 893.615 216.565 893.62 216.536L894.17 213.68C894.181 213.62 894.216 213.564 894.267 213.522C894.318 213.48 894.381 213.457 894.442 213.458L902.974 213.57C903.034 213.571 903.088 213.596 903.122 213.638C903.157 213.681 903.17 213.738 903.158 213.798L902.604 216.654ZM904.023 209.274C904.018 209.303 904.007 209.332 903.99 209.359C903.973 209.387 903.952 209.411 903.927 209.432C903.902 209.452 903.873 209.469 903.843 209.48C903.814 209.49 903.783 209.496 903.753 209.496L895.226 209.384C895.196 209.384 895.167 209.378 895.141 209.366C895.115 209.355 895.093 209.338 895.076 209.316C895.059 209.295 895.047 209.27 895.04 209.243C895.034 209.215 895.034 209.186 895.04 209.156L895.589 206.302C895.595 206.272 895.606 206.243 895.623 206.216C895.639 206.189 895.661 206.164 895.686 206.143C895.712 206.123 895.74 206.107 895.77 206.096C895.8 206.085 895.831 206.08 895.862 206.08L904.393 206.192C904.423 206.192 904.452 206.198 904.478 206.21C904.503 206.222 904.525 206.239 904.542 206.26C904.559 206.281 904.571 206.306 904.577 206.333C904.583 206.361 904.583 206.39 904.578 206.42L904.023 209.274ZM905.443 201.896C905.431 201.955 905.397 202.012 905.346 202.053C905.295 202.095 905.233 202.118 905.172 202.117L896.645 202.006C896.585 202.005 896.531 201.981 896.496 201.938C896.461 201.895 896.448 201.838 896.46 201.778L897.009 198.922C897.02 198.862 897.056 198.806 897.107 198.764C897.158 198.722 897.221 198.7 897.281 198.7L905.813 198.812C905.874 198.813 905.927 198.838 905.961 198.881C905.996 198.923 906.009 198.98 905.997 199.04L905.443 201.896ZM906.863 194.516C906.857 194.545 906.846 194.574 906.829 194.602C906.813 194.629 906.791 194.653 906.766 194.674C906.741 194.694 906.713 194.711 906.683 194.722C906.653 194.733 906.622 194.738 906.592 194.738L898.065 194.626C898.035 194.626 898.006 194.62 897.98 194.608C897.955 194.597 897.933 194.58 897.915 194.559C897.898 194.537 897.886 194.512 897.88 194.485C897.874 194.457 897.873 194.428 897.879 194.398L898.428 191.544C898.434 191.514 898.445 191.485 898.462 191.458C898.479 191.431 898.5 191.406 898.526 191.385C898.551 191.365 898.58 191.349 898.61 191.338C898.64 191.327 898.671 191.322 898.701 191.322L907.233 191.434C907.263 191.434 907.291 191.441 907.317 191.452C907.342 191.464 907.364 191.481 907.381 191.502C907.399 191.523 907.41 191.548 907.417 191.576C907.423 191.603 907.423 191.632 907.417 191.662L906.863 194.516ZM908.282 187.138C908.271 187.197 908.236 187.254 908.185 187.295C908.134 187.337 908.072 187.36 908.011 187.36L899.485 187.248C899.455 187.247 899.426 187.241 899.4 187.23C899.375 187.218 899.353 187.201 899.335 187.18C899.318 187.159 899.306 187.134 899.3 187.106C899.293 187.079 899.293 187.05 899.299 187.02L899.848 184.164C899.854 184.135 899.865 184.106 899.882 184.079C899.899 184.052 899.921 184.027 899.946 184.007C899.971 183.986 900 183.97 900.03 183.959C900.059 183.949 900.09 183.944 900.12 183.944L908.652 184.056C908.712 184.057 908.766 184.081 908.8 184.123C908.835 184.166 908.848 184.223 908.837 184.282L908.282 187.138ZM909.702 179.76C909.69 179.819 909.655 179.875 909.605 179.916C909.554 179.958 909.492 179.981 909.431 179.98L900.904 179.868C900.874 179.868 900.846 179.862 900.82 179.85C900.794 179.839 900.772 179.822 900.755 179.801C900.738 179.78 900.726 179.755 900.719 179.728C900.713 179.701 900.713 179.671 900.718 179.642L901.268 176.786C901.279 176.726 901.314 176.67 901.365 176.628C901.416 176.586 901.479 176.564 901.54 176.564L910.072 176.676C910.132 176.677 910.186 176.702 910.22 176.745C910.255 176.787 910.268 176.844 910.256 176.904L909.702 179.76ZM911.121 172.38C911.116 172.409 911.105 172.438 911.088 172.466C911.071 172.493 911.05 172.517 911.025 172.538C911 172.558 910.971 172.575 910.941 172.586C910.912 172.597 910.881 172.602 910.851 172.602L902.324 172.49C902.294 172.49 902.265 172.484 902.239 172.472C902.213 172.461 902.191 172.444 902.174 172.423C902.157 172.401 902.145 172.376 902.138 172.349C902.132 172.321 902.132 172.292 902.138 172.262L902.687 169.408C902.693 169.378 902.704 169.349 902.721 169.322C902.737 169.295 902.759 169.27 902.784 169.249C902.81 169.229 902.838 169.213 902.868 169.202C902.898 169.191 902.929 169.186 902.96 169.186L911.491 169.298C911.521 169.298 911.55 169.304 911.575 169.316C911.601 169.328 911.623 169.345 911.64 169.366C911.657 169.387 911.669 169.412 911.675 169.439C911.681 169.467 911.681 169.496 911.676 169.526L911.121 172.38ZM922.819 216.917C922.814 216.946 922.802 216.975 922.785 217.002C922.769 217.029 922.747 217.054 922.722 217.074C922.696 217.094 922.668 217.111 922.638 217.121C922.608 217.132 922.577 217.137 922.547 217.137L914.021 217.025C913.96 217.024 913.907 217 913.872 216.958C913.837 216.915 913.823 216.858 913.834 216.799L914.383 213.945C914.395 213.885 914.431 213.829 914.482 213.787C914.532 213.746 914.595 213.723 914.656 213.723L923.183 213.835C923.243 213.835 923.297 213.86 923.332 213.902C923.367 213.945 923.38 214.003 923.368 214.062L922.819 216.917ZM924.239 209.537C924.234 209.566 924.222 209.596 924.205 209.623C924.189 209.65 924.167 209.675 924.142 209.695C924.116 209.716 924.088 209.732 924.058 209.743C924.028 209.754 923.997 209.759 923.967 209.758L915.44 209.647C915.41 209.646 915.381 209.64 915.356 209.629C915.33 209.617 915.308 209.6 915.291 209.579C915.273 209.558 915.261 209.533 915.255 209.505C915.249 209.478 915.248 209.449 915.254 209.419L915.803 206.566C915.814 206.507 915.85 206.45 915.901 206.408C915.952 206.367 916.014 206.344 916.075 206.345L924.602 206.456C924.632 206.457 924.661 206.463 924.687 206.474C924.712 206.486 924.735 206.503 924.752 206.524C924.769 206.545 924.781 206.57 924.788 206.598C924.794 206.625 924.794 206.655 924.788 206.684L924.239 209.537ZM925.659 202.159C925.647 202.218 925.612 202.275 925.561 202.317C925.51 202.358 925.447 202.381 925.386 202.38L916.859 202.269C916.799 202.268 916.745 202.243 916.711 202.2C916.676 202.158 916.663 202.101 916.674 202.041L917.223 199.187C917.235 199.127 917.27 199.071 917.321 199.029C917.372 198.988 917.434 198.965 917.495 198.965L926.022 199.077C926.083 199.077 926.136 199.102 926.171 199.145C926.206 199.187 926.219 199.245 926.208 199.304L925.659 202.159ZM927.078 194.779C927.073 194.808 927.061 194.838 927.045 194.865C927.028 194.892 927.006 194.917 926.981 194.937C926.956 194.958 926.927 194.974 926.897 194.985C926.867 194.996 926.836 195.001 926.806 195.001L918.279 194.889C918.218 194.888 918.165 194.864 918.13 194.821C918.095 194.778 918.082 194.721 918.093 194.661L918.642 191.809C918.654 191.749 918.689 191.692 918.74 191.651C918.791 191.609 918.854 191.586 918.915 191.587L927.441 191.698C927.471 191.699 927.5 191.705 927.526 191.716C927.552 191.728 927.574 191.745 927.591 191.766C927.609 191.787 927.621 191.812 927.627 191.84C927.633 191.867 927.633 191.897 927.627 191.926L927.078 194.779ZM928.498 187.401C928.486 187.46 928.451 187.517 928.4 187.559C928.349 187.6 928.286 187.623 928.225 187.622L919.699 187.511C919.638 187.51 919.585 187.485 919.55 187.442C919.515 187.4 919.502 187.343 919.513 187.283L920.062 184.429C920.074 184.369 920.109 184.313 920.16 184.272C920.211 184.231 920.274 184.208 920.334 184.209L928.861 184.32C928.891 184.321 928.919 184.327 928.945 184.338C928.971 184.349 928.993 184.366 929.01 184.387C929.027 184.408 929.04 184.433 929.046 184.46C929.052 184.488 929.053 184.517 929.047 184.546L928.498 187.401ZM929.917 180.023C929.912 180.052 929.9 180.081 929.883 180.108C929.867 180.135 929.845 180.16 929.82 180.18C929.794 180.201 929.766 180.217 929.736 180.227C929.706 180.238 929.675 180.243 929.645 180.243L921.118 180.131C921.058 180.13 921.004 180.106 920.97 180.064C920.935 180.021 920.921 179.964 920.932 179.905L921.481 177.051C921.493 176.991 921.529 176.935 921.579 176.893C921.63 176.852 921.693 176.829 921.754 176.829L930.281 176.941C930.341 176.941 930.395 176.966 930.43 177.008C930.465 177.051 930.478 177.109 930.466 177.168L929.917 180.023ZM931.337 172.643C931.332 172.672 931.32 172.702 931.303 172.729C931.287 172.756 931.265 172.781 931.24 172.801C931.214 172.822 931.186 172.838 931.156 172.849C931.126 172.86 931.095 172.865 931.065 172.865L922.538 172.753C922.508 172.753 922.479 172.746 922.454 172.735C922.428 172.723 922.406 172.706 922.389 172.685C922.371 172.664 922.359 172.639 922.353 172.611C922.347 172.584 922.346 172.555 922.352 172.525L922.901 169.673C922.912 169.613 922.947 169.556 922.999 169.515C923.05 169.473 923.112 169.45 923.173 169.451L931.7 169.562C931.73 169.563 931.759 169.569 931.785 169.58C931.81 169.592 931.833 169.609 931.85 169.63C931.867 169.651 931.879 169.676 931.885 169.704C931.892 169.731 931.892 169.761 931.886 169.79L931.337 172.643ZM936.633 217.096C936.627 217.125 936.616 217.154 936.599 217.181C936.582 217.208 936.561 217.233 936.535 217.253C936.51 217.274 936.482 217.29 936.452 217.3C936.422 217.311 936.391 217.316 936.361 217.316L927.834 217.204C927.774 217.203 927.72 217.179 927.685 217.137C927.651 217.094 927.637 217.037 927.648 216.978L928.197 214.125C928.209 214.066 928.244 214.009 928.295 213.968C928.346 213.926 928.409 213.903 928.469 213.904L936.996 214.015C937.057 214.016 937.111 214.041 937.145 214.083C937.18 214.126 937.193 214.183 937.182 214.243L936.633 217.096ZM938.053 209.716C938.047 209.746 938.036 209.775 938.019 209.802C938.003 209.829 937.981 209.854 937.956 209.874C937.93 209.895 937.902 209.911 937.872 209.922C937.842 209.933 937.811 209.938 937.781 209.938L929.254 209.826C929.224 209.826 929.195 209.819 929.169 209.808C929.144 209.796 929.122 209.779 929.104 209.758C929.087 209.737 929.075 209.712 929.069 209.685C929.063 209.657 929.062 209.628 929.068 209.598L929.616 206.747C929.622 206.718 929.634 206.689 929.65 206.662C929.667 206.634 929.689 206.61 929.714 206.589C929.739 206.569 929.768 206.552 929.798 206.542C929.828 206.531 929.859 206.525 929.889 206.526L938.416 206.637C938.446 206.637 938.475 206.643 938.5 206.655C938.526 206.667 938.548 206.683 938.565 206.705C938.583 206.726 938.595 206.751 938.601 206.778C938.607 206.806 938.607 206.835 938.601 206.865L938.053 209.716ZM939.472 202.338C939.467 202.367 939.455 202.396 939.438 202.424C939.422 202.451 939.4 202.475 939.375 202.496C939.349 202.516 939.321 202.533 939.291 202.544C939.261 202.554 939.23 202.56 939.2 202.56L930.673 202.448C930.613 202.447 930.559 202.422 930.525 202.379C930.49 202.337 930.476 202.28 930.487 202.22L931.036 199.367C931.048 199.308 931.083 199.251 931.134 199.21C931.185 199.169 931.248 199.145 931.309 199.146L939.835 199.257C939.896 199.258 939.95 199.283 939.985 199.325C940.02 199.368 940.033 199.426 940.021 199.485L939.472 202.338ZM940.892 194.958C940.887 194.988 940.875 195.017 940.859 195.044C940.842 195.071 940.82 195.096 940.795 195.117C940.77 195.137 940.741 195.153 940.711 195.164C940.681 195.175 940.65 195.18 940.62 195.18L932.093 195.068C932.063 195.068 932.034 195.062 932.009 195.05C931.983 195.038 931.961 195.021 931.944 195C931.926 194.979 931.914 194.954 931.908 194.927C931.902 194.899 931.902 194.87 931.907 194.84L932.456 191.989C932.461 191.96 932.473 191.931 932.49 191.904C932.506 191.877 932.528 191.852 932.553 191.831C932.579 191.811 932.607 191.795 932.637 191.784C932.667 191.773 932.698 191.767 932.728 191.768L941.255 191.879C941.285 191.879 941.314 191.886 941.34 191.897C941.365 191.909 941.387 191.926 941.405 191.947C941.422 191.968 941.434 191.993 941.44 192.021C941.446 192.048 941.447 192.077 941.441 192.107L940.892 194.958ZM942.312 187.58C942.3 187.64 942.265 187.696 942.214 187.738C942.163 187.78 942.1 187.802 942.039 187.802L933.513 187.69C933.452 187.689 933.399 187.664 933.364 187.622C933.329 187.579 933.316 187.522 933.327 187.462L933.875 184.61C933.887 184.55 933.923 184.494 933.974 184.453C934.025 184.411 934.087 184.389 934.148 184.39L942.674 184.501C942.704 184.501 942.733 184.507 942.759 184.519C942.784 184.53 942.806 184.547 942.824 184.568C942.841 184.589 942.853 184.614 942.86 184.641C942.866 184.669 942.866 184.698 942.86 184.727L942.312 187.58ZM943.731 180.202C943.725 180.231 943.714 180.26 943.697 180.287C943.68 180.314 943.659 180.339 943.633 180.359C943.608 180.38 943.58 180.396 943.55 180.406C943.52 180.417 943.489 180.422 943.459 180.422L934.932 180.31C934.872 180.309 934.818 180.285 934.783 180.243C934.749 180.201 934.735 180.143 934.746 180.084L935.295 177.231C935.307 177.172 935.342 177.115 935.393 177.074C935.444 177.032 935.507 177.009 935.567 177.01L944.094 177.121C944.155 177.122 944.209 177.147 944.243 177.189C944.278 177.232 944.291 177.289 944.28 177.349L943.731 180.202ZM945.151 172.822C945.145 172.852 945.134 172.881 945.117 172.908C945.101 172.935 945.079 172.96 945.054 172.981C945.028 173.001 945 173.017 944.97 173.028C944.94 173.039 944.909 173.044 944.879 173.044L936.352 172.932C936.322 172.932 936.293 172.925 936.267 172.914C936.242 172.902 936.22 172.885 936.202 172.864C936.185 172.843 936.173 172.818 936.167 172.791C936.161 172.763 936.16 172.734 936.166 172.704L936.714 169.853C936.72 169.824 936.732 169.795 936.748 169.768C936.765 169.74 936.787 169.716 936.812 169.695C936.837 169.675 936.866 169.659 936.896 169.648C936.926 169.637 936.957 169.631 936.987 169.632L945.514 169.743C945.544 169.743 945.573 169.749 945.598 169.761C945.624 169.773 945.646 169.79 945.663 169.811C945.681 169.832 945.693 169.857 945.699 169.884C945.705 169.912 945.705 169.941 945.699 169.971L945.151 172.822ZM956.849 217.359C956.837 217.418 956.802 217.474 956.751 217.516C956.7 217.557 956.637 217.58 956.577 217.579L948.05 217.467C948.02 217.467 947.991 217.461 947.966 217.449C947.94 217.438 947.918 217.421 947.901 217.4C947.883 217.379 947.871 217.354 947.865 217.327C947.859 217.3 947.858 217.271 947.864 217.241L948.412 214.39C948.424 214.33 948.459 214.274 948.51 214.232C948.561 214.19 948.624 214.168 948.685 214.168L957.211 214.28C957.272 214.281 957.325 214.306 957.36 214.348C957.395 214.391 957.408 214.448 957.397 214.508L956.849 217.359ZM958.269 209.979C958.257 210.039 958.222 210.095 958.171 210.137C958.12 210.179 958.057 210.201 957.996 210.201L949.47 210.089C949.41 210.088 949.358 210.064 949.323 210.022C949.289 209.981 949.276 209.925 949.286 209.866L949.835 207.012C949.841 206.982 949.852 206.953 949.869 206.926C949.886 206.899 949.907 206.874 949.933 206.853C949.958 206.833 949.986 206.817 950.016 206.806C950.046 206.795 950.077 206.79 950.108 206.79L958.634 206.902C958.695 206.903 958.749 206.927 958.784 206.97C958.819 207.013 958.832 207.07 958.82 207.13L958.269 209.979ZM959.688 202.601C959.676 202.66 959.641 202.717 959.59 202.758C959.539 202.8 959.476 202.823 959.416 202.822L950.889 202.711C950.828 202.71 950.775 202.686 950.74 202.643C950.705 202.6 950.692 202.543 950.703 202.483L951.252 199.632C951.263 199.573 951.298 199.516 951.349 199.474C951.4 199.433 951.463 199.41 951.524 199.41L960.051 199.522C960.111 199.523 960.165 199.548 960.2 199.59C960.234 199.633 960.248 199.69 960.237 199.75L959.688 202.601ZM961.108 195.221C961.096 195.281 961.061 195.337 961.01 195.379C960.959 195.421 960.896 195.444 960.836 195.443L952.309 195.331C952.279 195.331 952.25 195.325 952.224 195.313C952.198 195.302 952.176 195.285 952.159 195.264C952.142 195.242 952.129 195.217 952.123 195.19C952.117 195.162 952.117 195.133 952.123 195.103L952.671 192.254C952.677 192.224 952.688 192.195 952.705 192.168C952.721 192.141 952.743 192.116 952.768 192.096C952.794 192.075 952.822 192.059 952.852 192.048C952.882 192.037 952.913 192.032 952.943 192.032L961.47 192.144C961.531 192.145 961.585 192.169 961.62 192.212C961.654 192.255 961.668 192.312 961.656 192.372L961.108 195.221ZM962.527 187.843C962.515 187.902 962.48 187.959 962.429 188C962.378 188.042 962.316 188.065 962.255 188.065L953.728 187.953C953.669 187.951 953.617 187.927 953.583 187.886C953.549 187.844 953.535 187.788 953.545 187.73L954.094 184.874C954.1 184.845 954.111 184.816 954.128 184.789C954.145 184.762 954.167 184.737 954.192 184.717C954.217 184.696 954.246 184.68 954.276 184.67C954.306 184.659 954.336 184.654 954.366 184.654L962.893 184.766C962.954 184.767 963.007 184.791 963.042 184.833C963.077 184.876 963.09 184.933 963.079 184.992L962.527 187.843ZM963.947 180.465C963.935 180.524 963.9 180.58 963.849 180.622C963.798 180.663 963.735 180.686 963.675 180.685L955.148 180.573C955.118 180.573 955.089 180.567 955.064 180.556C955.038 180.544 955.016 180.527 954.999 180.506C954.981 180.485 954.969 180.46 954.963 180.433C954.957 180.406 954.956 180.377 954.962 180.347L955.51 177.496C955.522 177.437 955.557 177.38 955.608 177.338C955.659 177.297 955.722 177.274 955.783 177.274L964.309 177.386C964.37 177.387 964.423 177.412 964.458 177.454C964.493 177.497 964.506 177.554 964.495 177.614L963.947 180.465ZM965.367 173.085C965.355 173.145 965.32 173.201 965.269 173.243C965.218 173.285 965.155 173.307 965.094 173.307L956.568 173.195C956.537 173.195 956.509 173.189 956.483 173.177C956.457 173.166 956.435 173.149 956.418 173.128C956.4 173.106 956.388 173.081 956.382 173.054C956.376 173.026 956.376 172.997 956.382 172.967L956.93 170.118C956.935 170.088 956.947 170.059 956.963 170.032C956.98 170.005 957.002 169.98 957.027 169.959C957.052 169.939 957.081 169.923 957.111 169.912C957.141 169.901 957.172 169.896 957.202 169.896L965.729 170.008C965.79 170.009 965.843 170.033 965.878 170.076C965.913 170.119 965.926 170.176 965.915 170.236L965.367 173.085Z" fill="#F2F2F2"/>
<path d="M906.532 125.899L903.583 127.502L905.73 124.67C905.346 124.31 904.823 124.107 904.246 124.092L904.203 124.091C904.02 124.092 903.839 124.076 903.664 124.044L902.664 124.593L903.177 123.916C902.585 123.691 902.117 123.276 901.84 122.73L900.05 123.708L901.405 121.922C900.683 120.81 899.553 120.119 898.167 120.101C896.505 120.079 894.839 121.029 893.593 122.526C893.223 122.975 892.751 123.341 892.226 123.587C891.7 123.832 891.14 123.948 890.602 123.922L890.514 123.92C888.679 123.896 886.8 125.917 886.315 128.434C885.831 130.95 886.926 133.009 888.76 133.033C889.164 133.036 889.579 132.944 889.971 132.763C890.653 132.474 891.367 132.321 892.064 132.317C892.76 132.313 893.423 132.457 894.006 132.739C894.499 132.982 895.058 133.112 895.647 133.12C896.236 133.127 896.842 133.013 897.425 132.784C898.107 132.524 898.814 132.401 899.499 132.423C900.184 132.445 900.83 132.612 901.393 132.913C901.712 133.098 902.087 133.199 902.485 133.206C904.32 133.23 906.199 131.209 906.683 128.694C906.883 127.723 906.831 126.762 906.532 125.899V125.899Z" fill="#F2F2F2"/>
<path opacity="0.03" d="M900.285 132.5C899.361 132.308 898.35 132.401 897.381 132.765C896.798 132.994 896.192 133.108 895.604 133.1C895.015 133.092 894.456 132.963 893.964 132.721C892.815 132.16 891.243 132.151 889.929 132.746C889.536 132.926 889.12 133.018 888.717 133.014C887.087 132.993 886.041 131.365 886.168 129.238C886.538 129.009 886.871 128.721 887.148 128.388C888.396 126.881 890.059 125.93 891.724 125.952C893.389 125.974 894.663 126.95 895.326 128.457C895.523 128.912 895.851 129.289 896.276 129.55C896.701 129.812 897.21 129.95 897.752 129.95L897.795 129.951C899.098 129.97 900.025 131.005 900.285 132.5Z" fill="black"/>
<path d="M990.985 155.638L989.512 156.431L990.584 155.019C990.392 154.839 990.131 154.738 989.843 154.73L989.823 154.73C989.731 154.731 989.641 154.723 989.553 154.707L989.055 154.979L989.311 154.64C989.017 154.528 988.783 154.321 988.643 154.051L987.751 154.54L988.433 153.647C988.273 153.377 988.044 153.156 987.765 152.999C987.486 152.843 987.163 152.755 986.819 152.742C985.991 152.731 985.159 153.206 984.545 153.952C984.36 154.176 984.124 154.359 983.861 154.482C983.598 154.604 983.318 154.661 983.049 154.648L983.005 154.648C982.091 154.636 981.153 155.643 980.912 156.898C980.67 158.153 981.216 159.179 982.131 159.191C982.332 159.193 982.54 159.147 982.735 159.057C983.075 158.913 983.431 158.837 983.779 158.835C984.126 158.833 984.456 158.905 984.747 159.045C984.993 159.166 985.272 159.231 985.566 159.235C985.86 159.239 986.162 159.182 986.453 159.068C986.793 158.938 987.146 158.877 987.488 158.888C987.83 158.899 988.152 158.982 988.433 159.132C988.592 159.225 988.778 159.275 988.977 159.278C989.891 159.29 990.829 158.282 991.07 157.027C991.166 156.544 991.136 156.067 990.985 155.638V155.638Z" fill="#F2F2F2"/>
<path opacity="0.03" d="M987.869 158.93C987.408 158.835 986.904 158.882 986.42 159.063C986.13 159.176 985.83 159.232 985.537 159.228C985.245 159.223 984.968 159.158 984.723 159.037C984.432 158.897 984.101 158.825 983.754 158.827C983.406 158.829 983.05 158.905 982.71 159.049C982.514 159.139 982.307 159.185 982.106 159.183C981.293 159.172 980.771 158.361 980.835 157.299C981.019 157.185 981.186 157.041 981.324 156.875C981.944 156.129 982.776 155.655 983.599 155.665C984.422 155.676 985.065 156.163 985.4 156.915C985.499 157.143 985.664 157.332 985.877 157.463C986.091 157.593 986.346 157.661 986.618 157.66L986.64 157.661C987.277 157.669 987.739 158.186 987.869 158.93Z" fill="black"/>
<path d="M1008.26 232.488L1008.1 233.32C1008.02 233.762 1007.84 234.199 1007.58 234.601C1007.31 235.003 1006.98 235.362 1006.59 235.655C1006.2 235.948 1005.76 236.169 1005.3 236.304C1004.85 236.438 1004.39 236.483 1003.94 236.436C997.418 235.73 991.026 234.491 984.321 234.604C971.959 234.811 958.618 239.578 947.306 236.377C944.116 235.474 941.085 233.938 937.571 234.214C934.419 234.461 931.332 236.143 928.176 236.909C918.578 239.246 910.482 232.916 900.972 233.042C894.704 233.127 888.16 236.026 881.995 235.613C878.422 235.376 875.233 234.037 871.864 233.193C863.479 231.091 854.236 232.085 845.069 232.656C844.738 232.676 844.419 232.63 844.131 232.521C843.842 232.411 843.591 232.241 843.393 232.021C843.195 231.8 843.054 231.534 842.979 231.239C842.904 230.944 842.896 230.626 842.957 230.305L843.093 229.6C843.212 228.982 843.576 228.392 844.106 227.961C844.635 227.53 845.287 227.292 845.917 227.301L1005.63 229.265C1006.49 229.278 1007.25 229.624 1007.74 230.228C1008.24 230.833 1008.42 231.645 1008.26 232.488V232.488Z" fill="#3F3D56"/>
<path opacity="0.1" d="M1008.26 232.488L1008.1 233.32C1008.02 233.762 1007.84 234.199 1007.58 234.601C1007.31 235.003 1006.98 235.362 1006.59 235.655C1006.2 235.948 1005.76 236.169 1005.3 236.304C1004.85 236.438 1004.39 236.483 1003.94 236.436C997.418 235.73 991.026 234.491 984.321 234.604C971.959 234.811 958.618 239.578 947.306 236.377C944.116 235.474 941.085 233.938 937.571 234.214C934.419 234.461 931.332 236.143 928.176 236.909C918.578 239.246 910.482 232.916 900.972 233.042C894.704 233.127 888.16 236.026 881.995 235.613C878.422 235.376 875.233 234.037 871.864 233.193C863.479 231.091 854.236 232.085 845.069 232.656C844.738 232.676 844.419 232.63 844.131 232.521C843.842 232.411 843.591 232.241 843.393 232.021C843.195 231.8 843.054 231.534 842.979 231.239C842.904 230.944 842.896 230.626 842.957 230.305L843.093 229.6C843.212 228.982 843.576 228.392 844.106 227.961C844.635 227.53 845.287 227.292 845.917 227.301L1005.63 229.265C1006.49 229.278 1007.25 229.624 1007.74 230.228C1008.24 230.833 1008.42 231.645 1008.26 232.488V232.488Z" fill="black"/>
<path d="M1008.55 230.965L1008.39 231.797C1008.37 231.913 1008.34 232.028 1008.31 232.143C1008.06 232.974 1007.49 233.732 1006.73 234.253C1005.96 234.774 1005.07 235.016 1004.23 234.926C997.709 234.218 991.317 232.98 984.611 233.094C972.249 233.303 958.908 238.07 947.597 234.867C944.406 233.964 941.376 232.428 937.862 232.704C934.709 232.951 931.624 234.625 928.466 235.401C918.87 237.725 910.774 231.395 901.263 231.529C894.995 231.614 888.451 234.513 882.286 234.102C878.713 233.864 875.523 232.525 872.155 231.68C863.771 229.58 854.527 230.572 845.36 231.143C844.764 231.179 844.213 231.001 843.815 230.641C843.417 230.281 843.2 229.766 843.206 229.196C843.208 229.062 843.222 228.927 843.248 228.792L843.385 228.08C843.504 227.462 843.868 226.873 844.398 226.442C844.928 226.01 845.579 225.773 846.21 225.781L886.238 226.272L968.023 227.276L1005.92 227.742C1006.78 227.753 1007.54 228.099 1008.04 228.704C1008.53 229.308 1008.72 230.121 1008.55 230.965V230.965Z" fill="#3F3D56"/>
<path d="M994.523 228.372C995.208 227.461 994.845 226.33 994.345 225.503C993.844 224.675 993.203 223.819 993.422 222.773C993.735 221.275 995.526 220.412 996.974 219.635C998.048 219.058 999.069 218.371 1000.02 217.588C1000.41 217.286 1000.75 216.929 1001.03 216.533C1001.41 215.951 1001.53 215.285 1001.64 214.642C1001.99 212.505 1002.3 210.368 1002.55 208.232" stroke="#3F3D56" stroke-width="4" stroke-miterlimit="10"/>
<path d="M1005.03 208.148C1005.09 207.757 1005.05 207.375 1004.9 207.037C1004.76 206.7 1004.52 206.418 1004.21 206.218L1003.48 207.247L1003.74 205.994C1003.5 205.917 1003.24 205.882 1002.97 205.892C1002.5 205.909 1002.02 206.061 1001.59 206.33C1001.16 206.6 1000.8 206.973 1000.56 207.405C1000.31 207.836 1000.2 208.305 1000.23 208.753C1000.26 209.202 1000.42 209.609 1000.71 209.923C1001 210.237 1001.39 210.445 1001.84 210.52C1002.29 210.595 1002.78 210.533 1003.24 210.344C1003.71 210.154 1004.12 209.844 1004.44 209.453C1004.76 209.062 1004.97 208.608 1005.04 208.148L1005.03 208.148Z" fill="#57B894"/>
<path d="M997.744 223.902C997.403 224.374 996.922 224.745 996.381 224.953C995.841 225.161 995.274 225.193 994.776 225.045C994.278 224.896 993.878 224.576 993.645 224.137C993.411 223.698 993.358 223.168 993.493 222.635C993.628 222.102 993.945 221.599 994.388 221.209C994.832 220.82 995.377 220.569 995.931 220.497C996.485 220.425 997.015 220.538 997.432 220.815C997.849 221.093 998.128 221.52 998.221 222.023L996.504 223.192L998.214 222.84C998.142 223.211 997.981 223.575 997.744 223.902V223.902Z" fill="#57B894"/>
<path d="M997.44 219.353C996.838 219.389 996.284 219.205 995.886 218.837C995.489 218.47 995.277 217.945 995.293 217.368C995.309 216.791 995.551 216.203 995.972 215.72C996.393 215.237 996.962 214.894 997.567 214.76L997.368 215.721L998.109 214.682C998.425 214.671 998.728 214.721 999.003 214.828C999.278 214.936 999.518 215.099 999.709 215.309C999.901 215.519 1000.04 215.771 1000.12 216.051C1000.2 216.331 1000.22 216.633 1000.17 216.939C1000.13 217.209 1000.05 217.479 999.916 217.735C999.683 218.192 999.321 218.592 998.878 218.881C998.435 219.171 997.933 219.335 997.44 219.353V219.353Z" fill="#57B894"/>
<path d="M1003.95 215.654C1003.31 215.675 1002.74 215.449 1002.35 215.027C1001.97 214.604 1001.8 214.02 1001.89 213.401C1001.98 212.783 1002.31 212.182 1002.83 211.73C1003.34 211.278 1003.99 211.012 1004.62 210.991C1005.07 210.975 1005.49 211.084 1005.84 211.304L1005.2 212.429L1006.23 211.626C1006.61 212.048 1006.77 212.631 1006.68 213.247C1006.65 213.464 1006.59 213.68 1006.5 213.891C1006.29 214.383 1005.92 214.821 1005.46 215.14C1005 215.458 1004.47 215.639 1003.95 215.654V215.654Z" fill="#57B894"/>
<path opacity="0.1" d="M1004.59 208.766C1004.03 208.819 1003.46 208.98 1002.91 209.006C1002.35 209.032 1001.77 208.895 1001.5 208.469C1001.36 208.24 1001.32 207.953 1001.21 207.703C1001.1 207.471 1000.93 207.278 1000.71 207.142C1000.51 207.435 1000.37 207.755 1000.3 208.082C1000.23 208.408 1000.22 208.734 1000.29 209.038C1000.36 209.341 1000.5 209.616 1000.7 209.845C1000.9 210.073 1001.15 210.25 1001.44 210.363C1001.74 210.476 1002.06 210.524 1002.4 210.503C1002.74 210.482 1003.08 210.392 1003.4 210.24C1003.72 210.088 1004.02 209.877 1004.27 209.62C1004.53 209.363 1004.73 209.067 1004.87 208.75C1004.78 208.754 1004.69 208.758 1004.59 208.766Z" fill="black"/>
<path opacity="0.1" d="M1003.95 215.654C1003.53 215.669 1003.14 215.579 1002.81 215.393C1002.48 215.207 1002.21 214.931 1002.05 214.593C1001.89 214.254 1001.83 213.865 1001.87 213.462C1001.92 213.059 1002.08 212.657 1002.32 212.296C1002.49 212.423 1002.62 212.585 1002.71 212.773C1002.83 213.026 1002.88 213.317 1003.03 213.55C1003.32 213.984 1003.93 214.132 1004.51 214.113C1005.09 214.094 1005.68 213.943 1006.25 213.899C1006.33 213.891 1006.42 213.887 1006.5 213.887C1006.28 214.379 1005.92 214.818 1005.46 215.137C1005 215.455 1004.47 215.637 1003.95 215.654V215.654Z" fill="black"/>
<path opacity="0.1" d="M997.44 219.353C997.029 219.368 996.639 219.281 996.308 219.098C995.977 218.916 995.716 218.645 995.55 218.311C995.384 217.978 995.319 217.593 995.36 217.195C995.402 216.796 995.548 216.396 995.787 216.035C995.962 216.162 996.103 216.325 996.205 216.516C996.34 216.774 996.399 217.07 996.562 217.309C996.88 217.754 997.526 217.916 998.136 217.911C998.746 217.905 999.325 217.771 999.919 217.735C999.686 218.192 999.324 218.593 998.88 218.882C998.437 219.172 997.934 219.336 997.44 219.353V219.353Z" fill="black"/>
<path opacity="0.1" d="M997.744 223.902C997.563 224.18 997.332 224.43 997.064 224.638C996.797 224.845 996.498 225.006 996.185 225.112C995.872 225.217 995.551 225.265 995.24 225.252C994.93 225.24 994.636 225.167 994.374 225.038C994.113 224.909 993.891 224.727 993.719 224.501C993.547 224.276 993.429 224.012 993.373 223.724C993.317 223.436 993.323 223.131 993.39 222.825C993.458 222.518 993.586 222.218 993.768 221.94C993.939 222.069 994.086 222.225 994.202 222.404C994.377 222.679 994.468 222.987 994.68 223.245C995.077 223.719 995.825 223.927 996.523 223.95C996.927 223.957 997.334 223.942 997.744 223.902V223.902Z" fill="black"/>
<path d="M991.132 227.269C991.132 227.269 993.024 227.236 993.667 226.849C994.31 226.462 996.719 226.018 996.743 226.654C996.767 227.29 998.961 229.853 996.835 229.837C994.71 229.821 991.977 229.439 991.466 229.099C990.955 228.759 991.132 227.269 991.132 227.269Z" fill="#808080"/>
<path opacity="0.2" d="M996.918 229.611C994.792 229.6 992.048 229.222 991.549 228.873C991.167 228.611 991.173 227.685 991.198 227.259L991.135 227.258C991.135 227.258 990.968 228.746 991.461 229.098C991.955 229.449 994.707 229.821 996.831 229.835C997.443 229.843 997.698 229.626 997.747 229.31C997.63 229.502 997.381 229.617 996.918 229.611Z" fill="black"/>
<path d="M951.228 207.547C950.693 210.327 952.114 210.509 954.134 212.629C956.155 214.75 958.441 210.428 958.975 207.649C959.51 204.869 958.209 202.593 956.071 202.565C953.932 202.537 951.762 204.768 951.228 207.547Z" fill="#915766"/>
<path d="M931.309 182.251C930.975 182.793 931.169 183.439 931.573 183.805C931.978 184.171 932.547 184.333 933.08 184.527C935.465 185.393 937.409 187.16 938.22 189.503C939.032 191.847 938.638 194.77 936.991 197.116C936.112 198.368 934.92 199.425 934.09 200.697C932.425 203.228 932.42 206.36 933.674 208.636C934.927 210.911 938.148 211.389 940.771 212.124C940.771 212.124 946.843 217.71 949.677 216.245" stroke="#3F3D56" stroke-miterlimit="10"/>
<path d="M929.208 225.321C929.208 225.321 928.324 228.146 929.82 228.332C930.552 228.408 931.295 228.441 932.046 228.433C932.48 228.434 932.927 228.321 933.34 228.107C933.754 227.894 934.119 227.586 934.399 227.216C934.679 226.847 934.864 226.428 934.934 226.003C935.004 225.578 934.958 225.163 934.799 224.798L934.767 224.728C933.688 222.376 929.208 225.321 929.208 225.321Z" fill="#915766"/>
<path d="M930.505 223.002C930.505 223.002 933.31 227.878 939.743 223.624C946.176 219.37 939.772 217.284 939.772 217.284L932.644 217.19L928.048 218.966L930.505 223.002Z" fill="#B56D7E"/>
<path d="M946.548 219.208C946.548 219.208 947.861 221.227 949.42 221.081C950.671 220.963 952.877 222.147 952.072 224.235C951.957 224.542 951.782 224.835 951.559 225.095C951.337 225.356 951.069 225.58 950.773 225.754C950.476 225.928 950.157 226.049 949.832 226.11C949.508 226.171 949.186 226.171 948.883 226.109C948.57 226.044 948.293 225.898 948.079 225.686C947.866 225.473 947.724 225.201 947.666 224.895C947.666 224.895 942.17 225.157 942.628 223.661C943.086 222.166 946.548 219.208 946.548 219.208Z" fill="#915766"/>
<path d="M932.375 219.94C932.375 219.94 933.941 223.297 931.318 225.432C928.696 227.567 926.256 227.868 926.256 227.868C926.256 227.868 926.816 229.378 923.623 229.169C920.431 228.96 919.605 227.948 920.911 226.464C922.218 224.979 925.084 223.348 924.799 222.176C924.514 221.005 924.315 218.499 925.621 217.015C925.275 216.676 924.99 216.282 924.774 215.846C924.132 214.489 926.227 212.998 927.274 214.061L928.074 214.878C928.074 214.878 931.408 212.585 937.463 213.832C937.463 213.832 940.041 213.699 940.903 211.875C940.903 211.875 939.308 206.014 947.269 201.78C948.655 201.252 950.098 201.041 951.47 201.168C953.814 201.366 956.328 201.565 957.321 205.249C957.321 205.249 958.227 207.764 959.671 208.747C960.059 209.021 960.365 209.384 960.569 209.811C960.772 210.238 960.868 210.72 960.851 211.222C960.789 214.096 959.291 218.648 949.776 216.163C949.776 216.163 947.844 222.228 942.611 224.662C942.611 224.662 941.952 226.322 942.195 226.826C942.438 227.329 943.687 229.682 941.004 229.48C939.662 229.38 938.615 229.365 937.889 229.377C937.579 229.383 937.288 229.305 937.047 229.154C936.807 229.003 936.626 228.782 936.523 228.518C936.421 228.253 936.402 227.953 936.468 227.651C936.533 227.348 936.681 227.055 936.896 226.801C936.908 226.787 936.921 226.772 936.934 226.757C936.947 226.742 937.891 224.433 936.546 222.58L936.591 220.579L932.375 219.94Z" fill="#9C5E6D"/>
<path d="M957.997 211.433C959.216 211.449 960.275 211.09 960.364 210.63C960.452 210.171 959.536 209.785 958.317 209.769C957.099 209.753 956.039 210.113 955.951 210.572C955.863 211.032 956.779 211.418 957.997 211.433Z" fill="#915766"/>
<path d="M899.545 212.732C898.99 213 898.418 213.216 897.837 213.377C896.805 213.627 895.768 213.517 894.739 213.729C894.316 213.815 893.835 214.002 893.635 214.382C893.485 214.665 893.521 214.974 893.573 215.26C894.062 218.423 894.079 221.774 895.277 224.655C895.781 225.863 896.484 226.959 897.364 227.909C897.693 228.265 898.078 228.616 898.597 228.678C898.838 228.706 899.093 228.671 899.337 228.575C899.581 228.48 899.805 228.327 899.988 228.134C900.17 227.94 900.303 227.711 900.375 227.471C900.446 227.231 900.453 226.987 900.394 226.766C900.301 226.431 900.063 226.154 899.937 225.825C899.783 225.423 899.811 224.953 899.842 224.489C899.931 223.14 900.033 221.73 900.755 220.46C901.239 219.609 901.965 218.887 902.601 218.12C903.237 217.352 903.815 216.467 903.88 215.562C903.925 214.943 903.726 214.375 903.504 213.837C903.283 213.298 902.917 211.85 902.298 211.663C901.679 211.477 900.195 212.442 899.545 212.732Z" fill="white"/>
<path d="M915.32 223.848C915.271 224.153 915.169 224.457 915.019 224.747C914.712 225.273 914.135 225.629 913.776 226.13C913.277 226.826 913.28 227.677 913.376 228.431C913.437 228.904 913.541 229.396 913.891 229.693C914.175 229.931 914.58 230.009 914.972 230.069C918.369 230.587 921.961 230.362 925.46 230.508C926.098 230.535 926.773 230.565 927.392 230.265C928.012 229.964 928.507 229.196 928.222 228.685C927.97 228.227 927.29 228.223 926.722 228.187C925.238 228.093 923.921 227.498 922.993 226.501C922.808 226.314 922.658 226.096 922.549 225.855C922.47 225.641 922.413 225.417 922.38 225.185C922.139 223.869 921.797 222.587 921.357 221.349C921.235 221.002 921.09 220.641 920.773 220.452C920.538 220.335 920.27 220.271 919.988 220.267C919.122 220.198 916.907 219.876 916.101 220.536C915.357 221.144 915.484 223.064 915.32 223.848Z" fill="white"/>
<path d="M935.404 147.565C938.498 147.606 941.478 145.18 942.062 142.146C942.645 139.113 940.611 136.621 937.518 136.581C934.425 136.54 931.444 138.966 930.86 142C930.277 145.033 932.311 147.525 935.404 147.565Z" fill="#FBBEBE"/>
<path d="M930.531 146.541C930.023 147.412 929.307 148.225 928.396 148.682L935.844 150.333C935.775 149.221 935.96 148.065 936.387 146.944C936.514 146.674 936.584 146.391 936.592 146.113C936.552 145.56 935.971 145.285 935.43 145.151C934.077 144.817 932.859 144.631 931.663 144.003C931.132 144.671 930.978 145.767 930.531 146.541Z" fill="#FBBEBE"/>
<path d="M928.725 146.626C929.63 146.267 930.572 146.099 931.482 146.135C932.392 146.171 933.245 146.409 933.979 146.831C934.873 147.357 935.547 148.143 936.208 148.918C936.817 149.631 937.456 150.449 937.314 151.463C937.245 151.955 936.997 152.432 936.823 152.917C936.489 153.919 936.473 154.943 936.777 155.849C937.082 156.754 937.692 157.494 938.523 157.968C938.945 158.975 938.837 160.201 938.621 161.375C937.802 165.818 935.508 170.296 935.695 174.638C935.739 175.657 935.922 176.644 935.932 177.672C935.944 179.007 935.669 180.363 935.551 181.71C935.423 183.167 935.479 184.603 935.719 185.987C935.278 186.508 934.54 186.7 933.917 186.649C933.294 186.597 932.753 186.321 932.244 186.031C929.779 184.626 927.624 182.787 925.021 181.585C923.302 180.79 921.399 180.285 919.756 179.37C918.113 178.456 916.695 177.023 916.508 175.103C916.429 174.268 916.581 173.4 916.733 172.54C917.375 168.916 918.029 165.252 919.513 161.731C920.821 158.621 922.763 155.656 923.675 152.478C923.972 151.442 924.187 150.334 924.943 149.478C926.012 148.259 927.872 147.971 928.725 146.626Z" fill="#3F3D56"/>
<path d="M933.261 142.108C933.673 141.69 934.32 141.641 934.824 141.773C935.328 141.905 935.767 142.178 936.273 142.293C936.387 142.328 936.513 142.338 936.641 142.322C936.769 142.307 936.897 142.266 937.016 142.202C937.252 142.05 937.367 141.78 937.459 141.529C937.855 140.443 938.111 139.337 938.222 138.237C938.224 138.082 938.265 137.924 938.341 137.775C938.534 137.465 938.95 137.395 939.297 137.3C939.873 137.128 940.407 136.782 940.812 136.319C941.218 135.855 941.473 135.299 941.537 134.74C941.581 134.471 941.515 134.215 941.353 134.026C941.16 133.842 940.845 133.826 940.552 133.819C939.049 133.788 937.544 133.769 936.036 133.76C935.479 133.753 934.89 133.763 934.354 134.03C933.959 134.227 933.63 134.546 933.26 134.796C932.297 135.451 931.14 135.566 930.058 135.892C929.535 136.025 929.033 136.283 928.602 136.641C928.19 137.016 927.92 137.576 928.044 138.039C928.117 138.231 928.203 138.417 928.303 138.594C928.723 139.543 928.087 140.761 927.965 141.865C927.811 143.248 929.464 145.517 930.815 145.862C932.997 146.415 932.332 143.002 933.261 142.108Z" fill="#3F3D56"/>
<path d="M918.445 202.64C918.395 203.65 918.385 204.666 918.141 205.682C917.798 207.101 917.013 208.464 916.644 209.881C916.367 210.94 916.329 212.014 915.975 213.064C915.75 213.729 915.402 214.381 915.133 215.055C914.706 216.137 914.498 217.253 914.522 218.337C914.545 219.422 914.799 220.453 915.269 221.368C915.334 221.525 915.443 221.655 915.588 221.746C915.732 221.804 915.894 221.827 916.061 221.815C917.698 221.803 919.352 221.678 921.011 221.443C921.056 221.449 921.104 221.446 921.152 221.433C921.199 221.42 921.245 221.399 921.286 221.37C921.328 221.34 921.364 221.304 921.392 221.263C921.421 221.222 921.441 221.177 921.452 221.132C922.039 219.638 921.65 218.114 921.769 216.589C921.897 214.96 922.608 213.336 923.309 211.75C923.639 210.969 924.012 210.198 924.426 209.442C924.714 208.932 925.041 208.439 925.307 207.92C925.698 207.109 926.002 206.274 926.213 205.429C926.583 204.099 926.901 202.76 927.168 201.412C927.413 200.141 927.622 198.86 927.577 197.615C927.518 196.031 927.057 194.553 926.597 193.097C926.186 193.153 925.794 193.377 925.416 193.582C924.35 194.173 923.255 194.697 922.139 195.151C921.389 195.455 919.999 195.66 919.438 196.31C918.878 196.961 918.908 198.269 918.804 198.982C918.626 200.206 918.507 201.427 918.445 202.64Z" fill="#3F3D56"/>
<path opacity="0.1" d="M918.445 202.64C918.395 203.65 918.385 204.666 918.141 205.682C917.798 207.101 917.013 208.464 916.644 209.881C916.367 210.94 916.329 212.014 915.975 213.064C915.75 213.729 915.402 214.381 915.133 215.055C914.706 216.137 914.498 217.253 914.522 218.337C914.545 219.422 914.799 220.453 915.269 221.368C915.334 221.525 915.443 221.655 915.588 221.746C915.732 221.804 915.894 221.827 916.061 221.815C917.698 221.803 919.352 221.678 921.011 221.443C921.056 221.449 921.104 221.446 921.152 221.433C921.199 221.42 921.245 221.399 921.286 221.37C921.328 221.34 921.364 221.304 921.392 221.263C921.421 221.222 921.441 221.177 921.452 221.132C922.039 219.638 921.65 218.114 921.769 216.589C921.897 214.96 922.608 213.336 923.309 211.75C923.639 210.969 924.012 210.198 924.426 209.442C924.714 208.932 925.041 208.439 925.307 207.92C925.698 207.109 926.002 206.274 926.213 205.429C926.583 204.099 926.901 202.76 927.168 201.412C927.413 200.141 927.622 198.86 927.577 197.615C927.518 196.031 927.057 194.553 926.597 193.097C926.186 193.153 925.794 193.377 925.416 193.582C924.35 194.173 923.255 194.697 922.139 195.151C921.389 195.455 919.999 195.66 919.438 196.31C918.878 196.961 918.908 198.269 918.804 198.982C918.626 200.206 918.507 201.427 918.445 202.64Z" fill="black"/>
<path d="M915.026 180.995C913.905 182.95 914.589 185.086 915.179 186.974C916.622 191.627 917.302 196.581 917.969 201.514C918.019 201.883 918.064 202.286 917.859 202.647C917.693 202.904 917.462 203.121 917.192 203.274C915.917 204.091 914.441 204.367 913.03 204.784C911.666 205.188 910.329 205.736 909.044 206.419C907.971 206.991 906.935 207.655 905.911 208.317L902.635 210.423C902.426 210.543 902.234 210.695 902.069 210.871C901.711 211.292 901.711 211.848 901.762 212.336C901.878 213.626 902.105 214.887 902.442 216.105C902.512 216.362 902.6 216.63 902.825 216.766C903.228 217.007 903.834 216.703 904.247 216.338C904.659 215.973 905.043 215.514 905.553 215.369C906.062 215.224 906.556 215.415 907.07 215.353C907.905 215.251 908.59 214.526 909.277 213.971C912.109 211.702 916.068 211.921 919.088 209.928C919.548 209.624 919.982 209.272 920.469 209.02C920.957 208.768 921.495 208.635 922 208.413C923.535 207.739 924.693 206.317 925.448 204.855C926.202 203.393 926.636 201.844 927.265 200.344C927.584 199.569 927.968 198.803 928.197 198.02C928.389 197.284 928.516 196.543 928.575 195.808L929.841 184.286C929.943 183.348 930.047 182.41 930.074 181.479C927.238 181.541 924.401 181.615 921.575 181.612C919.335 181.594 917.014 181.719 915.026 180.995Z" fill="#3F3D56"/>
<path d="M913.466 183.673C913.732 184.282 914.664 184.281 915.368 183.96C916.071 183.639 916.677 183.088 917.381 182.77C918.33 182.34 919.347 182.37 920.314 182.41C921.845 182.473 923.395 182.538 924.801 182.969C926.246 183.417 927.583 184.26 929.2 184.116C929.48 184.091 929.797 184.017 929.99 183.793C930.109 183.628 930.186 183.443 930.214 183.257L930.526 181.899C930.602 181.665 930.61 181.427 930.548 181.212C930.449 181.032 930.294 180.893 930.099 180.811C928.049 179.711 925.518 179.478 923.031 179.36C921.766 179.302 920.496 179.268 919.221 179.258C918.141 179.244 916.873 179.081 915.766 179.35C914.279 179.713 912.967 182.537 913.466 183.673Z" fill="#3F3D56"/>
<path d="M934.46 148.318C931.51 148.254 929.201 146.307 926.257 146.221C925.904 146.193 925.535 146.249 925.18 146.384C924.73 146.582 924.386 146.971 924.006 147.3C922.956 148.215 921.594 148.695 920.523 149.59C919.512 150.428 918.807 151.685 918.92 152.828C919.034 153.971 920.119 154.859 921.346 154.602C922.108 153.106 923.335 151.818 924.828 150.946C925.598 150.522 926.395 150.158 927.208 149.86C928.65 149.286 930.249 148.705 931.551 149.166C932.026 149.361 932.458 149.625 932.836 149.95L934.853 151.501C934.785 150.456 934.767 149.284 934.46 148.318Z" fill="#F50057"/>
<path d="M921.2 153.588C920.716 154.062 921.144 154.765 920.944 155.374C920.808 155.777 920.409 156.082 920.193 156.465C919.976 156.848 919.965 157.296 919.827 157.722C919.712 158.026 919.572 158.325 919.408 158.615C918.991 159.484 918.646 160.373 918.376 161.272L917.13 165.053C916.928 165.621 916.761 166.194 916.629 166.77C916.547 167.201 916.489 167.641 916.294 168.055C916.098 168.47 915.778 168.828 915.532 169.213C915.286 169.599 915.114 170.082 915.275 170.45C914.382 171.069 913.914 172.304 914.294 173.142C914.372 173.272 914.425 173.418 914.449 173.574C914.438 173.791 914.359 174.011 914.222 174.205L913.437 175.565C913.235 175.913 913.097 176.445 913.449 176.529C913.08 176.839 912.768 177.208 912.532 177.614C912.416 177.817 912.351 178.037 912.342 178.253C912.334 178.469 912.382 178.674 912.483 178.849C912.591 178.963 912.676 179.096 912.736 179.243C912.779 179.437 912.667 179.654 912.579 179.857C912.443 180.154 912.368 180.465 912.359 180.77C912.349 181.075 912.405 181.367 912.523 181.63C912.648 181.889 912.856 182.094 913.122 182.219C913.387 182.345 913.699 182.385 914.019 182.335C915.109 182.118 916.12 181.765 917.137 181.969C919.33 182.406 921.528 182.847 923.595 183.565C925.953 184.384 928.161 185.567 930.739 185.843C930.905 185.881 931.092 185.857 931.263 185.773C931.42 185.651 931.535 185.484 931.588 185.305L933.117 181.589C933.709 180.216 934.226 178.825 934.666 177.423C934.933 176.519 935.134 175.607 935.337 174.697L936.94 167.453C937.245 166.387 937.309 165.308 937.125 164.297L936.647 160.52C936.381 158.364 935.167 156.439 935.027 154.25C934.938 152.864 934.962 151.379 934.217 150.29C933.154 148.737 930.858 148.469 928.755 148.705C927.804 148.812 926.824 149.013 925.937 149.467C924.904 149.999 924.057 150.849 923.233 151.681C922.55 152.364 921.888 152.913 921.2 153.588Z" fill="#F50057"/>
<path d="M921.892 174.966C921.925 175.684 922.152 176.348 922.235 177.053C922.371 178.235 922.104 179.503 922.234 180.684C922.29 181.185 922.422 181.657 922.434 182.163C922.464 183.345 921.856 184.557 921.178 185.666C920.5 186.775 919.726 187.866 919.345 189.059C919.078 189.898 919.048 190.85 919.604 191.398C920.182 191.975 921.186 191.95 922.095 191.885C922.418 191.88 922.747 191.82 923.068 191.707C923.808 191.398 924.253 190.608 924.553 189.891C925.555 187.468 925.886 184.948 926.208 182.465L927.052 175.97C927.214 174.721 927.368 173.445 927.214 172.239C927.155 171.802 927.077 170.916 926.723 170.631C926.37 170.346 925.227 170.323 924.733 170.293C922.411 170.156 921.823 173.357 921.892 174.966Z" fill="#FBBEBE"/>
<path d="M929.092 151.04C928.662 150.79 928.041 150.887 927.527 151.155C927.012 151.424 926.581 151.834 926.16 152.239C924.89 153.46 923.526 154.864 923.373 156.455C923.316 157.052 923.439 157.624 923.486 158.2C923.689 160.744 922.41 163.417 921.991 166.043C921.75 167.56 921.8 169.056 921.85 170.546C921.86 170.848 921.894 171.199 922.18 171.306C922.389 171.384 922.651 171.289 922.879 171.21C923.762 170.922 924.669 170.834 925.521 170.953C926.374 171.072 927.148 171.395 927.778 171.895C928.389 171.613 928.35 170.695 928.349 170.089C928.325 168.292 929.182 166.449 930.122 164.728C931.062 163.006 932.122 161.29 932.576 159.466C933.088 157.397 932.777 155.369 932.463 153.401C932.394 152.971 932.316 152.521 932.022 152.227C931.765 152.006 931.452 151.848 931.103 151.764C930.422 151.53 929.702 151.397 929.092 151.04Z" fill="#3F3D56"/>
<path d="M940.765 212.124C940.765 212.124 944.8 217.683 949.67 216.245" stroke="#3F3D56" stroke-miterlimit="10"/>
<path d="M947.833 207.503C947.299 210.282 945.816 210.426 942.992 212.483C940.169 214.54 939.553 210.181 940.087 207.401C940.622 204.622 942.79 202.391 944.929 202.419C947.067 202.447 948.368 204.723 947.833 207.503Z" fill="#915766"/>
<path d="M861.835 208.957C862.328 208.327 862.658 207.609 862.791 206.877C863.154 204.991 862.26 203.448 860.787 203.428C859.314 203.409 857.833 204.921 857.471 206.807C857.322 207.539 857.375 208.262 857.624 208.902C857.138 209.535 856.808 210.251 856.668 210.981C856.527 211.712 856.58 212.433 856.821 213.076C856.334 213.709 856.005 214.425 855.865 215.156C855.724 215.886 855.777 216.607 856.018 217.25C855.531 217.883 855.202 218.599 855.061 219.33C854.921 220.061 854.974 220.782 855.215 221.424C854.722 222.054 854.392 222.772 854.258 223.504C853.896 225.39 854.789 226.935 856.261 226.954C857.732 226.973 859.216 225.459 859.579 223.574C859.727 222.842 859.674 222.119 859.426 221.479C859.911 220.847 860.24 220.132 860.38 219.402C860.521 218.672 860.468 217.952 860.228 217.31C860.714 216.677 861.044 215.961 861.184 215.23C861.325 214.499 861.272 213.778 861.031 213.136C861.517 212.503 861.847 211.787 861.987 211.056C862.128 210.325 862.075 209.604 861.834 208.962L861.835 208.957Z" fill="#3F3D56"/>
<path d="M860.269 206.085C861.738 206.104 863.223 204.59 863.586 202.704C863.949 200.818 863.052 199.273 861.583 199.254C860.115 199.235 858.63 200.748 858.267 202.635C857.904 204.521 858.8 206.065 860.269 206.085Z" fill="#3F3D56"/>
<path d="M861.072 201.91C862.541 201.93 864.026 200.416 864.389 198.53C864.752 196.644 863.855 195.099 862.386 195.08C860.918 195.061 859.433 196.574 859.07 198.46C858.707 200.346 859.603 201.891 861.072 201.91Z" fill="#3F3D56"/>
<path d="M857.267 169.801C856.991 169.342 856.752 168.86 856.551 168.358L863.759 167.323L856.187 167.279C855.76 165.723 855.687 164.042 855.973 162.339C856.259 160.637 856.897 158.949 857.848 157.378L866.997 162.67L858.943 155.802C860.104 154.327 861.531 153.049 863.135 152.047C864.739 151.045 866.485 150.341 868.265 149.979C870.045 149.617 871.82 149.604 873.48 149.942C875.14 150.28 876.649 150.961 877.913 151.943C879.177 152.924 880.169 154.185 880.827 155.648C881.485 157.11 881.794 158.742 881.737 160.442C881.679 162.141 881.255 163.872 880.492 165.527C879.728 167.181 878.641 168.724 877.298 170.058C877.73 170.771 878.07 171.541 878.313 172.356L868.348 176.871L878.635 173.813C878.935 175.792 878.698 177.898 877.945 179.943C877.192 181.987 875.946 183.904 874.322 185.522C875.446 187.384 875.941 189.61 875.748 191.945C875.556 194.281 874.685 196.631 873.234 198.727C871.784 200.823 869.812 202.581 867.546 203.799C865.279 205.017 862.809 205.646 860.417 205.615C858.026 205.583 855.809 204.893 854.022 203.622C852.234 202.35 850.947 200.55 850.309 198.427C849.67 196.303 849.705 193.942 850.41 191.614C851.115 189.285 852.461 187.083 854.295 185.26C852.952 183.034 852.515 180.3 853.054 177.498C853.593 174.696 855.077 171.987 857.268 169.808L857.267 169.801Z" fill="#57B894"/>
<path opacity="0.1" d="M878.544 177.825C878.008 180.628 876.523 183.338 874.33 185.515C875.454 187.378 875.949 189.604 875.756 191.939C875.564 194.274 874.693 196.624 873.242 198.72C871.792 200.817 869.82 202.574 867.554 203.792C865.287 205.01 862.817 205.64 860.425 205.608C858.034 205.577 855.817 204.886 854.03 203.615C852.242 202.344 850.955 200.544 850.317 198.42C849.678 196.297 849.713 193.936 850.418 191.607C851.123 189.279 852.469 187.077 854.303 185.253C852.996 183.104 878.813 176.422 878.544 177.825Z" fill="black"/>
</g>
<path d="M875.015 307.04L878.722 307.088L880.79 296.342L891.049 296.476L888.982 307.223L892.689 307.271L897.178 283.939L893.47 283.891L891.682 293.188L881.423 293.054L883.211 283.756L879.504 283.708L875.015 307.04ZM913.096 300.025C913.369 299.355 913.59 298.578 913.767 297.659C914.679 292.922 912.368 289.738 908.049 289.681C903.369 289.62 899.3 293.323 898.273 298.661C897.233 304.07 899.916 307.756 904.92 307.821C907.475 307.855 909.826 306.893 911.891 304.971L910.347 302.683C908.829 304.009 907.259 304.662 905.64 304.641C902.94 304.606 901.525 302.957 901.721 299.876L913.096 300.025ZM902.294 297.084C903.234 294.261 905.081 292.726 907.385 292.756C909.581 292.785 910.859 294.396 910.321 297.189L902.294 297.084ZM915.682 307.572L919.354 307.62L924.455 281.107L920.783 281.059L915.682 307.572ZM924.119 307.683L927.791 307.731L932.891 281.217L929.22 281.169L924.119 307.683ZM933.293 299.084C932.266 304.423 934.965 308.215 939.716 308.277C944.504 308.339 948.644 304.637 949.671 299.299C950.692 293.996 947.993 290.204 943.205 290.141C938.454 290.079 934.327 293.711 933.293 299.084ZM945.957 299.286C945.277 302.821 943.084 305.025 940.349 304.989C937.613 304.953 936.307 302.739 936.994 299.168C937.681 295.598 939.873 293.394 942.609 293.43C945.308 293.465 946.644 295.715 945.957 299.286ZM884.23 328.071L876.117 343.417L873.27 327.644L871.794 327.624L862.929 343.315L860.76 327.763L856.729 327.711L860.393 351.433L861.905 351.453L871.033 335.518L874 351.611L875.475 351.63L888.262 328.123L884.23 328.071ZM885.947 342.766C884.92 348.104 887.619 351.896 892.37 351.958C897.158 352.021 901.298 348.318 902.325 342.98C903.346 337.677 900.647 333.885 895.859 333.822C891.108 333.76 886.981 337.392 885.947 342.766ZM898.611 342.967C897.931 346.502 895.739 348.706 893.003 348.67C890.267 348.634 888.961 346.42 889.648 342.849C890.335 339.279 892.527 337.075 895.263 337.111C897.963 337.146 899.298 339.396 898.611 342.967ZM917.136 334.491C916.725 334.379 916.306 334.303 915.874 334.297C914.003 334.273 912.118 335.063 910.796 336.499L911.197 334.413L907.813 334.369L904.474 351.726L908.145 351.775L910.029 341.982C910.553 339.26 912.688 337.729 915.388 337.764L916.504 337.779L917.136 334.491ZM916.742 351.887L920.414 351.935L925.515 325.421L921.843 325.373L916.742 351.887ZM941.835 325.635L939.72 336.629C938.84 335.2 937.196 334.364 935.145 334.337C930.681 334.278 926.957 337.88 925.909 343.324C924.869 348.733 927.192 352.414 931.656 352.472C933.959 352.502 936.008 351.608 937.444 349.961L937.022 352.153L940.406 352.197L945.507 325.683L941.835 325.635ZM938.436 343.488C937.695 347.341 935.528 349.227 932.972 349.193C930.272 349.158 928.923 346.979 929.624 343.337C930.311 339.767 932.496 337.598 935.196 337.633C937.752 337.667 939.178 339.635 938.436 343.488ZM948.233 344.467L951.221 344.506L954.89 328.996L950.535 328.939L948.233 344.467ZM946 350.073C945.707 351.593 946.619 352.668 948.167 352.688C949.607 352.707 950.963 351.662 951.255 350.142C951.534 348.692 950.6 347.546 949.16 347.527C947.612 347.507 946.278 348.623 946 350.073Z" fill="#F47D7D"/>
<rect width="136.286" height="30.5615" rx="15.2808" transform="matrix(0.999914 0.0130896 -0.188924 0.981992 842.254 309.435)" fill="#FB8888"/>
<rect width="136.286" height="30.5616" rx="15.2808" transform="matrix(0.999914 0.0130896 -0.188924 0.981992 832.998 357.547)" fill="#FB8888"/>
<path d="M871.935 335.384C872.537 337.637 874.212 338.935 876.731 338.967C879.611 339.005 882.025 337.336 882.529 334.72C882.896 332.811 882.052 331.571 879.905 330.102L878.493 329.185C877.216 328.318 876.76 327.816 876.941 326.873C877.163 325.718 878.202 325.07 879.474 325.087C880.698 325.103 881.531 325.775 881.977 327.081L884.062 325.998C883.542 324.077 882.08 322.924 879.872 322.895C877.208 322.86 874.879 324.46 874.412 326.887C874.054 328.749 874.979 329.943 876.929 331.315L878.321 332.207C879.743 333.195 880.199 333.697 880 334.734C879.76 335.983 878.641 336.795 877.129 336.775C875.617 336.756 874.6 335.915 874.025 334.278L871.935 335.384ZM884.384 338.808L886.831 338.84L889.058 327.268L886.61 327.236L884.384 338.808ZM887.003 322.941C886.835 323.813 887.419 324.529 888.355 324.542C889.291 324.554 890.147 323.856 890.315 322.984C890.483 322.112 889.903 321.372 888.967 321.36C888.031 321.348 887.18 322.022 887.003 322.941ZM900.178 327.414L899.892 328.898C899.361 327.781 898.212 327.128 896.652 327.108C893.724 327.069 891.273 329.305 890.593 332.841C889.922 336.329 891.493 338.665 894.421 338.703C895.861 338.722 897.132 338.242 898.081 337.31L897.859 338.464C897.501 340.326 896.159 341.301 894.335 341.277C892.967 341.259 892.063 340.704 891.187 339.629L889.424 341.166C890.411 342.667 891.974 343.42 894.062 343.447C897.253 343.489 899.675 341.654 900.297 338.425L902.409 327.443L900.178 327.414ZM898.944 332.95C898.477 335.377 897.037 336.611 895.333 336.588C893.581 336.565 892.625 335.159 893.065 332.873C893.504 330.587 894.943 329.235 896.743 329.259C898.447 329.281 899.411 330.522 898.944 332.95ZM914.238 331.567C914.728 329.022 913.538 327.329 911.066 327.296C909.746 327.279 908.552 327.736 907.649 328.551L907.848 327.514L905.593 327.484L903.366 339.056L905.814 339.088L907.224 331.759C907.483 330.415 908.633 329.438 909.977 329.456C911.321 329.473 912.027 330.428 911.76 331.818L910.35 339.148L912.773 339.179L914.238 331.567ZM922.048 339.301L924.52 339.333L927.512 323.778L925.04 323.746L922.048 339.301ZM938.634 331.886C939.124 329.341 937.934 327.648 935.462 327.616C934.142 327.598 932.948 328.055 932.045 328.87L932.245 327.833L929.989 327.804L927.763 339.376L930.21 339.408L931.621 332.078C931.879 330.735 933.029 329.757 934.373 329.775C935.717 329.793 936.424 330.747 936.156 332.137L934.746 339.467L937.17 339.499L938.634 331.886Z" fill="white"/>
<path fill-rule="evenodd" clip-rule="evenodd" d="M905.203 32.7916C905.187 32.8708 905.17 32.9502 905.155 33.0298C903.915 39.4755 908.23 44.7704 914.794 44.8563L1007.9 46.0752C1014.47 46.1611 1020.79 41.0055 1022.03 34.5598C1022.05 34.4802 1022.06 34.4008 1022.07 34.3215L1023.79 34.344C1045.88 34.6331 1060.4 52.4536 1056.23 74.1472L989.224 422.414C985.051 444.107 963.76 461.459 941.671 461.17L820.889 459.589C798.8 459.299 784.276 441.479 788.45 419.785L855.452 71.5189C859.626 49.8253 880.916 32.4737 903.006 32.7628L905.203 32.7916Z" fill="white"/>
<path d="M904.392 192.673C905.514 186.84 902.034 181.854 896.257 181.072C892.839 188.564 891.32 196.459 891.845 204.003C897.893 203.377 903.265 198.532 904.392 192.673Z" fill="#E43D30"/>
<path d="M911.923 189.142C909.876 189.115 907.902 190.702 907.515 192.714C907.128 194.725 908.452 196.381 910.5 196.408C912.548 196.435 914.521 194.847 914.908 192.836C914.908 192.836 914.908 192.836 914.913 192.811C915.321 190.825 913.971 189.169 911.923 189.142Z" fill="#E43D30"/>
<path d="M962.217 193.43C961.094 199.263 964.575 204.249 970.352 205.031C973.77 197.539 975.289 189.644 974.764 182.1C968.711 182.751 963.339 187.597 962.217 193.43Z" fill="#E43D30"/>
<path d="M956.053 189.72C954.01 189.668 952.037 191.255 951.624 193.266C951.212 195.277 952.536 196.933 954.579 196.985C956.622 197.037 958.595 195.45 959.008 193.439C959.012 193.413 959.012 193.413 959.017 193.388C959.399 191.402 958.071 189.771 956.053 189.72Z" fill="#E43D30"/>
<path d="M927.734 221.539C921.796 221.461 915.942 225.745 914.107 231.544C921.389 233.58 929.426 233.685 937.452 231.849C937.853 226.032 933.673 221.616 927.734 221.539Z" fill="#E43D30"/>
<path d="M929.722 211.204C927.675 211.178 925.701 212.765 925.314 214.776C924.927 216.788 926.251 218.444 928.299 218.471C930.347 218.497 932.32 216.91 932.707 214.898C932.707 214.898 932.707 214.898 932.712 214.873C933.094 212.887 931.77 211.231 929.722 211.204Z" fill="#E43D30"/>
<path d="M938.662 164.739C944.6 164.816 950.454 160.532 952.288 154.733C945.007 152.697 936.97 152.592 928.944 154.428C928.543 160.245 932.723 164.661 938.662 164.739Z" fill="#E43D30"/>
<path d="M938.067 167.831C936.019 167.804 934.066 169.417 933.684 171.403C933.297 173.415 934.652 175.046 936.674 175.072C938.696 175.099 940.674 173.486 941.056 171.5C941.439 169.514 940.115 167.858 938.067 167.831Z" fill="#E43D30"/>
<path d="M949.823 213.433C944.832 217.502 943.164 224.034 945.94 228.683C953.508 224.825 960.265 219.317 965.57 212.682C961.568 209.075 954.809 209.39 949.823 213.433Z" fill="#E43D30"/>
<path d="M943.782 206.019C942.077 207.409 941.632 209.722 942.795 211.149C943.958 212.576 946.313 212.606 948.017 211.217C949.721 209.828 950.166 207.515 949.004 206.088C947.841 204.661 945.486 204.63 943.782 206.019Z" fill="#E43D30"/>
<path d="M916.669 172.744C921.66 168.675 923.328 162.143 920.578 157.494C913.01 161.352 906.253 166.86 900.948 173.496C904.919 177.127 911.678 176.812 916.669 172.744Z" fill="#E43D30"/>
<path d="M918.475 174.96C916.771 176.35 916.326 178.663 917.488 180.09C918.651 181.516 921.006 181.547 922.71 180.158C924.415 178.769 924.86 176.455 923.697 175.029C922.535 173.602 920.18 173.571 918.475 174.96Z" fill="#E43D30"/>
<path d="M957.532 173.228C960.937 177.407 967.541 177.897 972.886 174.387C970.154 167.646 965.545 161.99 959.496 157.953C954.976 162.507 954.128 169.05 957.532 173.228Z" fill="#E43D30"/>
<path d="M953.893 180.541C955.597 179.152 956.068 176.839 954.88 175.412C953.717 173.985 951.367 173.929 949.658 175.343C947.953 176.733 947.483 179.046 948.671 180.473C949.834 181.899 952.189 181.93 953.893 180.541Z" fill="#E43D30"/>
<path d="M908.923 212.873C905.518 208.694 898.94 208.205 893.569 211.714C896.301 218.455 900.884 224.111 906.934 228.148C911.454 223.594 912.328 217.052 908.923 212.873Z" fill="#E43D30"/>
<path d="M912.563 205.56C910.858 206.949 910.413 209.262 911.576 210.689C912.738 212.116 915.093 212.147 916.798 210.758C918.502 209.368 918.947 207.055 917.784 205.628C916.622 204.201 914.293 204.171 912.563 205.56Z" fill="#E43D30"/>
<path d="M850.771 277.978C844.883 277.901 839.775 274.305 841.638 264.625C843.5 254.944 849.953 251.55 855.84 251.627C859.449 251.675 861.79 252.714 863.775 255.336L859.503 258.733C858.208 256.927 857.028 256.256 854.955 256.229C853.07 256.154 851.093 256.96 849.656 258.428C848.254 259.846 847.496 261.651 846.921 264.644C846.345 267.636 846.392 269.527 847.247 270.95C848.113 272.448 849.766 273.327 851.67 273.301C853.744 273.329 855.175 272.692 857.157 270.928L860.082 274.395C857.453 276.856 854.023 278.147 850.771 277.978Z" fill="#A6A8AB"/>
<path d="M879.754 278.055L880.204 275.717C877.921 277.577 875.954 278.333 872.703 278.29C869.452 278.248 867.447 277.465 866.113 275.86C865.021 274.333 864.661 272.337 865.104 270.301C865.936 265.976 869.577 262.924 875.567 263.002L882.478 263.092L882.832 261.257C883.456 258.013 882.122 256.408 878.027 256.354C875.134 256.316 873.6 256.952 871.814 258.768L868.973 255.53C872.002 252.721 874.752 251.9 879.078 251.957C886.271 252.051 889.33 255.091 888.208 260.924L884.894 278.147L879.754 278.055ZM881.838 266.689L875.695 266.608C872.597 266.568 870.698 267.904 870.248 270.242C869.798 272.581 871.057 273.908 874.359 273.951C876.381 273.978 877.895 273.846 879.559 272.532C880.472 271.788 881.067 270.56 881.416 268.75L881.838 266.689Z" fill="#A6A8AB"/>
<path d="M909.549 278.445L912.568 262.755C913.332 258.783 911.341 256.992 908.398 256.954C905.454 256.915 902.653 258.668 901.894 262.616L898.875 278.305L893.576 278.236L898.53 252.489L903.701 252.557L903.197 255.171C905.378 253.309 908.115 252.287 910.742 252.371C913.137 252.327 915.307 253.187 916.743 254.794C918.392 256.757 918.537 259.204 917.981 262.095L914.817 278.539L909.549 278.445Z" fill="#A6A8AB"/>
<path d="M933.56 278.759L929.259 278.703L924.614 252.83L930.194 252.903L932.901 271.113L942.532 253.065L948.112 253.138L933.56 278.759Z" fill="#A6A8AB"/>
<path d="M962.178 279.134L962.628 276.795C960.345 278.656 958.403 279.412 955.127 279.369C951.85 279.326 949.871 278.544 948.537 276.938C947.445 275.412 947.085 273.416 947.528 271.38C948.36 267.055 952.001 264.002 957.991 264.081L964.928 264.171L965.281 262.336C965.905 259.092 964.546 257.486 960.476 257.433C957.583 257.395 956.075 258.031 954.263 259.847L951.422 256.609C954.452 253.8 957.201 252.979 961.553 253.036C968.746 253.13 971.805 256.17 970.683 262.003L967.369 279.227L962.178 279.134ZM964.262 267.767L958.118 267.687C955.021 267.646 953.147 268.983 952.697 271.321C952.247 273.66 953.481 274.987 956.808 275.03C958.83 275.057 960.344 274.925 962.008 273.611C962.921 272.867 963.517 271.639 963.865 269.829L964.262 267.767Z" fill="#A6A8AB"/>
<path d="M983.596 279.717C979.296 279.66 975.822 278.909 973.3 275.877L977.409 272.527C979.122 274.692 981.857 275.283 984.443 275.317C987.642 275.358 990.389 274.285 990.858 271.846C991.192 270.111 990.432 268.992 987.937 268.758L983.832 268.351C978.995 267.885 976.574 265.66 977.445 261.134C978.413 256.105 983.336 253.321 988.84 253.394C992.756 253.445 995.98 254.294 998.011 256.412L994.07 259.688C992.672 258.283 990.44 257.75 987.982 257.718C984.834 257.677 982.986 259.014 982.608 260.975C982.318 262.484 982.915 263.651 985.651 263.964L989.731 264.37C994.568 264.837 997.02 267.163 996.14 271.739C995.037 277.069 989.842 279.799 983.596 279.717Z" fill="#A6A8AB"/>
<path d="M124.219 189.25C122.302 193.396 119.406 195.469 115.531 195.469C113.906 195.469 112.51 195.125 111.344 194.438C110.156 193.854 109.198 193.094 108.469 192.156C107.573 191.177 106.979 189.896 106.688 188.312C106.354 186.729 106.188 183.698 106.188 179.219C106.188 174.74 106.354 171.688 106.688 170.062C106.979 168.521 107.573 167.26 108.469 166.281C109.198 165.344 110.156 164.562 111.344 163.938C112.51 163.333 113.906 163.01 115.531 162.969C117.74 163.01 119.615 163.646 121.156 164.875C122.635 166.167 123.656 167.729 124.219 169.562H131.531C130.802 165.75 129.052 162.552 126.281 159.969C123.51 157.406 119.927 156.104 115.531 156.062C111.948 156.104 108.958 156.958 106.562 158.625C104.125 160.271 102.354 162.146 101.25 164.25C100.562 165.354 100.052 166.802 99.7188 168.594C99.4062 170.385 99.25 173.927 99.25 179.219C99.25 184.427 99.4062 187.948 99.7188 189.781C99.8854 190.76 100.094 191.573 100.344 192.219C100.615 192.844 100.917 193.5 101.25 194.188C102.354 196.292 104.125 198.146 106.562 199.75C108.958 201.417 111.948 202.292 115.531 202.375C119.49 202.375 122.917 201.25 125.812 199C128.625 196.729 130.531 193.479 131.531 189.25H124.219ZM152.875 202H159.406V179.844C159.365 175.885 158.125 173.094 155.688 171.469C153.25 169.885 149.99 169.115 145.906 169.156C141.073 169.073 137.417 170.656 134.938 173.906L140.062 177.812C140.625 176.875 141.396 176.208 142.375 175.812C143.312 175.479 144.594 175.312 146.219 175.312C150.698 175.229 152.917 176.615 152.875 179.469V182.875H143.844C140.385 182.917 137.76 183.854 135.969 185.688C134.177 187.479 133.281 189.74 133.281 192.469C133.281 195.323 134.312 197.667 136.375 199.5C138.333 201.375 141.125 202.333 144.75 202.375C146.958 202.375 148.688 202.104 149.938 201.562C151.208 201.042 152.146 200.229 152.75 199.125H152.875V202ZM152.875 190.594C152.875 193.031 152.365 194.594 151.344 195.281C150.219 195.969 148.292 196.292 145.562 196.25C143.396 196.25 141.844 195.823 140.906 194.969C139.927 194.198 139.438 193.26 139.438 192.156C139.396 189.635 141.271 188.333 145.062 188.25H152.875V190.594ZM167.844 202H174.375V182.688C174.375 180.417 174.99 178.688 176.219 177.5C177.427 176.292 178.969 175.688 180.844 175.688C182.719 175.688 184.25 176.292 185.438 177.5C186.646 178.688 187.25 180.417 187.25 182.688V202H193.781V180.438C193.677 176.729 192.521 173.917 190.312 172C188.083 170.104 185.625 169.156 182.938 169.156C179.458 169.156 176.646 170.438 174.5 173H174.375V169.562H167.844V202ZM209.531 202H214.906L226.812 169.562H219.875L212.281 192.281H212.156L204.531 169.562H197.625L209.531 202ZM247.688 202H254.219V179.844C254.177 175.885 252.938 173.094 250.5 171.469C248.062 169.885 244.802 169.115 240.719 169.156C235.885 169.073 232.229 170.656 229.75 173.906L234.875 177.812C235.438 176.875 236.208 176.208 237.188 175.812C238.125 175.479 239.406 175.312 241.031 175.312C245.51 175.229 247.729 176.615 247.688 179.469V182.875H238.656C235.198 182.917 232.573 183.854 230.781 185.688C228.99 187.479 228.094 189.74 228.094 192.469C228.094 195.323 229.125 197.667 231.188 199.5C233.146 201.375 235.938 202.333 239.562 202.375C241.771 202.375 243.5 202.104 244.75 201.562C246.021 201.042 246.958 200.229 247.562 199.125H247.688V202ZM247.688 190.594C247.688 193.031 247.177 194.594 246.156 195.281C245.031 195.969 243.104 196.292 240.375 196.25C238.208 196.25 236.656 195.823 235.719 194.969C234.74 194.198 234.25 193.26 234.25 192.156C234.208 189.635 236.083 188.333 239.875 188.25H247.688V190.594ZM263.625 192.094L259.062 196.562C263.292 200.438 268.052 202.375 273.344 202.375C277.24 202.333 280.438 201.438 282.938 199.688C285.458 197.979 286.74 195.552 286.781 192.406C286.781 189.719 286.083 187.5 284.688 185.75C283.188 183.958 280.75 182.938 277.375 182.688L272 182.281C270.417 182.115 269.312 181.729 268.688 181.125C268 180.583 267.677 179.948 267.719 179.219C267.719 178.073 268.146 177.135 269 176.406C269.812 175.677 271.24 175.312 273.281 175.312C275.073 175.312 276.656 175.573 278.031 176.094C279.427 176.677 280.75 177.417 282 178.312L286.031 173.594C284.448 172.219 282.656 171.125 280.656 170.312C279.615 169.938 278.5 169.646 277.312 169.438C276.125 169.25 274.781 169.156 273.281 169.156C269.823 169.156 266.969 169.99 264.719 171.656C262.406 173.323 261.229 175.823 261.188 179.156C261.229 181.927 262.125 184.083 263.875 185.625C265.583 187.208 267.802 188.125 270.531 188.375L276.281 188.875C277.49 188.917 278.458 189.177 279.188 189.656C279.896 190.115 280.25 190.927 280.25 192.094C280.25 193.406 279.656 194.427 278.469 195.156C277.281 195.885 275.75 196.25 273.875 196.25C269.688 196.25 266.271 194.865 263.625 192.094ZM317.438 185.688L324.031 165.781H324.156L330.75 185.688H317.438ZM336.25 202H343.531L326.969 156.438H321.188L304.625 202H311.938L315.438 191.812H332.719L336.25 202ZM347.844 215.125H354.375V198.531C355.562 199.698 356.865 200.615 358.281 201.281C359.594 202.01 361.083 202.375 362.75 202.375C364.771 202.333 366.5 201.927 367.938 201.156C369.396 200.406 370.573 199.406 371.469 198.156C372.365 197.094 372.979 195.729 373.312 194.062C373.625 192.396 373.781 189.646 373.781 185.812C373.781 181.875 373.625 179.083 373.312 177.438C372.979 175.771 372.365 174.427 371.469 173.406C369.635 170.677 366.729 169.26 362.75 169.156C359.333 169.26 356.542 170.521 354.375 172.938V169.562H347.844V215.125ZM360.781 195.844C359.323 195.844 358.167 195.531 357.312 194.906C356.417 194.302 355.76 193.51 355.344 192.531C354.948 191.552 354.688 190.458 354.562 189.25C354.438 188.104 354.375 186.958 354.375 185.812C354.375 184.583 354.438 183.365 354.562 182.156C354.688 181.01 354.948 179.948 355.344 178.969C355.76 177.99 356.417 177.198 357.312 176.594C358.167 175.99 359.323 175.688 360.781 175.688C362.323 175.688 363.542 175.948 364.438 176.469C365.333 177.031 365.969 177.802 366.344 178.781C366.76 179.719 367.042 180.802 367.188 182.031C367.229 183.26 367.25 184.521 367.25 185.812C367.25 187.042 367.229 188.24 367.188 189.406C367.042 190.594 366.76 191.677 366.344 192.656C365.969 193.594 365.333 194.365 364.438 194.969C363.542 195.552 362.323 195.844 360.781 195.844ZM381.094 215.125H387.625V198.531C388.812 199.698 390.115 200.615 391.531 201.281C392.844 202.01 394.333 202.375 396 202.375C398.021 202.333 399.75 201.927 401.188 201.156C402.646 200.406 403.823 199.406 404.719 198.156C405.615 197.094 406.229 195.729 406.562 194.062C406.875 192.396 407.031 189.646 407.031 185.812C407.031 181.875 406.875 179.083 406.562 177.438C406.229 175.771 405.615 174.427 404.719 173.406C402.885 170.677 399.979 169.26 396 169.156C392.583 169.26 389.792 170.521 387.625 172.938V169.562H381.094V215.125ZM394.031 195.844C392.573 195.844 391.417 195.531 390.562 194.906C389.667 194.302 389.01 193.51 388.594 192.531C388.198 191.552 387.938 190.458 387.812 189.25C387.688 188.104 387.625 186.958 387.625 185.812C387.625 184.583 387.688 183.365 387.812 182.156C387.938 181.01 388.198 179.948 388.594 178.969C389.01 177.99 389.667 177.198 390.562 176.594C391.417 175.99 392.573 175.688 394.031 175.688C395.573 175.688 396.792 175.948 397.688 176.469C398.583 177.031 399.219 177.802 399.594 178.781C400.01 179.719 400.292 180.802 400.438 182.031C400.479 183.26 400.5 184.521 400.5 185.812C400.5 187.042 400.479 188.24 400.438 189.406C400.292 190.594 400.01 191.677 399.594 192.656C399.219 193.594 398.583 194.365 397.688 194.969C396.792 195.552 395.573 195.844 394.031 195.844ZM100.812 277H107.719V257.531H126.656V251.406H107.719V237.969H129.906V231.438H100.812V277ZM134.594 269.125C134.594 271.979 135.406 274.01 137.031 275.219C138.573 276.406 140.531 277 142.906 277H145.812V270.844H143.562C141.938 270.844 141.125 270.104 141.125 268.625V231.438H134.594V269.125ZM149.5 260.75C149.5 264.167 149.781 266.771 150.344 268.562C150.927 270.354 151.823 271.906 153.031 273.219C153.927 274.24 155.177 275.156 156.781 275.969C158.365 276.865 160.396 277.333 162.875 277.375C165.438 277.333 167.51 276.865 169.094 275.969C169.948 275.594 170.646 275.146 171.188 274.625C171.792 274.167 172.302 273.698 172.719 273.219C174.01 271.906 174.927 270.354 175.469 268.562C175.99 266.771 176.25 264.167 176.25 260.75C176.25 257.333 175.99 254.708 175.469 252.875C174.927 251.083 174.01 249.573 172.719 248.344C171.865 247.26 170.656 246.292 169.094 245.438C167.51 244.625 165.438 244.198 162.875 244.156C160.396 244.198 158.365 244.625 156.781 245.438C155.177 246.292 153.927 247.26 153.031 248.344C151.823 249.573 150.927 251.083 150.344 252.875C149.781 254.708 149.5 257.333 149.5 260.75ZM169.719 260.812C169.719 263.021 169.615 264.646 169.406 265.688C169.198 266.75 168.771 267.688 168.125 268.5C167.646 269.125 166.938 269.677 166 270.156C165.104 270.615 164.062 270.844 162.875 270.844C161.771 270.844 160.75 270.615 159.812 270.156C158.917 269.677 158.188 269.125 157.625 268.5C157.062 267.688 156.656 266.75 156.406 265.688C156.156 264.646 156.031 263 156.031 260.75C156.031 258.479 156.156 256.812 156.406 255.75C156.656 254.729 157.062 253.833 157.625 253.062C158.188 252.333 158.917 251.76 159.812 251.344C160.75 250.906 161.771 250.688 162.875 250.688C164.062 250.688 165.104 250.906 166 251.344C166.938 251.76 167.646 252.333 168.125 253.062C168.771 253.833 169.198 254.729 169.406 255.75C169.615 256.812 169.719 258.5 169.719 260.812ZM208.812 277H214.594L224.938 244.562H218.031L211.844 267.281H211.719L204.344 244.562H199.625L192.25 267.281H192.125L185.906 244.562H179L189.375 277H195.125L201.906 254.281H202.031L208.812 277ZM252.219 237.594H263.031C265.24 237.594 266.927 238.062 268.094 239C269.573 240.062 270.333 241.781 270.375 244.156C270.375 246.135 269.74 247.802 268.469 249.156C267.177 250.615 265.24 251.365 262.656 251.406H252.219V237.594ZM245.312 277H252.219V257.531H261.031L270.438 277H278.656L268.094 256.781C273.885 254.552 276.823 250.344 276.906 244.156C276.781 239.948 275.271 236.708 272.375 234.438C269.979 232.438 266.885 231.438 263.094 231.438H245.312V277ZM308.938 263.25V257.875C308.896 253.604 307.573 250.25 304.969 247.812C302.406 245.417 299.271 244.198 295.562 244.156C294.021 244.156 292.458 244.438 290.875 245C289.271 245.562 287.823 246.479 286.531 247.75C285.26 249 284.219 250.708 283.406 252.875C282.594 255 282.188 257.667 282.188 260.875C282.188 264.208 282.656 266.917 283.594 269C284.448 271.167 285.562 272.854 286.938 274.062C287.646 274.646 288.406 275.135 289.219 275.531C289.99 275.99 290.781 276.354 291.594 276.625C293.219 277.125 294.885 277.375 296.594 277.375C301.073 277.417 304.969 275.667 308.281 272.125L303.562 268.094C301.479 270.198 299.115 271.25 296.469 271.25C294.198 271.25 292.365 270.562 290.969 269.188C289.469 267.833 288.719 265.854 288.719 263.25H308.938ZM288.719 257.875C288.844 255.354 289.521 253.448 290.75 252.156C292 250.927 293.604 250.312 295.562 250.312C297.521 250.312 299.125 250.927 300.375 252.156C301.646 253.448 302.323 255.354 302.406 257.875H288.719ZM335.188 273.594V277H341.719V231.438H335.188V248C333.979 246.854 332.719 245.917 331.406 245.188C329.99 244.5 328.448 244.156 326.781 244.156C322.823 244.26 319.927 245.677 318.094 248.406C317.198 249.427 316.604 250.771 316.312 252.438C315.958 254.083 315.781 256.854 315.781 260.75C315.781 264.583 315.958 267.333 316.312 269C316.604 270.75 317.198 272.135 318.094 273.156C319.073 274.406 320.292 275.406 321.75 276.156C323.146 276.927 324.823 277.333 326.781 277.375C330.24 277.292 333.042 276.031 335.188 273.594ZM328.781 250.688C330.323 250.688 331.542 250.99 332.438 251.594C333.333 252.198 333.948 252.99 334.281 253.969C334.698 254.948 334.979 256.01 335.125 257.156C335.167 258.302 335.188 259.5 335.188 260.75C335.188 261.896 335.167 263.062 335.125 264.25C334.979 265.458 334.698 266.552 334.281 267.531C333.948 268.51 333.333 269.302 332.438 269.906C331.542 270.531 330.323 270.844 328.781 270.844C327.24 270.844 326.062 270.552 325.25 269.969C324.354 269.365 323.698 268.594 323.281 267.656C322.885 266.677 322.625 265.573 322.5 264.344C322.375 263.177 322.312 261.979 322.312 260.75C322.312 259.458 322.375 258.198 322.5 256.969C322.625 255.823 322.885 254.76 323.281 253.781C323.698 252.802 324.354 252.031 325.25 251.469C326.062 250.948 327.24 250.688 328.781 250.688ZM374.188 263.25V257.875C374.146 253.604 372.823 250.25 370.219 247.812C367.656 245.417 364.521 244.198 360.812 244.156C359.271 244.156 357.708 244.438 356.125 245C354.521 245.562 353.073 246.479 351.781 247.75C350.51 249 349.469 250.708 348.656 252.875C347.844 255 347.438 257.667 347.438 260.875C347.438 264.208 347.906 266.917 348.844 269C349.698 271.167 350.812 272.854 352.188 274.062C352.896 274.646 353.656 275.135 354.469 275.531C355.24 275.99 356.031 276.354 356.844 276.625C358.469 277.125 360.135 277.375 361.844 277.375C366.323 277.417 370.219 275.667 373.531 272.125L368.812 268.094C366.729 270.198 364.365 271.25 361.719 271.25C359.448 271.25 357.615 270.562 356.219 269.188C354.719 267.833 353.969 265.854 353.969 263.25H374.188ZM353.969 257.875C354.094 255.354 354.771 253.448 356 252.156C357.25 250.927 358.854 250.312 360.812 250.312C362.771 250.312 364.375 250.927 365.625 252.156C366.896 253.448 367.573 255.354 367.656 257.875H353.969ZM382 267.094L377.438 271.562C381.667 275.438 386.427 277.375 391.719 277.375C395.615 277.333 398.812 276.438 401.312 274.688C403.833 272.979 405.115 270.552 405.156 267.406C405.156 264.719 404.458 262.5 403.062 260.75C401.562 258.958 399.125 257.938 395.75 257.688L390.375 257.281C388.792 257.115 387.688 256.729 387.062 256.125C386.375 255.583 386.052 254.948 386.094 254.219C386.094 253.073 386.521 252.135 387.375 251.406C388.188 250.677 389.615 250.312 391.656 250.312C393.448 250.312 395.031 250.573 396.406 251.094C397.802 251.677 399.125 252.417 400.375 253.312L404.406 248.594C402.823 247.219 401.031 246.125 399.031 245.312C397.99 244.938 396.875 244.646 395.688 244.438C394.5 244.25 393.156 244.156 391.656 244.156C388.198 244.156 385.344 244.99 383.094 246.656C380.781 248.323 379.604 250.823 379.562 254.156C379.604 256.927 380.5 259.083 382.25 260.625C383.958 262.208 386.177 263.125 388.906 263.375L394.656 263.875C395.865 263.917 396.833 264.177 397.562 264.656C398.271 265.115 398.625 265.927 398.625 267.094C398.625 268.406 398.031 269.427 396.844 270.156C395.656 270.885 394.125 271.25 392.25 271.25C388.062 271.25 384.646 269.865 382 267.094ZM411.969 277H418.5V244.562H411.969V277ZM411.969 237.969H418.5V231.438H411.969V237.969ZM445.406 273.594V276.938C445.365 279.146 444.677 280.875 443.344 282.125C441.99 283.354 440.198 283.969 437.969 283.969C436.781 283.927 435.635 283.604 434.531 283C433.448 282.458 432.49 281.802 431.656 281.031L426.594 285.062C429.698 288.604 433.448 290.417 437.844 290.5C441.677 290.5 444.969 289.323 447.719 286.969C450.448 284.677 451.854 281.094 451.938 276.219V244.562H445.406V248C443.052 245.438 440.26 244.156 437.031 244.156C434.927 244.198 433.177 244.604 431.781 245.375C430.323 246.188 429.208 247.104 428.438 248.125C427.583 249.167 426.969 250.448 426.594 251.969C426.198 253.51 426 256.458 426 260.812C426 265.083 426.198 267.979 426.594 269.5C426.969 271.042 427.583 272.344 428.438 273.406C429.208 274.344 430.323 275.219 431.781 276.031C433.177 276.885 434.927 277.333 437.031 277.375C440.469 277.292 443.26 276.031 445.406 273.594ZM432.531 260.812C432.531 258.292 432.615 256.542 432.781 255.562C432.927 254.583 433.271 253.792 433.812 253.188C434.25 252.604 434.917 252.031 435.812 251.469C436.667 250.99 437.729 250.729 439 250.688C440.271 250.729 441.333 250.99 442.188 251.469C443.042 252.031 443.688 252.604 444.125 253.188C444.667 253.792 445.031 254.583 445.219 255.562C445.344 256.542 445.406 258.292 445.406 260.812C445.406 263.292 445.344 265 445.219 265.938C445.031 266.917 444.667 267.729 444.125 268.375C443.688 268.958 443.042 269.49 442.188 269.969C441.333 270.552 440.271 270.844 439 270.844C437.729 270.844 436.667 270.552 435.812 269.969C434.917 269.49 434.25 268.958 433.812 268.375C433.271 267.729 432.927 266.917 432.781 265.938C432.615 265 432.531 263.292 432.531 260.812ZM460.406 277H466.938V257.688C466.938 255.417 467.552 253.688 468.781 252.5C469.99 251.292 471.531 250.688 473.406 250.688C475.281 250.688 476.812 251.292 478 252.5C479.208 253.688 479.812 255.417 479.812 257.688V277H486.344V255.438C486.24 251.729 485.083 248.917 482.875 247C480.646 245.104 478.188 244.156 475.5 244.156C472.021 244.156 469.208 245.438 467.062 248H466.938V244.562H460.406V277Z" fill="#E43D30"/>
<path d="M104.805 330H112C113.344 330 114.465 329.551 115.363 328.652C116.27 327.793 116.73 326.625 116.746 325.148C116.746 324.258 116.523 323.434 116.078 322.676C115.602 321.941 114.898 321.453 113.969 321.211V321.164C114.461 320.93 114.875 320.668 115.211 320.379C115.547 320.105 115.805 319.816 115.984 319.512C116.336 318.871 116.504 318.199 116.488 317.496C116.488 316.121 116.062 315.016 115.211 314.18C114.367 313.352 113.105 312.93 111.426 312.914H104.805V330ZM111.379 322.418C112.34 322.434 113.043 322.688 113.488 323.18C113.934 323.68 114.156 324.281 114.156 324.984C114.156 325.672 113.934 326.266 113.488 326.766C113.043 327.273 112.34 327.535 111.379 327.551H107.395V322.418H111.379ZM111.133 315.223C112.078 315.238 112.773 315.469 113.219 315.914C113.672 316.391 113.898 316.973 113.898 317.66C113.898 318.348 113.672 318.918 113.219 319.371C112.773 319.863 112.078 320.109 111.133 320.109H107.395V315.223H111.133ZM121.844 329.52L121.176 331.559C121.066 331.91 120.875 332.176 120.602 332.355C120.328 332.527 120.031 332.613 119.711 332.613H118.996V334.922H119.805C120.562 334.922 121.242 334.754 121.844 334.418C122.438 334.066 122.902 333.434 123.238 332.52L128.477 317.836H125.875L123.004 326.355H122.957L120.074 317.836H117.484L121.844 329.52ZM135.883 330H138.473V317.859H138.52L146.242 330H148.691V312.914H146.102V325.055H146.055L138.32 312.914H135.883V330ZM152.16 330H154.609V317.836H152.16V330ZM152.16 315.363H154.609V312.914H152.16V315.363ZM165.004 326.426C164.387 327.254 163.562 327.676 162.531 327.691C160.453 327.73 159.398 326.477 159.367 323.93C159.398 321.367 160.453 320.102 162.531 320.133C163.562 320.164 164.387 320.59 165.004 321.41L166.809 319.805C166.277 319.164 165.652 318.652 164.934 318.27C164.215 317.895 163.383 317.699 162.438 317.684C161 317.668 159.738 318.148 158.652 319.125C157.527 320.117 156.949 321.719 156.918 323.93C156.949 326.117 157.527 327.699 158.652 328.676C159.738 329.652 161 330.141 162.438 330.141C163.383 330.125 164.215 329.918 164.934 329.52C165.652 329.137 166.277 328.641 166.809 328.031L165.004 326.426ZM168.52 330H170.969V322.758C170.969 321.906 171.199 321.258 171.66 320.812C172.113 320.359 172.691 320.133 173.395 320.133C174.098 320.133 174.672 320.359 175.117 320.812C175.57 321.258 175.797 321.906 175.797 322.758V330H178.246V321.914C178.207 320.523 177.773 319.469 176.945 318.75C176.109 318.039 175.188 317.684 174.18 317.684C172.875 317.684 171.82 318.164 171.016 319.125H170.969V312.914H168.52V330ZM180.812 323.906C180.812 325.188 180.918 326.164 181.129 326.836C181.348 327.508 181.684 328.09 182.137 328.582C182.473 328.965 182.941 329.309 183.543 329.613C184.137 329.949 184.898 330.125 185.828 330.141C186.789 330.125 187.566 329.949 188.16 329.613C188.48 329.473 188.742 329.305 188.945 329.109C189.172 328.938 189.363 328.762 189.52 328.582C190.004 328.09 190.348 327.508 190.551 326.836C190.746 326.164 190.844 325.188 190.844 323.906C190.844 322.625 190.746 321.641 190.551 320.953C190.348 320.281 190.004 319.715 189.52 319.254C189.199 318.848 188.746 318.484 188.16 318.164C187.566 317.859 186.789 317.699 185.828 317.684C184.898 317.699 184.137 317.859 183.543 318.164C182.941 318.484 182.473 318.848 182.137 319.254C181.684 319.715 181.348 320.281 181.129 320.953C180.918 321.641 180.812 322.625 180.812 323.906ZM188.395 323.93C188.395 324.758 188.355 325.367 188.277 325.758C188.199 326.156 188.039 326.508 187.797 326.812C187.617 327.047 187.352 327.254 187 327.434C186.664 327.605 186.273 327.691 185.828 327.691C185.414 327.691 185.031 327.605 184.68 327.434C184.344 327.254 184.07 327.047 183.859 326.812C183.648 326.508 183.496 326.156 183.402 325.758C183.309 325.367 183.262 324.75 183.262 323.906C183.262 323.055 183.309 322.43 183.402 322.031C183.496 321.648 183.648 321.312 183.859 321.023C184.07 320.75 184.344 320.535 184.68 320.379C185.031 320.215 185.414 320.133 185.828 320.133C186.273 320.133 186.664 320.215 187 320.379C187.352 320.535 187.617 320.75 187.797 321.023C188.039 321.312 188.199 321.648 188.277 322.031C188.355 322.43 188.395 323.062 188.395 323.93ZM193.41 327.047C193.41 328.117 193.715 328.879 194.324 329.332C194.902 329.777 195.637 330 196.527 330H197.617V327.691H196.773C196.164 327.691 195.859 327.414 195.859 326.859V312.914H193.41V327.047ZM205.984 330H208.434V321.691C208.418 320.207 207.953 319.16 207.039 318.551C206.125 317.957 204.902 317.668 203.371 317.684C201.559 317.652 200.188 318.246 199.258 319.465L201.18 320.93C201.391 320.578 201.68 320.328 202.047 320.18C202.398 320.055 202.879 319.992 203.488 319.992C205.168 319.961 206 320.48 205.984 321.551V322.828H202.598C201.301 322.844 200.316 323.195 199.645 323.883C198.973 324.555 198.637 325.402 198.637 326.426C198.637 327.496 199.023 328.375 199.797 329.062C200.531 329.766 201.578 330.125 202.938 330.141C203.766 330.141 204.414 330.039 204.883 329.836C205.359 329.641 205.711 329.336 205.938 328.922H205.984V330ZM205.984 325.723C205.984 326.637 205.793 327.223 205.41 327.48C204.988 327.738 204.266 327.859 203.242 327.844C202.43 327.844 201.848 327.684 201.496 327.363C201.129 327.074 200.945 326.723 200.945 326.309C200.93 325.363 201.633 324.875 203.055 324.844H205.984V325.723ZM211.961 326.285L210.25 327.961C211.836 329.414 213.621 330.141 215.605 330.141C217.066 330.125 218.266 329.789 219.203 329.133C220.148 328.492 220.629 327.582 220.645 326.402C220.645 325.395 220.383 324.562 219.859 323.906C219.297 323.234 218.383 322.852 217.117 322.758L215.102 322.605C214.508 322.543 214.094 322.398 213.859 322.172C213.602 321.969 213.48 321.73 213.496 321.457C213.496 321.027 213.656 320.676 213.977 320.402C214.281 320.129 214.816 319.992 215.582 319.992C216.254 319.992 216.848 320.09 217.363 320.285C217.887 320.504 218.383 320.781 218.852 321.117L220.363 319.348C219.77 318.832 219.098 318.422 218.348 318.117C217.957 317.977 217.539 317.867 217.094 317.789C216.648 317.719 216.145 317.684 215.582 317.684C214.285 317.684 213.215 317.996 212.371 318.621C211.504 319.246 211.062 320.184 211.047 321.434C211.062 322.473 211.398 323.281 212.055 323.859C212.695 324.453 213.527 324.797 214.551 324.891L216.707 325.078C217.16 325.094 217.523 325.191 217.797 325.371C218.062 325.543 218.195 325.848 218.195 326.285C218.195 326.777 217.973 327.16 217.527 327.434C217.082 327.707 216.508 327.844 215.805 327.844C214.234 327.844 212.953 327.324 211.961 326.285ZM237.895 325.219C237.176 326.773 236.09 327.551 234.637 327.551C234.027 327.551 233.504 327.422 233.066 327.164C232.621 326.945 232.262 326.66 231.988 326.309C231.652 325.941 231.43 325.461 231.32 324.867C231.195 324.273 231.133 323.137 231.133 321.457C231.133 319.777 231.195 318.633 231.32 318.023C231.43 317.445 231.652 316.973 231.988 316.605C232.262 316.254 232.621 315.961 233.066 315.727C233.504 315.5 234.027 315.379 234.637 315.363C235.465 315.379 236.168 315.617 236.746 316.078C237.301 316.562 237.684 317.148 237.895 317.836H240.637C240.363 316.406 239.707 315.207 238.668 314.238C237.629 313.277 236.285 312.789 234.637 312.773C233.293 312.789 232.172 313.109 231.273 313.734C230.359 314.352 229.695 315.055 229.281 315.844C229.023 316.258 228.832 316.801 228.707 317.473C228.59 318.145 228.531 319.473 228.531 321.457C228.531 323.41 228.59 324.73 228.707 325.418C228.77 325.785 228.848 326.09 228.941 326.332C229.043 326.566 229.156 326.812 229.281 327.07C229.695 327.859 230.359 328.555 231.273 329.156C232.172 329.781 233.293 330.109 234.637 330.141C236.121 330.141 237.406 329.719 238.492 328.875C239.547 328.023 240.262 326.805 240.637 325.219H237.895ZM242.254 330H244.703V322.758C244.703 321.906 244.934 321.258 245.395 320.812C245.848 320.359 246.426 320.133 247.129 320.133C247.832 320.133 248.406 320.359 248.852 320.812C249.305 321.258 249.531 321.906 249.531 322.758V330H251.98V321.914C251.941 320.523 251.508 319.469 250.68 318.75C249.844 318.039 248.922 317.684 247.914 317.684C246.609 317.684 245.555 318.164 244.75 319.125H244.703V312.914H242.254V330ZM261.531 330H263.98V321.691C263.965 320.207 263.5 319.16 262.586 318.551C261.672 317.957 260.449 317.668 258.918 317.684C257.105 317.652 255.734 318.246 254.805 319.465L256.727 320.93C256.938 320.578 257.227 320.328 257.594 320.18C257.945 320.055 258.426 319.992 259.035 319.992C260.715 319.961 261.547 320.48 261.531 321.551V322.828H258.145C256.848 322.844 255.863 323.195 255.191 323.883C254.52 324.555 254.184 325.402 254.184 326.426C254.184 327.496 254.57 328.375 255.344 329.062C256.078 329.766 257.125 330.125 258.484 330.141C259.312 330.141 259.961 330.039 260.43 329.836C260.906 329.641 261.258 329.336 261.484 328.922H261.531V330ZM261.531 325.723C261.531 326.637 261.34 327.223 260.957 327.48C260.535 327.738 259.812 327.859 258.789 327.844C257.977 327.844 257.395 327.684 257.043 327.363C256.676 327.074 256.492 326.723 256.492 326.309C256.477 325.363 257.18 324.875 258.602 324.844H261.531V325.723ZM267.145 330H269.594V322.676C269.609 321.785 269.867 321.141 270.367 320.742C270.812 320.336 271.348 320.133 271.973 320.133C272.527 320.133 273.062 320.336 273.578 320.742L275.359 318.621C274.633 318.012 273.781 317.699 272.805 317.684C271.5 317.684 270.445 318.164 269.641 319.125H269.594V317.836H267.145V330ZM276.496 327.047C276.496 328.117 276.801 328.879 277.41 329.332C277.988 329.777 278.723 330 279.613 330H280.703V327.691H279.859C279.25 327.691 278.945 327.414 278.945 326.859V312.914H276.496V327.047ZM289.07 330H291.52V321.691C291.504 320.207 291.039 319.16 290.125 318.551C289.211 317.957 287.988 317.668 286.457 317.684C284.645 317.652 283.273 318.246 282.344 319.465L284.266 320.93C284.477 320.578 284.766 320.328 285.133 320.18C285.484 320.055 285.965 319.992 286.574 319.992C288.254 319.961 289.086 320.48 289.07 321.551V322.828H285.684C284.387 322.844 283.402 323.195 282.73 323.883C282.059 324.555 281.723 325.402 281.723 326.426C281.723 327.496 282.109 328.375 282.883 329.062C283.617 329.766 284.664 330.125 286.023 330.141C286.852 330.141 287.5 330.039 287.969 329.836C288.445 329.641 288.797 329.336 289.023 328.922H289.07V330ZM289.07 325.723C289.07 326.637 288.879 327.223 288.496 327.48C288.074 327.738 287.352 327.859 286.328 327.844C285.516 327.844 284.934 327.684 284.582 327.363C284.215 327.074 284.031 326.723 284.031 326.309C284.016 325.363 284.719 324.875 286.141 324.844H289.07V325.723ZM294.684 330H297.133V322.758C297.133 321.906 297.363 321.258 297.824 320.812C298.277 320.359 298.855 320.133 299.559 320.133C300.262 320.133 300.836 320.359 301.281 320.812C301.734 321.258 301.961 321.906 301.961 322.758V330H304.41V321.914C304.371 320.523 303.938 319.469 303.109 318.75C302.273 318.039 301.352 317.684 300.344 317.684C299.039 317.684 297.984 318.164 297.18 319.125H297.133V317.836H294.684V330ZM314.852 328.723V330H317.301V312.914H314.852V319.125C314.398 318.695 313.926 318.344 313.434 318.07C312.902 317.812 312.324 317.684 311.699 317.684C310.215 317.723 309.129 318.254 308.441 319.277C308.105 319.66 307.883 320.164 307.773 320.789C307.641 321.406 307.574 322.445 307.574 323.906C307.574 325.344 307.641 326.375 307.773 327C307.883 327.656 308.105 328.176 308.441 328.559C308.809 329.027 309.266 329.402 309.812 329.684C310.336 329.973 310.965 330.125 311.699 330.141C312.996 330.109 314.047 329.637 314.852 328.723ZM312.449 320.133C313.027 320.133 313.484 320.246 313.82 320.473C314.156 320.699 314.387 320.996 314.512 321.363C314.668 321.73 314.773 322.129 314.828 322.559C314.844 322.988 314.852 323.438 314.852 323.906C314.852 324.336 314.844 324.773 314.828 325.219C314.773 325.672 314.668 326.082 314.512 326.449C314.387 326.816 314.156 327.113 313.82 327.34C313.484 327.574 313.027 327.691 312.449 327.691C311.871 327.691 311.43 327.582 311.125 327.363C310.789 327.137 310.543 326.848 310.387 326.496C310.238 326.129 310.141 325.715 310.094 325.254C310.047 324.816 310.023 324.367 310.023 323.906C310.023 323.422 310.047 322.949 310.094 322.488C310.141 322.059 310.238 321.66 310.387 321.293C310.543 320.926 310.789 320.637 311.125 320.426C311.43 320.23 311.871 320.133 312.449 320.133Z" fill="black"/>
</g>
<defs>
<filter id="filter0_dii" x="775.842" y="7.52002" width="354.191" height="499.483" filterUnits="userSpaceOnUse" color-interpolation-filters="sRGB">
<feFlood flood-opacity="0" result="BackgroundImageFix"/>
<feColorMatrix in="SourceAlpha" type="matrix" values="0 0 0 0 0 0 0 0 0 0 0 0 0 0 0 0 0 0 127 0"/>
<feOffset dx="30" dy="7"/>
<feGaussianBlur stdDeviation="12.5"/>
<feColorMatrix type="matrix" values="0 0 0 0 0.301961 0 0 0 0 0.301961 0 0 0 0 0.301961 0 0 0 0.2 0"/>
<feBlend mode="normal" in2="BackgroundImageFix" result="effect1_dropShadow"/>
<feBlend mode="normal" in="SourceGraphic" in2="effect1_dropShadow" result="shape"/>
<feColorMatrix in="SourceAlpha" type="matrix" values="0 0 0 0 0 0 0 0 0 0 0 0 0 0 0 0 0 0 127 0" result="hardAlpha"/>
<feOffset dx="10" dy="2"/>
<feGaussianBlur stdDeviation="10"/>
<feComposite in2="hardAlpha" operator="arithmetic" k2="-1" k3="1"/>
<feColorMatrix type="matrix" values="0 0 0 0 1 0 0 0 0 1 0 0 0 0 1 0 0 0 1 0"/>
<feBlend mode="normal" in2="shape" result="effect2_innerShadow"/>
<feColorMatrix in="SourceAlpha" type="matrix" values="0 0 0 0 0 0 0 0 0 0 0 0 0 0 0 0 0 0 127 0" result="hardAlpha"/>
<feOffset dx="-2" dy="-10"/>
<feGaussianBlur stdDeviation="10"/>
<feComposite in2="hardAlpha" operator="arithmetic" k2="-1" k3="1"/>
<feColorMatrix type="matrix" values="0 0 0 0 0.501961 0 0 0 0 0.501961 0 0 0 0 0.501961 0 0 0 0.9 0"/>
<feBlend mode="normal" in2="effect2_innerShadow" result="effect3_innerShadow"/>
</filter>
<clipPath id="clip0">
<rect width="1200" height="500" fill="white"/>
</clipPath>
<clipPath id="clip1">
<rect width="165.386" height="118.85" fill="white" transform="matrix(0.999914 0.0130896 -0.188924 0.981992 864.181 119.649)"/>
</clipPath>
</defs>
</svg>
