<svg id="Layer_1" data-name="Layer 1" xmlns="http://www.w3.org/2000/svg" viewBox="0 0 224 218.4"><defs><style>.cls-1{fill:#333;}.cls-2{fill:#fff;}</style></defs><g id="Layer_2" data-name="Layer 2"><g id="Surfaces"><g id="Drawing_Surface" data-name="Drawing Surface"><g id="Outline_no_shadow" data-name="Outline no shadow"><path class="cls-1" d="M47.67,7.8H192.33A39.63,39.63,0,0,1,232,47.47V186.53a39.63,39.63,0,0,1-39.67,39.67H47.67A39.63,39.63,0,0,1,8,186.53V47.47A39.63,39.63,0,0,1,47.67,7.8Z" transform="translate(-8 -7.8)"/></g></g></g></g><path class="cls-2" d="M225.05,108.18v18.65l-70,34.55V141.86l49.37-24.36L155,93.08V73.62ZM85,141.86,35.61,117.5,85,93.08V73.62L15,108.18v18.65l70,34.55Zm61.69-94.39H128.48L93.37,187.53h18.15Z" transform="translate(-8 -7.8)"/></svg>