<svg id="Layer_1" data-name="Layer 1" xmlns="http://www.w3.org/2000/svg" viewBox="0 0 224.1 218.5"><defs><style>.cls-1{fill:#333;}.cls-2{fill:#fff;}</style></defs><g id="Layer_2" data-name="Layer 2"><g id="Surfaces"><g id="Drawing_Surface" data-name="Drawing Surface"><g id="Outline_no_shadow" data-name="Outline no shadow"><path class="cls-1" d="M47.7,7.8H192.4a39.67,39.67,0,0,1,39.7,39.7V186.6a39.67,39.67,0,0,1-39.7,39.7H47.7A39.75,39.75,0,0,1,8,186.5V47.5A39.61,39.61,0,0,1,47.7,7.8Z" transform="translate(-8 -7.8)"/></g></g></g></g><path class="cls-2" d="M76.25,191.25v-118h118v55.63C194.25,159.17,150,147,150,147s11.2,44.25-19.46,44.25ZM209,135.1V58.5H61.5V206h75.14C160,206,209,152.73,209,135.1ZM135.25,147H98.38v-7.38h36.87Zm36.87-29.5H98.38v7.38h73.74Zm0-22.12H98.38v7.37h73.74Zm14.76-51.63H46.75V183.88H32V29H186.88Z" transform="translate(-8 -7.8)"/></svg>