<svg id="Layer_1" data-name="Layer 1" xmlns="http://www.w3.org/2000/svg" viewBox="0 0 23.1 23.1"><defs><style>.cls-1{fill:#333;}.cls-2{fill:#0acf83;}.cls-3{fill:#a259ff;}.cls-4{fill:#f24e1e;}.cls-5{fill:#ff7262;}.cls-6{fill:#1abcfe;}</style></defs><g id="ads_manager" data-name="ads manager"><rect class="cls-1" width="23.1" height="23.1" rx="3.37"/><path class="cls-1" d="M20.68,2A2.35,2.35,0,0,1,23,4.32V20.68A2.35,2.35,0,0,1,20.68,23H4.32A2.35,2.35,0,0,1,2,20.68V4.32A2.35,2.35,0,0,1,4.32,2H20.68m0-1H4.32A3.37,3.37,0,0,0,1,4.32V20.68a3.37,3.37,0,0,0,3.37,3.37H20.68a3.37,3.37,0,0,0,3.37-3.37V4.32A3.37,3.37,0,0,0,20.68,1Z" transform="translate(-0.95 -0.95)"/><path id="path0_fill" data-name="path0 fill" class="cls-2" d="M9.62,21.14a2.88,2.88,0,0,0,2.88-2.88V15.38H9.62a2.88,2.88,0,1,0,0,5.76Z" transform="translate(-0.95 -0.95)"/><path id="path1_fill" data-name="path1 fill" class="cls-3" d="M6.74,12.5A2.88,2.88,0,0,1,9.62,9.62H12.5v5.76H9.62A2.88,2.88,0,0,1,6.74,12.5Z" transform="translate(-0.95 -0.95)"/><path id="path1_fill-2" data-name="path1 fill-2" class="cls-4" d="M6.74,6.74A2.88,2.88,0,0,1,9.62,3.86H12.5V9.62H9.62A2.88,2.88,0,0,1,6.74,6.74Z" transform="translate(-0.95 -0.95)"/><path id="path2_fill" data-name="path2 fill" class="cls-5" d="M12.5,3.88h2.88a2.88,2.88,0,1,1,0,5.76H12.5Z" transform="translate(-0.95 -0.95)"/><path id="path3_fill" data-name="path3 fill" class="cls-6" d="M18.26,12.5a2.88,2.88,0,1,1-2.88-2.88h0A2.88,2.88,0,0,1,18.26,12.5Z" transform="translate(-0.95 -0.95)"/></g></svg>