<svg id="Layer_1" data-name="Layer 1" xmlns="http://www.w3.org/2000/svg" viewBox="0 0 270 520.66"><defs><style>.cls-1{fill:#073b4c;}.cls-2{fill:#f4454a;}.cls-3{fill:#ad3b4c;}.cls-4{fill:#fff;}</style></defs><path class="cls-1" d="M270,183.91V427.28C251.1,438,233.3,449,212.33,458.6a128.89,128.89,0,0,1-17.17-4.9c-33.37-12.55-57.2-42-85.41-48.73a55,55,0,0,0-8.84-1.26c2.39-19.61,4.81-40.44,2.43-58.59-5.45-41.56-36.11-68.83-36.11-92-.26-23.12,30.13-41.82,59-63.64,28.58-21.82,55.85-46.76,81.05-44.16C226.88,147.59,245.26,166.55,270,183.91Z" transform="translate(0 -145.18)"/><path class="cls-2" d="M269.26,468V591c-11.1,12.6-23.65,23-35.86,32-21,15.49-41.06,27-63.17,32.77s-46,5.59-80.24,4.52c-34.16-.79-78.44-2.6-88-22.85-9.36-20.12,16.19-58.85,24.44-96.12,8.39-37.44-.68-73.57,11-99.88,10.6-23.75,37.65-39.35,63.45-37.69-3.07,25.29-6.07,48.55,1.39,61.42,13.51,23.12,60.27,13.51,96.63-.78,4.63-1.85,9.08-3.77,13.4-5.75C231.94,462.87,252.78,463.9,269.26,468Z" transform="translate(0 -145.18)"/><path class="cls-3" d="M212.33,458.6c-4.32,2-8.77,3.9-13.4,5.75-36.36,14.29-83.12,23.9-96.63.78-7.46-12.87-4.46-36.13-1.39-61.42a55,55,0,0,1,8.84,1.26c28.21,6.71,52,36.18,85.41,48.73A128.89,128.89,0,0,0,212.33,458.6Z" transform="translate(0 -145.18)"/><circle class="cls-4" cx="187.28" cy="393.64" r="14.77"/><circle class="cls-4" cx="242.67" cy="393.64" r="14.77"/><circle class="cls-4" cx="187.28" cy="449.76" r="14.77"/><circle class="cls-4" cx="242.67" cy="449.76" r="14.77"/><circle class="cls-4" cx="187.28" cy="505.89" r="14.77"/><circle class="cls-4" cx="187.28" cy="174.29" r="14.77"/><circle class="cls-4" cx="242.67" cy="174.29" r="14.77"/><circle class="cls-4" cx="187.28" cy="230.42" r="14.77"/><circle class="cls-4" cx="242.67" cy="230.42" r="14.77"/><circle class="cls-4" cx="187.28" cy="286.55" r="14.77"/><circle class="cls-4" cx="242.67" cy="286.55" r="14.77"/><circle class="cls-4" cx="187.28" cy="342.68" r="14.77"/><circle class="cls-4" cx="242.67" cy="342.68" r="14.77"/></svg>