<svg id="Layer_1" data-name="Layer 1" xmlns="http://www.w3.org/2000/svg" viewBox="0 0 1919.02 861.45"><defs><style>.cls-1{fill:#ffd166;}.cls-2{fill:#fff;}.cls-3{fill:#7499bd;}.cls-4{fill:#376;}.cls-5{fill:#118ab2;}.cls-6{fill:#073b4c;}.cls-7{fill:#ad3b4c;}.cls-8{fill:#f4454a;}</style></defs><path class="cls-1" d="M304.25,345.84C334,388.69,333.36,450.5,324.2,518.2c-2.33,17.28-5.22,34.91-8.94,51.92C297.4,560,278.45,553.88,259.7,553.36c-52.87-1.48-104.47,41.6-157.87,87.11-7.51-3.77-15.06-7.59-22.59-11.4-27-13.55-53.75-26.76-77.43-41.17,2-90,1.34-180.06,2.21-270.1,42.38-29.56,95.21-42.23,146.51-40.63C213.66,279.45,274.16,303,304.25,345.84Z" transform="translate(-0.97 -106.6)"/><circle class="cls-2" cx="72.35" cy="213.04" r="19.37"/><circle class="cls-2" cx="144.98" cy="213.04" r="19.37"/><circle class="cls-2" cx="217.6" cy="213.04" r="19.37"/><circle class="cls-2" cx="72.35" cy="286.64" r="19.37"/><circle class="cls-2" cx="144.98" cy="286.64" r="19.37"/><circle class="cls-2" cx="217.6" cy="286.64" r="19.37"/><circle class="cls-2" cx="72.35" cy="360.24" r="19.37"/><circle class="cls-2" cx="144.98" cy="360.24" r="19.37"/><circle class="cls-2" cx="217.6" cy="360.24" r="19.37"/><circle class="cls-2" cx="217.6" cy="425.12" r="19.37"/><circle class="cls-3" cx="217.6" cy="498.71" r="19.37"/><circle class="cls-2" cx="217.6" cy="645.91" r="19.37"/><path class="cls-3" d="M237.39,683.5c-11.6,1.46-24.42.19-38.11-3-.05-.52-.07-1-.07-1.57a19.37,19.37,0,1,1,38.18,4.59Z" transform="translate(-0.97 -106.6)"/><path class="cls-2" d="M218.57,698.27a19.36,19.36,0,0,1-19.29-17.79c13.69,3.21,26.51,4.48,38.11,3A19.36,19.36,0,0,1,218.57,698.27Z" transform="translate(-0.97 -106.6)"/><path class="cls-4" d="M199.21,605.31a19.37,19.37,0,1,0,19.36-19.37A19.37,19.37,0,0,0,199.21,605.31Zm-97.38,35.16c9.52-8.11,19-16.14,28.39-23.87a19.36,19.36,0,1,0,30.57-23.71c33-23.8,65.7-40.45,98.91-39.53,18.75.52,37.7,6.63,55.56,16.76-10.92,50-28.92,94.51-60.4,108.67a60.7,60.7,0,0,1-17.47,4.71,19.37,19.37,0,1,0-38.18-4.59c0,.53,0,1.05.07,1.57a263.2,263.2,0,0,1-37.05-12.05A19.31,19.31,0,0,0,146,659.54a18.26,18.26,0,0,0-3.72.37C129,654,115.45,647.31,101.83,640.47Z" transform="translate(-0.97 -106.6)"/><path class="cls-2" d="M146,698.27a19.36,19.36,0,0,1-3.72-38.36q10.14,4.56,20,8.52A19.36,19.36,0,0,1,146,698.27Z" transform="translate(-0.97 -106.6)"/><circle class="cls-2" cx="144.97" cy="425.12" r="19.37"/><path class="cls-3" d="M130.22,616.6c10.24-8.38,20.41-16.38,30.57-23.71a19.16,19.16,0,0,1,4.52,12.42,19.36,19.36,0,0,1-35.09,11.29Z" transform="translate(-0.97 -106.6)"/><path class="cls-3" d="M146,659.54a19.31,19.31,0,0,1,16.28,8.89q-9.85-3.95-20-8.52A18.26,18.26,0,0,1,146,659.54Z" transform="translate(-0.97 -106.6)"/><circle class="cls-2" cx="144.97" cy="645.91" r="19.37"/><path class="cls-2" d="M160.79,592.89c-10.16,7.33-20.33,15.33-30.57,23.71a19.36,19.36,0,0,1,30.57-23.71Z" transform="translate(-0.97 -106.6)"/><path class="cls-5" d="M199.21,752.5a19.37,19.37,0,1,0,19.36-19.37A19.37,19.37,0,0,0,199.21,752.5Zm-72.63,0A19.37,19.37,0,1,0,146,733.13,19.38,19.38,0,0,0,126.58,752.5ZM73.32,698.27a19.37,19.37,0,0,0,5.22-38L93,648c3-2.51,5.91-5,8.86-7.55,13.62,6.84,27.17,13.48,40.4,19.44a19.36,19.36,0,1,0,20,8.52,263.2,263.2,0,0,0,37.05,12.05,19.36,19.36,0,0,0,38.11,3,60.7,60.7,0,0,0,17.47-4.71c31.48-14.16,49.48-58.71,60.4-108.67,35.3,20,66.34,55.82,83.09,95.42,24.79,59.82,17.41,127.71-9,185.1-26.66,57.25-71.9,103.82-123.07,114.86-51,10.75-107.74-13.9-166.53-48.68C62.3,894.69,24.15,868.41,1,840.34V735.82c13.69-18.06,32.53-36.25,53.14-54.47A19.37,19.37,0,0,0,73.32,698.27ZM54,752.5a19.37,19.37,0,1,0,19.37-19.37A19.38,19.38,0,0,0,54,752.5Z" transform="translate(-0.97 -106.6)"/><circle class="cls-2" cx="72.35" cy="425.12" r="19.37"/><circle class="cls-2" cx="72.35" cy="498.71" r="19.37"/><path class="cls-2" d="M92.69,678.91a19.37,19.37,0,0,1-38.58,2.44c7.94-7,16.15-14.07,24.43-21.1A19.38,19.38,0,0,1,92.69,678.91Z" transform="translate(-0.97 -106.6)"/><path class="cls-2" d="M73.32,659.54a19.58,19.58,0,0,1,5.22.71c-8.28,7-16.49,14.07-24.43,21.1a18.07,18.07,0,0,1-.16-2.44A19.37,19.37,0,0,1,73.32,659.54Z" transform="translate(-0.97 -106.6)"/><circle class="cls-2" cx="72.35" cy="645.91" r="19.37"/><path class="cls-6" d="M1920,476.49c-24.77,14.07-48.1,28.45-75.59,41.06a170.38,170.38,0,0,1-22.55-6.42c-43.75-16.46-75-55.1-112-63.9a73,73,0,0,0-11.57-1.65c3.12-25.71,6.29-53,3.18-76.81-7.16-54.5-47.35-90.27-47.35-120.58-.34-30.32,39.51-54.83,77.32-83.45,37.46-28.61,73.22-61.31,106.27-57.9,25.74,2.93,49.84,27.77,82.28,50.53Z" transform="translate(-0.97 -106.6)"/><path class="cls-7" d="M1700.11,526.12c-9.79-16.88-5.85-47.39-1.81-80.54a73,73,0,0,1,11.57,1.65c37,8.8,68.24,47.44,112,63.9a170.38,170.38,0,0,0,22.55,6.42c-5.68,2.59-11.53,5.12-17.6,7.55C1779.13,543.83,1717.82,556.44,1700.11,526.12Z" transform="translate(-0.97 -106.6)"/><path class="cls-8" d="M1698.3,445.58c-4,33.15-8,63.66,1.81,80.54,17.71,30.32,79,17.71,126.7-1,6.07-2.43,11.92-5,17.6-7.55,25.71,5.6,53,7,74.62,12.26V691.1c-14.56,16.53-31,30.12-47,42-27.58,20.32-53.82,35.38-82.82,43-28.81,7.39-60.38,7.33-105.2,5.91-44.81-1-102.86-3.4-115.35-30-12.26-26.38,21.23-77.15,32-126,11-49.08-.89-96.45,14.42-131C1629,463.86,1664.46,443.41,1698.3,445.58Z" transform="translate(-0.97 -106.6)"/><circle class="cls-2" cx="1810.57" cy="516.14" r="19.37"/><circle class="cls-2" cx="1883.2" cy="516.14" r="19.37"/><circle class="cls-2" cx="1810.57" cy="589.74" r="19.37"/><circle class="cls-2" cx="1883.2" cy="589.74" r="19.37"/><circle class="cls-2" cx="1810.57" cy="663.33" r="19.37"/><circle class="cls-2" cx="1810.57" cy="228.54" r="19.37"/><circle class="cls-2" cx="1883.2" cy="228.54" r="19.37"/><circle class="cls-2" cx="1810.57" cy="302.13" r="19.37"/><circle class="cls-2" cx="1883.2" cy="302.13" r="19.37"/><circle class="cls-2" cx="1810.57" cy="375.73" r="19.37"/><circle class="cls-2" cx="1883.2" cy="375.73" r="19.37"/><circle class="cls-2" cx="1810.57" cy="449.33" r="19.37"/><circle class="cls-2" cx="1883.2" cy="449.33" r="19.37"/></svg>