<svg id="Layer_1" data-name="Layer 1" xmlns="http://www.w3.org/2000/svg" viewBox="0 0 270 452.23"><defs><style>.cls-1{fill:#ffd166;}.cls-2{fill:#fff;}.cls-3{fill:#118ab2;}.cls-4{fill:#376;}.cls-5{fill:#7499bd;}</style></defs><path class="cls-1" d="M198.47,219.32c19.48,28,19.05,68.5,13.06,112.8-1.52,11.31-3.42,22.85-5.85,34-11.69-6.62-24.09-10.62-36.36-11-34.6-1-68.37,27.23-103.32,57l-14.78-7.46C33.58,395.81,16,387.16.55,377.73,1.88,318.81,1.43,259.89,2,201c27.74-19.35,62.31-27.64,95.88-26.59C139.19,175.87,178.78,191.28,198.47,219.32Z" transform="translate(0 -174.29)"/><circle class="cls-2" cx="47.35" cy="27.88" r="12.67"/><circle class="cls-2" cx="94.88" cy="27.88" r="12.67"/><circle class="cls-2" cx="142.41" cy="27.88" r="12.67"/><circle class="cls-2" cx="47.35" cy="76.05" r="12.67"/><circle class="cls-2" cx="94.88" cy="76.05" r="12.67"/><circle class="cls-2" cx="142.41" cy="76.05" r="12.67"/><circle class="cls-2" cx="47.35" cy="124.21" r="12.67"/><circle class="cls-2" cx="94.88" cy="124.21" r="12.67"/><circle class="cls-2" cx="142.41" cy="124.21" r="12.67"/><path class="cls-3" d="M260.06,428.54c16.22,39.15,11.39,83.58-5.86,121.14-17.46,37.46-47.06,68-80.55,75.17-33.41,7-70.51-9.1-109-31.86-24.53-14.48-49.5-31.68-64.66-50v-68.4c9-11.82,21.28-23.73,34.77-35.65a12.68,12.68,0,1,0,16-13.81l9.44-8,5.8-4.94c8.92,4.47,17.78,8.82,26.44,12.72a12.67,12.67,0,1,0,13.09,5.57,172.75,172.75,0,0,0,24.24,7.89,12.68,12.68,0,0,0,24.95,2,39.5,39.5,0,0,0,11.43-3.09c20.6-9.26,32.38-38.42,39.53-71.11C228.78,379.2,249.09,402.63,260.06,428.54Zm-105,56.91a12.68,12.68,0,1,0-12.68,12.68A12.67,12.67,0,0,0,155.08,485.45Zm-47.53,0a12.68,12.68,0,1,0-12.68,12.68A12.67,12.67,0,0,0,107.55,485.45Zm-47.53,0a12.68,12.68,0,1,0-12.68,12.68A12.67,12.67,0,0,0,60,485.45Z" transform="translate(0 -174.29)"/><path class="cls-4" d="M205.68,366.1c-7.15,32.69-18.93,61.85-39.53,71.11a39.5,39.5,0,0,1-11.43,3.09,12.92,12.92,0,0,0,.36-3,12.68,12.68,0,0,0-25.35,0c0,.35,0,.69,0,1a172.75,172.75,0,0,1-24.24-7.89,12.66,12.66,0,0,0-10.66-5.81,12.21,12.21,0,0,0-2.43.24C83.78,421,74.92,416.61,66,412.14c6.23-5.31,12.42-10.57,18.58-15.62a12.67,12.67,0,1,0,20-15.52c21.58-15.58,43-26.48,64.73-25.87C181.59,355.47,194,359.47,205.68,366.1Zm-50.6,23A12.68,12.68,0,1,0,142.4,401.8,12.67,12.67,0,0,0,155.08,389.13Z" transform="translate(0 -174.29)"/><path class="cls-5" d="M155.08,437.29a12.92,12.92,0,0,1-.36,3c-7.59.95-16,.12-24.95-2,0-.34,0-.68,0-1a12.68,12.68,0,0,1,25.35,0Z" transform="translate(0 -174.29)"/><circle class="cls-2" cx="142.41" cy="166.67" r="12.67"/><circle class="cls-5" cx="142.41" cy="214.84" r="12.67"/><path class="cls-2" d="M154.72,440.3a12.68,12.68,0,0,1-24.95-2C138.74,440.42,147.13,441.25,154.72,440.3Z" transform="translate(0 -174.29)"/><circle class="cls-2" cx="142.41" cy="311.17" r="12.67"/><path class="cls-2" d="M105.53,430.43A12.68,12.68,0,0,1,94.87,450a12.67,12.67,0,0,1-2.43-25.11C96.86,426.85,101.23,428.72,105.53,430.43Z" transform="translate(0 -174.29)"/><path class="cls-5" d="M104.59,381a12.67,12.67,0,1,1-20,15.52C91.28,391,97.94,385.79,104.59,381Z" transform="translate(0 -174.29)"/><circle class="cls-2" cx="94.88" cy="166.67" r="12.67"/><path class="cls-2" d="M94.87,376.45a12.59,12.59,0,0,1,9.72,4.55c-6.65,4.79-13.31,10-20,15.52a12.68,12.68,0,0,1,10.29-20.07Z" transform="translate(0 -174.29)"/><path class="cls-5" d="M94.87,424.62a12.66,12.66,0,0,1,10.66,5.81c-4.3-1.71-8.67-3.58-13.09-5.57A12.21,12.21,0,0,1,94.87,424.62Z" transform="translate(0 -174.29)"/><circle class="cls-2" cx="94.88" cy="311.17" r="12.67"/><circle class="cls-2" cx="47.35" cy="166.67" r="12.67"/><circle class="cls-2" cx="47.35" cy="214.84" r="12.67"/><path class="cls-2" d="M50.76,425.08a12.68,12.68,0,1,1-16,13.81C40,434.29,45.34,429.69,50.76,425.08Z" transform="translate(0 -174.29)"/><circle class="cls-2" cx="47.35" cy="311.17" r="12.67"/><path class="cls-2" d="M47.34,424.62a12.78,12.78,0,0,1,3.42.46c-5.42,4.61-10.79,9.21-16,13.81a12.17,12.17,0,0,1-.1-1.6A12.67,12.67,0,0,1,47.34,424.62Z" transform="translate(0 -174.29)"/></svg>