<svg id="Layer_1" data-name="Layer 1" xmlns="http://www.w3.org/2000/svg" viewBox="0 0 266.8 75.67"><defs><style>.cls-1{fill:none;stroke:#000;stroke-linecap:round;stroke-miterlimit:10;stroke-width:2.78px;}.cls-2{font-size:24.98px;font-family:BrandonGrotesque-Bold, Brandon Grotesque;font-weight:700;}.cls-3{letter-spacing:0em;}.cls-4{letter-spacing:-0.04em;}.cls-5{font-family:BrandonGrotesque-Thin, Brandon Grotesque;font-weight:200;}</style></defs><title>veggie-reci-logo</title><path d="M74.8,41.38c2.18,0,6.14,1.9,8.74,5a9.09,9.09,0,0,1,2.34,7.31,205.81,205.81,0,0,1-6.07,25.53c-2.24,7.22-4,11.12-5.09,12.9-2.82-4.72-8.14-21.32-11-38.43a9.05,9.05,0,0,1,2.34-7.31c2.6-3.06,6.55-5,8.73-5m0-2.78c-5.11,0-15.29,6.6-13.81,15.5C64,72.43,71.11,95.78,74.73,95.78S85.56,72.43,88.62,54.1c1.48-8.9-8.71-15.5-13.82-15.5Z" transform="translate(-2.61 -21.95)"/><line class="cls-1" x1="69.42" y1="16.66" x2="63.86" y2="9.02"/><line class="cls-1" x1="74.97" y1="16.66" x2="80.52" y2="9.02"/><line class="cls-1" x1="72.19" y1="1.39" x2="72.19" y2="17.52"/><path class="cls-1" d="M63.7,49.71h4.16" transform="translate(-2.61 -21.95)"/><path class="cls-1" d="M70.64,83h2.78" transform="translate(-2.61 -21.95)"/><path class="cls-1" d="M77.58,55.26h8.33" transform="translate(-2.61 -21.95)"/><path class="cls-1" d="M65.09,63.59h5.55" transform="translate(-2.61 -21.95)"/><path class="cls-1" d="M74.8,71.92h6.94" transform="translate(-2.61 -21.95)"/><path class="cls-1" d="M65.69,87.69C60.5,82.63,50,73.85,43.75,70.14Q33.3,63.93,22.84,57.69" transform="translate(-2.61 -21.95)"/><path class="cls-1" d="M32.57,64.88l-17,1.1" transform="translate(-2.61 -21.95)"/><path class="cls-1" d="M44.83,69.74,38.21,54.59" transform="translate(-2.61 -21.95)"/><path class="cls-1" d="M56.3,79.58c-10.76,4.69-26.77,6.92-37.57,2.33a22.88,22.88,0,0,1-8.88-6.13A11.84,11.84,0,0,1,7.18,65.62c.9-3.52,4.29-6.44,7.91-6.17" transform="translate(-2.61 -21.95)"/><path class="cls-1" d="M8.67,60c-3.47-1.6-5.24-5.88-4.51-9.62a12.68,12.68,0,0,1,7-8.56,22.86,22.86,0,0,1,11.16-2c4.8.22,16.86.9,24.93,10.8A29.39,29.39,0,0,1,53.51,65.7" transform="translate(-2.61 -21.95)"/><text class="cls-2" transform="translate(98.21 30.81)">V<tspan class="cls-3" x="16.56" y="0">E</tspan><tspan x="31.18" y="0">GE</tspan><tspan class="cls-4" x="63.66" y="0">T</tspan><tspan x="75.23" y="0">ARIAN</tspan><tspan class="cls-5"><tspan x="0" y="29.98">R</tspan><tspan class="cls-3" x="16.19" y="29.98">E</tspan><tspan x="31.35" y="29.98">CIP</tspan><tspan class="cls-3" x="70.53" y="29.98">E</tspan><tspan x="85.69" y="29.98">S</tspan></tspan></text></svg>