<?xml version="1.0" encoding="utf-8"?>
<!-- Generator: Adobe Illustrator 22.1.0, SVG Export Plug-In . SVG Version: 6.00 Build 0)  -->
<svg version="1.1" id="Layer_1" xmlns="http://www.w3.org/2000/svg" xmlns:xlink="http://www.w3.org/1999/xlink" x="0px" y="0px"
	 viewBox="0 0 512 512" style="enable-background:new 0 0 512 512;" xml:space="preserve">
<g>
	<path d="M307.6,168.6c0,9.2,1.5,23-20.2,30.8c-6.7,2.4-11.2,6.8-11.2,6.8c0-21.8,3.3-29.7,12.2-34.4
		C295.3,168.3,307.6,168.6,307.6,168.6z M226.2,193.6l-24.1,93.3l-20-76.3c-5.4-22.5-14.6-34.1-34.1-34.1
		c-19.2,0-28.6,11.4-34.1,34.1l-20,76.3l-24.1-93.3C66,174.8,47.8,166.7,31,168.8l46.1,174.3c0,0,15.2,1.1,22.8-2.8
		c10-5.1,14.8-9,20.8-32.7c5.4-21.1,20.5-83.3,21.9-87.7c3.3-10.5,7.8-9.7,10.8,0c1.4,4.4,16.5,66.5,21.9,87.7
		c6,23.7,10.8,27.6,20.8,32.7c7.6,3.9,22.8,2.8,22.8,2.8l46.1-174.3C247.9,166.6,230,175.1,226.2,193.6L226.2,193.6z M307.6,197.2
		c0,0-2.9,4.5-9.5,8.1c-4.2,2.4-8.3,4-12.6,6.1c-10.6,5.1-9.3,9.8-9.3,24.8v106.9c0,0,11.6,1.5,19.2-2.4c9.8-5,12-9.8,12.1-31.5
		V203.6l0,0V197.2L307.6,197.2z M422.5,256.4l58.5-87c0,0-24.7-4.2-36.9,6.9c-9.4,8.5-17.2,20.8-38.1,51c-0.3,0.5-4.4,7.4-9.2,0
		c-20.6-29.7-28.7-42.4-38.1-51c-12.2-11.1-36.9-6.9-36.9-6.9l58.5,87L322,343.1c0,0,25.7,3.2,37.9-7.9c8.1-7.4,12.4-14.3,36.9-49.7
		c4.8-7.4,8.8-0.5,9.2,0c20.7,29.8,27.6,40.8,37.4,49.7c12.2,11.1,37.5,7.9,37.5,7.9L422.5,256.4L422.5,256.4z"/>
</g>
</svg>
